<svg xmlns="http://www.w3.org/2000/svg" width="638.0034790039062" height="652.2080078125" viewBox="-393.018798828125 -164.3760528564453 638.0034790039062 652.2080078125"><title>Neo4j Graph Visualization</title><desc>Created using Neo4j (http://www.neo4j.com/)</desc><g class="layer relationships"><g class="relationship" transform="translate(-349.01881291471983 259.56379638611793) rotate(394.3871329170605)"><path class="b-outline" fill="#A5ABB6" stroke="none" d="M 40 0.5 L 122.51983551116808 0.5 L 122.51983551116808 -0.5 L 40 -0.5 Z M 131.18389801116808 0.5 L 213.70373352233617 0.5 L 213.70373352233617 3.5 L 220.70373352233617 0 L 213.70373352233617 -3.5 L 213.70373352233617 -0.5 L 131.18389801116808 -0.5 Z"/><text text-anchor="middle" pointer-events="none" font-size="8px" fill="#000000" x="126.85186676116808" y="3" font-family="Helvetica Neue, Helvetica, Arial, sans-serif">-</text></g><g class="relationship" transform="translate(200.98465994762387 128.25797524050222) rotate(500.2453273591419)"><path class="b-outline" fill="#A5ABB6" stroke="none" d="M 40 0.5 L 209.95199973581995 0.5 L 209.95199973581995 -0.5 L 40 -0.5 Z M 218.61606223581995 0.5 L 388.5680619716399 0.5 L 388.5680619716399 3.5 L 395.5680619716399 0 L 388.5680619716399 -3.5 L 388.5680619716399 -0.5 L 218.61606223581995 -0.5 Z"/><text text-anchor="middle" pointer-events="none" font-size="8px" fill="#000000" x="214.28403098581995" y="3" transform="rotate(180 214.28403098581995 0)" font-family="Helvetica Neue, Helvetica, Arial, sans-serif">-</text></g><g class="relationship" transform="translate(-349.01881291471983 259.56379638611793) rotate(388.82002037594935)"><path class="b-outline" fill="#A5ABB6" stroke="none" d="M 40 0.5 L 183.29380197624556 0.5 L 183.29380197624556 -0.5 L 40 -0.5 Z M 191.95786447624556 0.5 L 335.2516664524911 0.5 L 335.2516664524911 3.5 L 342.2516664524911 0 L 335.2516664524911 -3.5 L 335.2516664524911 -0.5 L 191.95786447624556 -0.5 Z"/><text text-anchor="middle" pointer-events="none" font-size="8px" fill="#000000" x="187.62583322624556" y="3" font-family="Helvetica Neue, Helvetica, Arial, sans-serif">-</text></g><g class="relationship" transform="translate(200.98465994762387 128.25797524050222) rotate(484.2787033867744)"><path class="b-outline" fill="#A5ABB6" stroke="none" d="M 40 0.5 L 183.12225919440397 0.5 L 183.12225919440397 -0.5 L 40 -0.5 Z M 191.78632169440397 0.5 L 334.90858088880793 0.5 L 334.90858088880793 3.5 L 341.90858088880793 0 L 334.90858088880793 -3.5 L 334.90858088880793 -0.5 L 191.78632169440397 -0.5 Z"/><text text-anchor="middle" pointer-events="none" font-size="8px" fill="#000000" x="187.45429044440397" y="3" transform="rotate(180 187.45429044440397 0)" font-family="Helvetica Neue, Helvetica, Arial, sans-serif">-</text></g><g class="relationship" transform="translate(-349.01881291471983 259.56379638611793) rotate(360.3735899145122)"><path class="b-outline" fill="#A5ABB6" stroke="none" d="M 40 0.5 L 248.97822161819732 0.5 L 248.97822161819732 -0.5 L 40 -0.5 Z M 257.6422841181973 0.5 L 466.62050573639465 0.5 L 466.62050573639465 3.5 L 473.62050573639465 0 L 466.62050573639465 -3.5 L 466.62050573639465 -0.5 L 257.6422841181973 -0.5 Z"/><text text-anchor="middle" pointer-events="none" font-size="8px" fill="#000000" x="253.31025286819732" y="3" font-family="Helvetica Neue, Helvetica, Arial, sans-serif">-</text></g><g class="relationship" transform="translate(200.98465994762387 128.25797524050222) rotate(465.12428390934366)"><path class="b-outline" fill="#A5ABB6" stroke="none" d="M 40 0.5 L 61.91112034636974 0.5 L 61.91112034636974 -0.5 L 40 -0.5 Z M 70.57518284636974 0.5 L 92.48630319273948 0.5 L 92.48630319273948 3.5 L 99.48630319273948 0 L 92.48630319273948 -3.5 L 92.48630319273948 -0.5 L 70.57518284636974 -0.5 Z"/><text text-anchor="middle" pointer-events="none" font-size="8px" fill="#000000" x="66.24315159636974" y="3" transform="rotate(180 66.24315159636974 0)" font-family="Helvetica Neue, Helvetica, Arial, sans-serif">-</text></g><g class="relationship" transform="translate(-349.01881291471983 259.56379638611793) rotate(333.9799940648875)"><path class="b-outline" fill="#A5ABB6" stroke="none" d="M 40 0.5 L 246.99760045999227 0.5 L 246.99760045999227 -0.5 L 40 -0.5 Z M 255.66166295999227 0.5 L 462.65926341998454 0.5 L 462.65926341998454 3.5 L 469.65926341998454 0 L 462.65926341998454 -3.5 L 462.65926341998454 -0.5 L 255.66166295999227 -0.5 Z"/><text text-anchor="middle" pointer-events="none" font-size="8px" fill="#000000" x="251.32963170999227" y="3" font-family="Helvetica Neue, Helvetica, Arial, sans-serif">-</text></g><g class="relationship" transform="translate(200.98465994762387 128.25797524050222) rotate(225.08433062526558)"><path class="b-outline" fill="#A5ABB6" stroke="none" d="M 40 0.5 L 57.31973690890753 0.5 L 57.31973690890753 -0.5 L 40 -0.5 Z M 65.98379940890753 0.5 L 83.30353631781506 0.5 L 83.30353631781506 3.5 L 90.30353631781506 0 L 83.30353631781506 -3.5 L 83.30353631781506 -0.5 L 65.98379940890753 -0.5 Z"/><text text-anchor="middle" pointer-events="none" font-size="8px" fill="#000000" x="61.65176815890753" y="3" transform="rotate(180 61.65176815890753 0)" font-family="Helvetica Neue, Helvetica, Arial, sans-serif">-</text></g><g class="relationship" transform="translate(-349.01881291471983 259.56379638611793) rotate(373.02437386145255)"><path class="b-outline" fill="#A5ABB6" stroke="none" d="M 40 0.5 L 211.49552976670472 0.5 L 211.49552976670472 -0.5 L 40 -0.5 Z M 220.15959226670472 0.5 L 391.65512203340944 0.5 L 391.65512203340944 3.5 L 398.65512203340944 0 L 391.65512203340944 -3.5 L 391.65512203340944 -0.5 L 220.15959226670472 -0.5 Z"/><text text-anchor="middle" pointer-events="none" font-size="8px" fill="#000000" x="215.82756101670472" y="3" font-family="Helvetica Neue, Helvetica, Arial, sans-serif">-</text></g><g class="relationship" transform="translate(200.98465994762387 128.25797524050222) rotate(478.0490633629352)"><path class="b-outline" fill="#A5ABB6" stroke="none" d="M 40 0.5 L 122.56556974481089 0.5 L 122.56556974481089 -0.5 L 40 -0.5 Z M 131.2296322448109 0.5 L 213.79520198962177 0.5 L 213.79520198962177 3.5 L 220.79520198962177 0 L 213.79520198962177 -3.5 L 213.79520198962177 -0.5 L 131.2296322448109 -0.5 Z"/><text text-anchor="middle" pointer-events="none" font-size="8px" fill="#000000" x="126.89760099481089" y="3" transform="rotate(180 126.89760099481089 0)" font-family="Helvetica Neue, Helvetica, Arial, sans-serif">-</text></g><g class="relationship" transform="translate(-349.01881291471983 259.56379638611793) rotate(357.06372547776095)"><path class="b-outline" fill="#A5ABB6" stroke="none" d="M 40 0.5 L 190.67544344095217 0.5 L 190.67544344095217 -0.5 L 40 -0.5 Z M 199.33950594095217 0.5 L 350.01494938190433 0.5 L 350.01494938190433 3.5 L 357.01494938190433 0 L 350.01494938190433 -3.5 L 350.01494938190433 -0.5 L 199.33950594095217 -0.5 Z"/><text text-anchor="middle" pointer-events="none" font-size="8px" fill="#000000" x="195.00747469095217" y="3" font-family="Helvetica Neue, Helvetica, Arial, sans-serif">-</text></g><g class="relationship" transform="translate(200.98465994762387 128.25797524050222) rotate(504.1377067587421)"><path class="b-outline" fill="#A5ABB6" stroke="none" d="M 40 0.5 L 86.87710707210346 0.5 L 86.87710707210346 -0.5 L 40 -0.5 Z M 95.54116957210346 0.5 L 142.4182766442069 0.5 L 142.4182766442069 3.5 L 149.4182766442069 0 L 142.4182766442069 -3.5 L 142.4182766442069 -0.5 L 95.54116957210346 -0.5 Z"/><text text-anchor="middle" pointer-events="none" font-size="8px" fill="#000000" x="91.20913832210346" y="3" transform="rotate(180 91.20913832210346 0)" font-family="Helvetica Neue, Helvetica, Arial, sans-serif">-</text></g><g class="relationship" transform="translate(-349.01881291471983 259.56379638611793) rotate(322.33702438380436)"><path class="b-outline" fill="#A5ABB6" stroke="none" d="M 40 0.5 L 207.29271682636747 0.5 L 207.29271682636747 -0.5 L 40 -0.5 Z M 215.95677932636747 0.5 L 383.24949615273493 0.5 L 383.24949615273493 3.5 L 390.24949615273493 0 L 383.24949615273493 -3.5 L 383.24949615273493 -0.5 L 215.95677932636747 -0.5 Z"/><text text-anchor="middle" pointer-events="none" font-size="8px" fill="#000000" x="211.62474807636747" y="3" font-family="Helvetica Neue, Helvetica, Arial, sans-serif">-</text></g><g class="relationship" transform="translate(200.98465994762387 128.25797524050222) rotate(212.14331261299145)"><path class="b-outline" fill="#A5ABB6" stroke="none" d="M 40 0.5 L 115.82750467938475 0.5 L 115.82750467938475 -0.5 L 40 -0.5 Z M 124.49156717938475 0.5 L 200.3190718587695 0.5 L 200.3190718587695 3.5 L 207.3190718587695 0 L 200.3190718587695 -3.5 L 200.3190718587695 -0.5 L 124.49156717938475 -0.5 Z"/><text text-anchor="middle" pointer-events="none" font-size="8px" fill="#000000" x="120.15953592938475" y="3" transform="rotate(180 120.15953592938475 0)" font-family="Helvetica Neue, Helvetica, Arial, sans-serif">-</text></g><g class="relationship" transform="translate(-349.01881291471983 259.56379638611793) rotate(308.749697009186)"><path class="b-outline" fill="#A5ABB6" stroke="none" d="M 40 0.5 L 235.7541928172122 0.5 L 235.7541928172122 -0.5 L 40 -0.5 Z M 244.4182553172122 0.5 L 440.1724481344244 0.5 L 440.1724481344244 3.5 L 447.1724481344244 0 L 440.1724481344244 -3.5 L 440.1724481344244 -0.5 L 244.4182553172122 -0.5 Z"/><text text-anchor="middle" pointer-events="none" font-size="8px" fill="#000000" x="240.0862240672122" y="3" font-family="Helvetica Neue, Helvetica, Arial, sans-serif">-</text></g><g class="relationship" transform="translate(200.98465994762387 128.25797524050222) rotate(225.41327948824232)"><path class="b-outline" fill="#A5ABB6" stroke="none" d="M 40 0.5 L 166.7242355345915 0.5 L 166.7242355345915 -0.5 L 40 -0.5 Z M 175.3882980345915 0.5 L 302.112533569183 0.5 L 302.112533569183 3.5 L 309.112533569183 0 L 302.112533569183 -3.5 L 302.112533569183 -0.5 L 175.3882980345915 -0.5 Z"/><text text-anchor="middle" pointer-events="none" font-size="8px" fill="#000000" x="171.0562667845915" y="3" transform="rotate(180 171.0562667845915 0)" font-family="Helvetica Neue, Helvetica, Arial, sans-serif">-</text></g><g class="relationship" transform="translate(-349.01881291471983 259.56379638611793) rotate(338.96440472484255)"><path class="b-outline" fill="#A5ABB6" stroke="none" d="M 40 0.5 L 189.75875511802565 0.5 L 189.75875511802565 -0.5 L 40 -0.5 Z M 198.42281761802565 0.5 L 348.1815727360513 0.5 L 348.1815727360513 3.5 L 355.1815727360513 0 L 348.1815727360513 -3.5 L 348.1815727360513 -0.5 L 198.42281761802565 -0.5 Z"/><text text-anchor="middle" pointer-events="none" font-size="8px" fill="#000000" x="194.09078636802565" y="3" font-family="Helvetica Neue, Helvetica, Arial, sans-serif">-</text></g><g class="relationship" transform="translate(200.98465994762387 128.25797524050222) rotate(183.33097752908998)"><path class="b-outline" fill="#A5ABB6" stroke="none" d="M 40 0.5 L 82.9001289599843 0.5 L 82.9001289599843 -0.5 L 40 -0.5 Z M 91.5641914599843 0.5 L 134.4643204199686 0.5 L 134.4643204199686 3.5 L 141.4643204199686 0 L 134.4643204199686 -3.5 L 134.4643204199686 -0.5 L 91.5641914599843 -0.5 Z"/><text text-anchor="middle" pointer-events="none" font-size="8px" fill="#000000" x="87.2321602099843" y="3" transform="rotate(180 87.2321602099843 0)" font-family="Helvetica Neue, Helvetica, Arial, sans-serif">-</text></g><g class="relationship" transform="translate(-349.01881291471983 259.56379638611793) rotate(324.1008436570891)"><path class="b-outline" fill="#A5ABB6" stroke="none" d="M 40 0.5 L 147.07735241837713 0.5 L 147.07735241837713 -0.5 L 40 -0.5 Z M 155.74141491837713 0.5 L 262.81876733675426 0.5 L 262.81876733675426 3.5 L 269.81876733675426 0 L 262.81876733675426 -3.5 L 262.81876733675426 -0.5 L 155.74141491837713 -0.5 Z"/><text text-anchor="middle" pointer-events="none" font-size="8px" fill="#000000" x="151.40938366837713" y="3" font-family="Helvetica Neue, Helvetica, Arial, sans-serif">-</text></g><g class="relationship" transform="translate(200.98465994762387 128.25797524050222) rotate(189.5593337069098)"><path class="b-outline" fill="#A5ABB6" stroke="none" d="M 40 0.5 L 143.79072659811223 0.5 L 143.79072659811223 -0.5 L 40 -0.5 Z M 152.45478909811223 0.5 L 256.24551569622446 0.5 L 256.24551569622446 3.5 L 263.24551569622446 0 L 256.24551569622446 -3.5 L 256.24551569622446 -0.5 L 152.45478909811223 -0.5 Z"/><text text-anchor="middle" pointer-events="none" font-size="8px" fill="#000000" x="148.12275784811223" y="3" transform="rotate(180 148.12275784811223 0)" font-family="Helvetica Neue, Helvetica, Arial, sans-serif">-</text></g><g class="relationship" transform="translate(-349.01881291471983 259.56379638611793) rotate(328.1378086884686)"><path class="b-outline" fill="#A5ABB6" stroke="none" d="M 40 0.5 L 84.27613287760543 0.5 L 84.27613287760543 -0.5 L 40 -0.5 Z M 92.94019537760543 0.5 L 137.21632825521087 0.5 L 137.21632825521087 3.5 L 144.21632825521087 0 L 137.21632825521087 -3.5 L 137.21632825521087 -0.5 L 92.94019537760543 -0.5 Z"/><text text-anchor="middle" pointer-events="none" font-size="8px" fill="#000000" x="88.60816412760543" y="3" font-family="Helvetica Neue, Helvetica, Arial, sans-serif">-</text></g><g class="relationship" transform="translate(200.98465994762387 128.25797524050222) rotate(535.0532658790314)"><path class="b-outline" fill="#A5ABB6" stroke="none" d="M 40 0.5 L 189.67603935740485 0.5 L 189.67603935740485 -0.5 L 40 -0.5 Z M 198.34010185740485 0.5 L 348.0161412148097 0.5 L 348.0161412148097 3.5 L 355.0161412148097 0 L 348.0161412148097 -3.5 L 348.0161412148097 -0.5 L 198.34010185740485 -0.5 Z"/><text text-anchor="middle" pointer-events="none" font-size="8px" fill="#000000" x="194.00807060740485" y="3" transform="rotate(180 194.00807060740485 0)" font-family="Helvetica Neue, Helvetica, Arial, sans-serif">-</text></g><g class="relationship" transform="translate(-349.01881291471983 259.56379638611793) rotate(347.2218665290842)"><path class="b-outline" fill="#A5ABB6" stroke="none" d="M 40 0.5 L 134.5120686885997 0.5 L 134.5120686885997 -0.5 L 40 -0.5 Z M 143.1761311885997 0.5 L 237.6881998771994 0.5 L 237.6881998771994 3.5 L 244.6881998771994 0 L 237.6881998771994 -3.5 L 237.6881998771994 -0.5 L 143.1761311885997 -0.5 Z"/><text text-anchor="middle" pointer-events="none" font-size="8px" fill="#000000" x="138.8440999385997" y="3" font-family="Helvetica Neue, Helvetica, Arial, sans-serif">-</text></g><g class="relationship" transform="translate(200.98465994762387 128.25797524050222) rotate(525.9146549040174)"><path class="b-outline" fill="#A5ABB6" stroke="none" d="M 40 0.5 L 132.57227719507347 0.5 L 132.57227719507347 -0.5 L 40 -0.5 Z M 141.23633969507347 0.5 L 233.80861689014694 0.5 L 233.80861689014694 3.5 L 240.80861689014694 0 L 233.80861689014694 -3.5 L 233.80861689014694 -0.5 L 141.23633969507347 -0.5 Z"/><text text-anchor="middle" pointer-events="none" font-size="8px" fill="#000000" x="136.90430844507347" y="3" transform="rotate(180 136.90430844507347 0)" font-family="Helvetica Neue, Helvetica, Arial, sans-serif">-</text></g><g class="relationship" transform="translate(-349.01881291471983 259.56379638611793) rotate(305.7601416309959)"><path class="b-outline" fill="#A5ABB6" stroke="none" d="M 40 0.5 L 176.54274589911594 0.5 L 176.54274589911594 -0.5 L 40 -0.5 Z M 185.20680839911594 0.5 L 321.7495542982319 0.5 L 321.7495542982319 3.5 L 328.7495542982319 0 L 321.7495542982319 -3.5 L 321.7495542982319 -0.5 L 185.20680839911594 -0.5 Z"/><text text-anchor="middle" pointer-events="none" font-size="8px" fill="#000000" x="180.87477714911594" y="3" font-family="Helvetica Neue, Helvetica, Arial, sans-serif">-</text></g><g class="relationship" transform="translate(200.98465994762387 128.25797524050222) rotate(206.65668066269689)"><path class="b-outline" fill="#A5ABB6" stroke="none" d="M 40 0.5 L 179.31390169813778 0.5 L 179.31390169813778 -0.5 L 40 -0.5 Z M 187.97796419813778 0.5 L 327.29186589627557 0.5 L 327.29186589627557 3.5 L 334.29186589627557 0 L 327.29186589627557 -3.5 L 327.29186589627557 -0.5 L 187.97796419813778 -0.5 Z"/><text text-anchor="middle" pointer-events="none" font-size="8px" fill="#000000" x="183.64593294813778" y="3" transform="rotate(180 183.64593294813778 0)" font-family="Helvetica Neue, Helvetica, Arial, sans-serif">-</text></g><g class="relationship" transform="translate(-349.01881291471983 259.56379638611793) rotate(300.45369399854536)"><path class="b-outline" fill="#A5ABB6" stroke="none" d="M 40 0.5 L 116.96232902766754 0.5 L 116.96232902766754 -0.5 L 40 -0.5 Z M 125.62639152766754 0.5 L 202.58872055533507 0.5 L 202.58872055533507 3.5 L 209.58872055533507 0 L 202.58872055533507 -3.5 L 202.58872055533507 -0.5 L 125.62639152766754 -0.5 Z"/><text text-anchor="middle" pointer-events="none" font-size="8px" fill="#000000" x="121.29436027766754" y="3" font-family="Helvetica Neue, Helvetica, Arial, sans-serif">-</text></g><g class="relationship" transform="translate(200.98465994762387 128.25797524050222) rotate(191.19920040266447)"><path class="b-outline" fill="#A5ABB6" stroke="none" d="M 40 0.5 L 208.02916033457427 0.5 L 208.02916033457427 -0.5 L 40 -0.5 Z M 216.69322283457427 0.5 L 384.72238316914854 0.5 L 384.72238316914854 3.5 L 391.72238316914854 0 L 384.72238316914854 -3.5 L 384.72238316914854 -0.5 L 216.69322283457427 -0.5 Z"/><text text-anchor="middle" pointer-events="none" font-size="8px" fill="#000000" x="212.36119158457427" y="3" transform="rotate(180 212.36119158457427 0)" font-family="Helvetica Neue, Helvetica, Arial, sans-serif">-</text></g><g class="relationship" transform="translate(-349.01881291471983 259.56379638611793) rotate(286.36948909990605)"><path class="b-outline" fill="#A5ABB6" stroke="none" d="M 40 0.5 L 58.03389829007017 0.5 L 58.03389829007017 -0.5 L 40 -0.5 Z M 66.69796079007017 0.5 L 84.73185908014034 0.5 L 84.73185908014034 3.5 L 91.73185908014034 0 L 84.73185908014034 -3.5 L 84.73185908014034 -0.5 L 66.69796079007017 -0.5 Z"/><text text-anchor="middle" pointer-events="none" font-size="8px" fill="#000000" x="62.36592954007017" y="3" font-family="Helvetica Neue, Helvetica, Arial, sans-serif">-</text></g><g class="relationship" transform="translate(200.98465994762387 128.25797524050222) rotate(539.4510724943452)"><path class="b-outline" fill="#A5ABB6" stroke="none" d="M 40 0.5 L 248.6184423211223 0.5 L 248.6184423211223 -0.5 L 40 -0.5 Z M 257.2825048211223 0.5 L 465.9009471422446 0.5 L 465.9009471422446 3.5 L 472.9009471422446 0 L 465.9009471422446 -3.5 L 465.9009471422446 -0.5 L 257.2825048211223 -0.5 Z"/><text text-anchor="middle" pointer-events="none" font-size="8px" fill="#000000" x="252.9504735711223" y="3" transform="rotate(180 252.9504735711223 0)" font-family="Helvetica Neue, Helvetica, Arial, sans-serif">-</text></g><g class="relationship" transform="translate(-349.01881291471983 259.56379638611793) rotate(408.4585227222914)"><path class="b-outline" fill="#A5ABB6" stroke="none" d="M 40 0.5 L 64.3970895061535 0.5 L 64.3970895061535 -0.5 L 40 -0.5 Z M 73.0611520061535 0.5 L 97.45824151230701 0.5 L 97.45824151230701 3.5 L 104.45824151230701 0 L 97.45824151230701 -3.5 L 97.45824151230701 -0.5 L 73.0611520061535 -0.5 Z"/><text text-anchor="middle" pointer-events="none" font-size="8px" fill="#000000" x="68.7291207561535" y="3" font-family="Helvetica Neue, Helvetica, Arial, sans-serif">-</text></g><g class="relationship" transform="translate(200.98465994762387 128.25797524050222) rotate(512.20448229572)"><path class="b-outline" fill="#A5ABB6" stroke="none" d="M 40 0.5 L 248.8915074433932 0.5 L 248.8915074433932 -0.5 L 40 -0.5 Z M 257.5555699433932 0.5 L 466.4470773867864 0.5 L 466.4470773867864 3.5 L 473.4470773867864 0 L 466.4470773867864 -3.5 L 466.4470773867864 -0.5 L 257.5555699433932 -0.5 Z"/><text text-anchor="middle" pointer-events="none" font-size="8px" fill="#000000" x="253.2235386933932" y="3" transform="rotate(180 253.2235386933932 0)" font-family="Helvetica Neue, Helvetica, Arial, sans-serif">-</text></g><g class="relationship" transform="translate(-349.01881291471983 259.56379638611793) rotate(367.4178520274182)"><path class="b-outline" fill="#A5ABB6" stroke="none" d="M 40 0.5 L 87.49544551801445 0.5 L 87.49544551801445 -0.5 L 40 -0.5 Z M 96.15950801801445 0.5 L 143.6549535360289 0.5 L 143.6549535360289 3.5 L 150.6549535360289 0 L 143.6549535360289 -3.5 L 143.6549535360289 -0.5 L 96.15950801801445 -0.5 Z"/><text text-anchor="middle" pointer-events="none" font-size="8px" fill="#000000" x="91.82747676801445" y="3" font-family="Helvetica Neue, Helvetica, Arial, sans-serif">-</text></g><g class="relationship" transform="translate(200.98465994762387 128.25797524050222) rotate(516.6366735150111)"><path class="b-outline" fill="#A5ABB6" stroke="none" d="M 40 0.5 L 188.75877260813897 0.5 L 188.75877260813897 -0.5 L 40 -0.5 Z M 197.42283510813897 0.5 L 346.18160771627794 0.5 L 346.18160771627794 3.5 L 353.18160771627794 0 L 346.18160771627794 -3.5 L 346.18160771627794 -0.5 L 197.42283510813897 -0.5 Z"/><text text-anchor="middle" pointer-events="none" font-size="8px" fill="#000000" x="193.09080385813897" y="3" transform="rotate(180 193.09080385813897 0)" font-family="Helvetica Neue, Helvetica, Arial, sans-serif">-</text></g><g class="relationship" transform="translate(-349.01881291471983 259.56379638611793) rotate(372.25412093885006)"><path class="b-outline" fill="#A5ABB6" stroke="none" d="M 40 0.5 L 149.53452058014852 0.5 L 149.53452058014852 -0.5 L 40 -0.5 Z M 158.19858308014852 0.5 L 267.73310366029705 0.5 L 267.73310366029705 3.5 L 274.73310366029705 0 L 267.73310366029705 -3.5 L 267.73310366029705 -0.5 L 158.19858308014852 -0.5 Z"/><text text-anchor="middle" pointer-events="none" font-size="8px" fill="#000000" x="153.86655183014852" y="3" font-family="Helvetica Neue, Helvetica, Arial, sans-serif">-</text></g><g class="relationship" transform="translate(200.98465994762387 128.25797524050222) rotate(500.74653773033117)"><path class="b-outline" fill="#A5ABB6" stroke="none" d="M 40 0.5 L 148.71211350600964 0.5 L 148.71211350600964 -0.5 L 40 -0.5 Z M 157.37617600600964 0.5 L 266.0882895120193 0.5 L 266.0882895120193 3.5 L 273.0882895120193 0 L 266.0882895120193 -3.5 L 266.0882895120193 -0.5 L 157.37617600600964 -0.5 Z"/><text text-anchor="middle" pointer-events="none" font-size="8px" fill="#000000" x="153.04414475600964" y="3" transform="rotate(180 153.04414475600964 0)" font-family="Helvetica Neue, Helvetica, Arial, sans-serif">-</text></g></g><g class="layer nodes"><g class="node" aria-label="graph-node346069" transform="translate(-133.87557162983913,406.80449185418775)"><circle class="b-outline" cx="0" cy="0" r="40" fill="#8DCC93" stroke="#5db665" stroke-width="2px"/><text class="caption" text-anchor="middle" pointer-events="none" x="0" y="5" font-size="10px" fill="#2A2C34" font-family="Helvetica Neue, Helvetica, Arial, sans-serif"> methods</text></g><g class="node" aria-label="graph-node349773" transform="translate(-349.01881291471983,259.56379638611793)"><circle class="b-outline" cx="0" cy="0" r="40" fill="#F16667" stroke="#eb2728" stroke-width="2px"/><text class="caption" text-anchor="middle" pointer-events="none" x="0" y="5" font-size="10px" fill="#FFFFFF" font-family="Helvetica Neue, Helvetica, Arial, sans-serif"> 31</text></g><g class="node" aria-label="graph-node349777" transform="translate(200.98465994762387,128.25797524050222)"><circle class="b-outline" cx="0" cy="0" r="40" fill="#F16667" stroke="#eb2728" stroke-width="2px"/><text class="caption" text-anchor="middle" pointer-events="none" x="0" y="5" font-size="10px" fill="#FFFFFF" font-family="Helvetica Neue, Helvetica, Arial, sans-serif"> 41</text></g><g class="node" aria-label="graph-node333804" transform="translate(-14.113490957453342,443.8319754903957)"><circle class="b-outline" cx="0" cy="0" r="40" fill="#8DCC93" stroke="#5db665" stroke-width="2px"/><text class="caption" text-anchor="middle" pointer-events="none" x="0" y="5" font-size="10px" fill="#2A2C34" font-family="Helvetica Neue, Helvetica, Arial, sans-serif"> Rest</text></g><g class="node" aria-label="graph-node333728" transform="translate(164.59077450109254,262.9127704781082)"><circle class="b-outline" cx="0" cy="0" r="40" fill="#8DCC93" stroke="#5db665" stroke-width="2px"/><text class="caption" text-anchor="middle" pointer-events="none" x="0" y="5" font-size="10px" fill="#2A2C34" font-family="Helvetica Neue, Helvetica, Arial, sans-serif"> Water</text></g><g class="node" aria-label="graph-node346970" transform="translate(108.98185935929723,35.98394714574118)"><circle class="b-outline" cx="0" cy="0" r="40" fill="#8DCC93" stroke="#5db665" stroke-width="2px"/><text class="caption" text-anchor="middle" pointer-events="none" x="0" y="5" font-size="10px" fill="#2A2C34" font-family="Helvetica Neue, Helvetica, Arial, sans-serif"> surgery</text></g><g class="node" aria-label="graph-node333918" transform="translate(78.35159093702572,358.42154265691477)"><circle class="b-outline" cx="0" cy="0" r="40" fill="#8DCC93" stroke="#5db665" stroke-width="2px"/><text class="caption" text-anchor="middle" pointer-events="none" x="0" y="5" font-size="10px" fill="#2A2C34" font-family="Helvetica Neue, Helvetica, Arial, sans-serif"> Headache</text></g><g class="node" aria-label="graph-node328364" transform="translate(47.474905918257626,239.2266147054645)"><circle class="b-outline" cx="0" cy="0" r="40" fill="#8DCC93" stroke="#5db665" stroke-width="2px"/><text class="caption" text-anchor="middle" pointer-events="none" x="0" y="5" font-size="10px" fill="#2A2C34" font-family="Helvetica Neue, Helvetica, Arial, sans-serif"> Lead</text></g><g class="node" aria-label="graph-node333994" transform="translate(-8.425337116818413,-3.3253688215539694)"><circle class="b-outline" cx="0" cy="0" r="40" fill="#8DCC93" stroke="#5db665" stroke-width="2px"/><text class="caption" text-anchor="middle" pointer-events="none" x="0" y="5" font-size="10px" fill="#2A2C34" font-family="Helvetica Neue, Helvetica, Arial, sans-serif"> Hand</text></g><g class="node" aria-label="graph-node316169" transform="translate(-44.0881518148171,-120.37604904005573)"><circle class="b-outline" cx="0" cy="0" r="40" fill="#8DCC93" stroke="#5db665" stroke-width="2px"/><text class="caption" text-anchor="middle" pointer-events="none" x="0" y="5" font-size="10px" fill="#2A2C34" font-family="Helvetica Neue, Helvetica, Arial, sans-serif"> Accounting</text></g><g class="node" aria-label="graph-node316782" transform="translate(19.82691476101664,117.7142119471939)"><circle class="b-outline" cx="0" cy="0" r="40" fill="#8DCC93" stroke="#5db665" stroke-width="2px"/><text class="caption" text-anchor="middle" pointer-events="none" x="0" y="5" font-size="10px" fill="#2A2C34" font-family="Helvetica Neue, Helvetica, Arial, sans-serif"> Attention</text></g><g class="node" aria-label="graph-node324062" transform="translate(-98.05003540293974,77.89833101554042)"><circle class="b-outline" cx="0" cy="0" r="40" fill="#8DCC93" stroke="#5db665" stroke-width="2px"/><text class="caption" text-anchor="middle" pointer-events="none" x="0" y="5" font-size="10px" fill="#2A2C34" font-family="Helvetica Neue, Helvetica, Arial, sans-serif"> Research</text></g><g class="node" aria-label="graph-node333440" transform="translate(-192.5601619704972,162.32005036332475)"><circle class="b-outline" cx="0" cy="0" r="40" fill="#8DCC93" stroke="#5db665" stroke-width="2px"/><text class="caption" text-anchor="middle" pointer-events="none" x="0" y="5" font-size="10px" fill="#2A2C34" font-family="Helvetica Neue, Helvetica, Arial, sans-serif"> Role</text></g><g class="node" aria-label="graph-node321270" transform="translate(-71.38124776851254,196.5975072386246)"><circle class="b-outline" cx="0" cy="0" r="40" fill="#8DCC93" stroke="#5db665" stroke-width="2px"/><text class="caption" text-anchor="middle" pointer-events="none" x="0" y="5" font-size="10px" fill="#2A2C34" font-family="Helvetica Neue, Helvetica, Arial, sans-serif"> Pain</text></g><g class="node" aria-label="graph-node320396" transform="translate(-133.52404067979754,-39.665608810904104)"><circle class="b-outline" cx="0" cy="0" r="40" fill="#8DCC93" stroke="#5db665" stroke-width="2px"/><text class="caption" text-anchor="middle" pointer-events="none" x="0" y="5" font-size="10px" fill="#2A2C34" font-family="Helvetica Neue, Helvetica, Arial, sans-serif"> Patients</text></g><g class="node" aria-label="graph-node349320" transform="translate(-222.51680771233265,44.40856845004303)"><circle class="b-outline" cx="0" cy="0" r="40" fill="#8DCC93" stroke="#5db665" stroke-width="2px"/><text class="caption" text-anchor="middle" pointer-events="none" x="0" y="5" font-size="10px" fill="#2A2C34" font-family="Helvetica Neue, Helvetica, Arial, sans-serif"> Pain Perception</text></g><g class="node" aria-label="graph-node326584" transform="translate(-311.8927483628772,133.1717949477264)"><circle class="b-outline" cx="0" cy="0" r="40" fill="#8DCC93" stroke="#5db665" stroke-width="2px"/><text class="caption" text-anchor="middle" pointer-events="none" x="0" y="5" font-size="10px" fill="#2A2C34" font-family="Helvetica Neue, Helvetica, Arial, sans-serif"> Perception</text></g><g class="node" aria-label="graph-node316612" transform="translate(-253.2195886304381,367.68730061788943)"><circle class="b-outline" cx="0" cy="0" r="40" fill="#8DCC93" stroke="#5db665" stroke-width="2px"/><text class="caption" text-anchor="middle" pointer-events="none" x="0" y="5" font-size="10px" fill="#2A2C34" font-family="Helvetica Neue, Helvetica, Arial, sans-serif"> Association</text></g><g class="node" aria-label="graph-node347132" transform="translate(-159.95945363109198,284.1782225441548)"><circle class="b-outline" cx="0" cy="0" r="40" fill="#8DCC93" stroke="#5db665" stroke-width="2px"/><text class="caption" text-anchor="middle" pointer-events="none" x="0" y="5" font-size="10px" fill="#2A2C34" font-family="Helvetica Neue, Helvetica, Arial, sans-serif"> secondary</text></g><g class="node" aria-label="graph-node334500" transform="translate(-41.456637613657584,326.3652549309876)"><circle class="b-outline" cx="0" cy="0" r="40" fill="#8DCC93" stroke="#5db665" stroke-width="2px"/><text class="caption" text-anchor="middle" pointer-events="none" x="0" y="5" font-size="10px" fill="#2A2C34" font-family="Helvetica Neue, Helvetica, Arial, sans-serif"> Methods</text></g></g></svg>