<svg xmlns="http://www.w3.org/2000/svg" width="977.1150512695312" height="979.5464477539062" viewBox="-603.5521850585938 -782.5285034179688 977.1150512695312 979.5464477539062"><title>Neo4j Graph Visualization</title><desc>Created using Neo4j (http://www.neo4j.com/)</desc><g class="layer relationships"><g class="relationship" transform="translate(-450.8634086936198 -469.6088827492793) rotate(405.8688303158591)"><path class="b-outline" fill="#A5ABB6" stroke="none" d="M 40 0.5 L 317.7173450917899 0.5 L 317.7173450917899 -0.5 L 40 -0.5 Z M 326.3814075917899 0.5 L 604.0987526835798 0.5 L 604.0987526835798 3.5 L 611.0987526835798 0 L 604.0987526835798 -3.5 L 604.0987526835798 -0.5 L 326.3814075917899 -0.5 Z"/><text text-anchor="middle" pointer-events="none" font-size="8px" fill="#000000" x="322.0493763417899" y="3" font-family="Helvetica Neue, Helvetica, Arial, sans-serif">-</text></g><g class="relationship" transform="translate(207.51515041773547 -140.119435718747) rotate(506.0865475032822)"><path class="b-outline" fill="#A5ABB6" stroke="none" d="M 40 0.5 L 115.68943202214244 0.5 L 115.68943202214244 -0.5 L 40 -0.5 Z M 124.35349452214244 0.5 L 200.04292654428488 0.5 L 200.04292654428488 3.5 L 207.04292654428488 0 L 200.04292654428488 -3.5 L 200.04292654428488 -0.5 L 124.35349452214244 -0.5 Z"/><text text-anchor="middle" pointer-events="none" font-size="8px" fill="#000000" x="120.02146327214244" y="3" transform="rotate(180 120.02146327214244 0)" font-family="Helvetica Neue, Helvetica, Arial, sans-serif">-</text></g><g class="relationship" transform="translate(-450.8634086936198 -469.6088827492793) rotate(434.8312898890089)"><path class="b-outline" fill="#A5ABB6" stroke="none" d="M 40 0.5 L 314.71920671863796 0.5 L 314.71920671863796 -0.5 L 40 -0.5 Z M 323.38326921863796 0.5 L 598.1024759372759 0.5 L 598.1024759372759 3.5 L 605.1024759372759 0 L 598.1024759372759 -3.5 L 598.1024759372759 -0.5 L 323.38326921863796 -0.5 Z"/><text text-anchor="middle" pointer-events="none" font-size="8px" fill="#000000" x="319.05123796863796" y="3" font-family="Helvetica Neue, Helvetica, Arial, sans-serif">-</text></g><g class="relationship" transform="translate(207.51515041773547 -140.119435718747) rotate(509.08880211878983)"><path class="b-outline" fill="#A5ABB6" stroke="none" d="M 40 0.5 L 277.4826037203915 0.5 L 277.4826037203915 -0.5 L 40 -0.5 Z M 286.1466662203915 0.5 L 523.629269940783 0.5 L 523.629269940783 3.5 L 530.629269940783 0 L 523.629269940783 -3.5 L 523.629269940783 -0.5 L 286.1466662203915 -0.5 Z"/><text text-anchor="middle" pointer-events="none" font-size="8px" fill="#000000" x="281.8146349703915" y="3" transform="rotate(180 281.8146349703915 0)" font-family="Helvetica Neue, Helvetica, Arial, sans-serif">-</text></g><g class="relationship" transform="translate(-450.8634086936198 -469.6088827492793) rotate(451.0264182285391)"><path class="b-outline" fill="#A5ABB6" stroke="none" d="M 40 0.5 L 149.5683118076991 0.5 L 149.5683118076991 -0.5 L 40 -0.5 Z M 158.2323743076991 0.5 L 267.8006861153982 0.5 L 267.8006861153982 3.5 L 274.8006861153982 0 L 267.8006861153982 -3.5 L 267.8006861153982 -0.5 L 158.2323743076991 -0.5 Z"/><text text-anchor="middle" pointer-events="none" font-size="8px" fill="#000000" x="153.9003430576991" y="3" transform="rotate(180 153.9003430576991 0)" font-family="Helvetica Neue, Helvetica, Arial, sans-serif">-</text></g><g class="relationship" transform="translate(207.51515041773547 -140.119435718747) rotate(181.27159181687193)"><path class="b-outline" fill="#A5ABB6" stroke="none" d="M 40 0.5 L 324.2586089055313 0.5 L 324.2586089055313 -0.5 L 40 -0.5 Z M 332.9226714055313 0.5 L 617.1812803110626 0.5 L 617.1812803110626 3.5 L 624.1812803110626 0 L 617.1812803110626 -3.5 L 617.1812803110626 -0.5 L 332.9226714055313 -0.5 Z"/><text text-anchor="middle" pointer-events="none" font-size="8px" fill="#000000" x="328.5906401555313" y="3" transform="rotate(180 328.5906401555313 0)" font-family="Helvetica Neue, Helvetica, Arial, sans-serif">-</text></g><g class="relationship" transform="translate(-450.8634086936198 -469.6088827492793) rotate(412.56294305014086)"><path class="b-outline" fill="#A5ABB6" stroke="none" d="M 40 0.5 L 206.8986219261463 0.5 L 206.8986219261463 -0.5 L 40 -0.5 Z M 215.5626844261463 0.5 L 382.4613063522926 0.5 L 382.4613063522926 3.5 L 389.4613063522926 0 L 382.4613063522926 -3.5 L 382.4613063522926 -0.5 L 215.5626844261463 -0.5 Z"/><text text-anchor="middle" pointer-events="none" font-size="8px" fill="#000000" x="211.2306531761463" y="3" font-family="Helvetica Neue, Helvetica, Arial, sans-serif">-</text></g><g class="relationship" transform="translate(207.51515041773547 -140.119435718747) rotate(538.340325280967)"><path class="b-outline" fill="#A5ABB6" stroke="none" d="M 40 0.5 L 190.90810924727427 0.5 L 190.90810924727427 -0.5 L 40 -0.5 Z M 199.57217174727427 0.5 L 350.48028099454854 0.5 L 350.48028099454854 3.5 L 357.48028099454854 0 L 350.48028099454854 -3.5 L 350.48028099454854 -0.5 L 199.57217174727427 -0.5 Z"/><text text-anchor="middle" pointer-events="none" font-size="8px" fill="#000000" x="195.24014049727427" y="3" transform="rotate(180 195.24014049727427 0)" font-family="Helvetica Neue, Helvetica, Arial, sans-serif">-</text></g><g class="relationship" transform="translate(-450.8634086936198 -469.6088827492793) rotate(430.75779455713854)"><path class="b-outline" fill="#A5ABB6" stroke="none" d="M 40 0.5 L 115.47446019702026 0.5 L 115.47446019702026 -0.5 L 40 -0.5 Z M 124.13852269702026 0.5 L 199.61298289404053 0.5 L 199.61298289404053 3.5 L 206.61298289404053 0 L 199.61298289404053 -3.5 L 199.61298289404053 -0.5 L 124.13852269702026 -0.5 Z"/><text text-anchor="middle" pointer-events="none" font-size="8px" fill="#000000" x="119.80649144702026" y="3" font-family="Helvetica Neue, Helvetica, Arial, sans-serif">-</text></g><g class="relationship" transform="translate(207.51515041773547 -140.119435718747) rotate(189.50769214615207)"><path class="b-outline" fill="#A5ABB6" stroke="none" d="M 40 0.5 L 284.7390100431077 0.5 L 284.7390100431077 -0.5 L 40 -0.5 Z M 293.4030725431077 0.5 L 538.1420825862155 0.5 L 538.1420825862155 3.5 L 545.1420825862155 0 L 538.1420825862155 -3.5 L 538.1420825862155 -0.5 L 293.4030725431077 -0.5 Z"/><text text-anchor="middle" pointer-events="none" font-size="8px" fill="#000000" x="289.0710412931077" y="3" transform="rotate(180 289.0710412931077 0)" font-family="Helvetica Neue, Helvetica, Arial, sans-serif">-</text></g><g class="relationship" transform="translate(-450.8634086936198 -469.6088827492793) rotate(315.047992211521)"><path class="b-outline" fill="#A5ABB6" stroke="none" d="M 40 0.5 L 60.81055846204964 0.5 L 60.81055846204964 -0.5 L 40 -0.5 Z M 69.47462096204964 0.5 L 90.28517942409928 0.5 L 90.28517942409928 3.5 L 97.28517942409928 0 L 90.28517942409928 -3.5 L 90.28517942409928 -0.5 L 69.47462096204964 -0.5 Z"/><text text-anchor="middle" pointer-events="none" font-size="8px" fill="#000000" x="65.14258971204964" y="3" font-family="Helvetica Neue, Helvetica, Arial, sans-serif">-</text></g><g class="relationship" transform="translate(207.51515041773547 -140.119435718747) rotate(217.23189993414172)"><path class="b-outline" fill="#A5ABB6" stroke="none" d="M 40 0.5 L 344.6088175846422 0.5 L 344.6088175846422 -0.5 L 40 -0.5 Z M 353.2728800846422 0.5 L 657.8816976692844 0.5 L 657.8816976692844 3.5 L 664.8816976692844 0 L 657.8816976692844 -3.5 L 657.8816976692844 -0.5 L 353.2728800846422 -0.5 Z"/><text text-anchor="middle" pointer-events="none" font-size="8px" fill="#000000" x="348.9408488346422" y="3" transform="rotate(180 348.9408488346422 0)" font-family="Helvetica Neue, Helvetica, Arial, sans-serif">-</text></g><g class="relationship" transform="translate(-450.8634086936198 -469.6088827492793) rotate(488.03959173155215)"><path class="b-outline" fill="#A5ABB6" stroke="none" d="M 40 0.5 L 53.33135397677321 0.5 L 53.33135397677321 -0.5 L 40 -0.5 Z M 61.99541647677321 0.5 L 75.32677045354642 0.5 L 75.32677045354642 3.5 L 82.32677045354642 0 L 75.32677045354642 -3.5 L 75.32677045354642 -0.5 L 61.99541647677321 -0.5 Z"/><text text-anchor="middle" pointer-events="none" font-size="8px" fill="#000000" x="57.66338522677321" y="3" transform="rotate(180 57.66338522677321 0)" font-family="Helvetica Neue, Helvetica, Arial, sans-serif">-</text></g><g class="relationship" transform="translate(207.51515041773547 -140.119435718747) rotate(197.62732862197402)"><path class="b-outline" fill="#A5ABB6" stroke="none" d="M 40 0.5 L 377.1214606564199 0.5 L 377.1214606564199 -0.5 L 40 -0.5 Z M 385.7855231564199 0.5 L 722.9069838128398 0.5 L 722.9069838128398 3.5 L 729.9069838128398 0 L 722.9069838128398 -3.5 L 722.9069838128398 -0.5 L 385.7855231564199 -0.5 Z"/><text text-anchor="middle" pointer-events="none" font-size="8px" fill="#000000" x="381.4534919064199" y="3" transform="rotate(180 381.4534919064199 0)" font-family="Helvetica Neue, Helvetica, Arial, sans-serif">-</text></g><g class="relationship" transform="translate(-450.8634086936198 -469.6088827492793) rotate(407.8248882789642)"><path class="b-outline" fill="#A5ABB6" stroke="none" d="M 40 0.5 L 126.24681176160456 0.5 L 126.24681176160456 -0.5 L 40 -0.5 Z M 134.91087426160456 0.5 L 221.15768602320912 0.5 L 221.15768602320912 3.5 L 228.15768602320912 0 L 221.15768602320912 -3.5 L 221.15768602320912 -0.5 L 134.91087426160456 -0.5 Z"/><text text-anchor="middle" pointer-events="none" font-size="8px" fill="#000000" x="130.57884301160456" y="3" font-family="Helvetica Neue, Helvetica, Arial, sans-serif">-</text></g><g class="relationship" transform="translate(207.51515041773547 -140.119435718747) rotate(195.28889472389244)"><path class="b-outline" fill="#A5ABB6" stroke="none" d="M 40 0.5 L 240.11198227676908 0.5 L 240.11198227676908 -0.5 L 40 -0.5 Z M 248.77604477676908 0.5 L 448.88802705353817 0.5 L 448.88802705353817 3.5 L 455.88802705353817 0 L 448.88802705353817 -3.5 L 448.88802705353817 -0.5 L 248.77604477676908 -0.5 Z"/><text text-anchor="middle" pointer-events="none" font-size="8px" fill="#000000" x="244.44401352676908" y="3" transform="rotate(180 244.44401352676908 0)" font-family="Helvetica Neue, Helvetica, Arial, sans-serif">-</text></g><g class="relationship" transform="translate(-450.8634086936198 -469.6088827492793) rotate(385.9181657514271)"><path class="b-outline" fill="#A5ABB6" stroke="none" d="M 40 0.5 L 208.27055227677548 0.5 L 208.27055227677548 -0.5 L 40 -0.5 Z M 216.93461477677548 0.5 L 385.20516705355095 0.5 L 385.20516705355095 3.5 L 392.20516705355095 0 L 385.20516705355095 -3.5 L 385.20516705355095 -0.5 L 216.93461477677548 -0.5 Z"/><text text-anchor="middle" pointer-events="none" font-size="8px" fill="#000000" x="212.60258352677548" y="3" font-family="Helvetica Neue, Helvetica, Arial, sans-serif">-</text></g><g class="relationship" transform="translate(207.51515041773547 -140.119435718747) rotate(207.53508707979165)"><path class="b-outline" fill="#A5ABB6" stroke="none" d="M 40 0.5 L 144.21287141695638 0.5 L 144.21287141695638 -0.5 L 40 -0.5 Z M 152.87693391695638 0.5 L 257.08980533391275 0.5 L 257.08980533391275 3.5 L 264.08980533391275 0 L 257.08980533391275 -3.5 L 257.08980533391275 -0.5 L 152.87693391695638 -0.5 Z"/><text text-anchor="middle" pointer-events="none" font-size="8px" fill="#000000" x="148.54490266695638" y="3" transform="rotate(180 148.54490266695638 0)" font-family="Helvetica Neue, Helvetica, Arial, sans-serif">-</text></g><g class="relationship" transform="translate(-450.8634086936198 -469.6088827492793) rotate(387.38936666482516)"><path class="b-outline" fill="#A5ABB6" stroke="none" d="M 40 0.5 L 150.43685758378965 0.5 L 150.43685758378965 -0.5 L 40 -0.5 Z M 159.10092008378965 0.5 L 269.5377776675793 0.5 L 269.5377776675793 3.5 L 276.5377776675793 0 L 269.5377776675793 -3.5 L 269.5377776675793 -0.5 L 159.10092008378965 -0.5 Z"/><text text-anchor="middle" pointer-events="none" font-size="8px" fill="#000000" x="154.76888883378965" y="3" font-family="Helvetica Neue, Helvetica, Arial, sans-serif">-</text></g><g class="relationship" transform="translate(207.51515041773547 -140.119435718747) rotate(205.9800719231115)"><path class="b-outline" fill="#A5ABB6" stroke="none" d="M 40 0.5 L 202.03832052419864 0.5 L 202.03832052419864 -0.5 L 40 -0.5 Z M 210.70238302419864 0.5 L 372.7407035483973 0.5 L 372.7407035483973 3.5 L 379.7407035483973 0 L 372.7407035483973 -3.5 L 372.7407035483973 -0.5 L 210.70238302419864 -0.5 Z"/><text text-anchor="middle" pointer-events="none" font-size="8px" fill="#000000" x="206.37035177419864" y="3" transform="rotate(180 206.37035177419864 0)" font-family="Helvetica Neue, Helvetica, Arial, sans-serif">-</text></g><g class="relationship" transform="translate(-450.8634086936198 -469.6088827492793) rotate(347.46723795329865)"><path class="b-outline" fill="#A5ABB6" stroke="none" d="M 40 0.5 L 97.78704312347162 0.5 L 97.78704312347162 -0.5 L 40 -0.5 Z M 106.45110562347162 0.5 L 164.23814874694324 0.5 L 164.23814874694324 3.5 L 171.23814874694324 0 L 164.23814874694324 -3.5 L 164.23814874694324 -0.5 L 106.45110562347162 -0.5 Z"/><text text-anchor="middle" pointer-events="none" font-size="8px" fill="#000000" x="102.11907437347162" y="3" font-family="Helvetica Neue, Helvetica, Arial, sans-serif">-</text></g><g class="relationship" transform="translate(207.51515041773547 -140.119435718747) rotate(219.6944312612053)"><path class="b-outline" fill="#A5ABB6" stroke="none" d="M 40 0.5 L 285.9927380249232 0.5 L 285.9927380249232 -0.5 L 40 -0.5 Z M 294.6568005249232 0.5 L 540.6495385498464 0.5 L 540.6495385498464 3.5 L 547.6495385498464 0 L 540.6495385498464 -3.5 L 540.6495385498464 -0.5 L 294.6568005249232 -0.5 Z"/><text text-anchor="middle" pointer-events="none" font-size="8px" fill="#000000" x="290.3247692749232" y="3" transform="rotate(180 290.3247692749232 0)" font-family="Helvetica Neue, Helvetica, Arial, sans-serif">-</text></g><g class="relationship" transform="translate(-450.8634086936198 -469.6088827492793) rotate(415.1113328725674)"><path class="b-outline" fill="#A5ABB6" stroke="none" d="M 40 0.5 L 293.8723066110142 0.5 L 293.8723066110142 -0.5 L 40 -0.5 Z M 302.5363691110142 0.5 L 556.4086757220284 0.5 L 556.4086757220284 3.5 L 563.4086757220284 0 L 556.4086757220284 -3.5 L 556.4086757220284 -0.5 L 302.5363691110142 -0.5 Z"/><text text-anchor="middle" pointer-events="none" font-size="8px" fill="#000000" x="298.2043378610142" y="3" font-family="Helvetica Neue, Helvetica, Arial, sans-serif">-</text></g><g class="relationship" transform="translate(207.51515041773547 -140.119435718747) rotate(512.1551377611838)"><path class="b-outline" fill="#A5ABB6" stroke="none" d="M 40 0.5 L 169.29597619756518 0.5 L 169.29597619756518 -0.5 L 40 -0.5 Z M 177.96003869756518 0.5 L 307.25601489513036 0.5 L 307.25601489513036 3.5 L 314.25601489513036 0 L 307.25601489513036 -3.5 L 307.25601489513036 -0.5 L 177.96003869756518 -0.5 Z"/><text text-anchor="middle" pointer-events="none" font-size="8px" fill="#000000" x="173.62800744756518" y="3" transform="rotate(180 173.62800744756518 0)" font-family="Helvetica Neue, Helvetica, Arial, sans-serif">-</text></g><g class="relationship" transform="translate(-450.8634086936198 -469.6088827492793) rotate(429.2043668231933)"><path class="b-outline" fill="#A5ABB6" stroke="none" d="M 40 0.5 L 51.58299988019028 0.5 L 51.58299988019028 -0.5 L 40 -0.5 Z M 60.24706238019028 0.5 L 71.83006226038056 0.5 L 71.83006226038056 3.5 L 78.83006226038056 0 L 71.83006226038056 -3.5 L 71.83006226038056 -0.5 L 60.24706238019028 -0.5 Z"/><text text-anchor="middle" pointer-events="none" font-size="8px" fill="#000000" x="55.91503113019028" y="3" font-family="Helvetica Neue, Helvetica, Arial, sans-serif">-</text></g><g class="relationship" transform="translate(207.51515041773547 -140.119435718747) rotate(199.51624545786643)"><path class="b-outline" fill="#A5ABB6" stroke="none" d="M 40 0.5 L 319.04279280414477 0.5 L 319.04279280414477 -0.5 L 40 -0.5 Z M 327.70685530414477 0.5 L 606.7496481082895 0.5 L 606.7496481082895 3.5 L 613.7496481082895 0 L 606.7496481082895 -3.5 L 606.7496481082895 -0.5 L 327.70685530414477 -0.5 Z"/><text text-anchor="middle" pointer-events="none" font-size="8px" fill="#000000" x="323.37482405414477" y="3" transform="rotate(180 323.37482405414477 0)" font-family="Helvetica Neue, Helvetica, Arial, sans-serif">-</text></g><g class="relationship" transform="translate(-450.8634086936198 -469.6088827492793) rotate(439.22590076222843)"><path class="b-outline" fill="#A5ABB6" stroke="none" d="M 40 0.5 L 258.4792132617879 0.5 L 258.4792132617879 -0.5 L 40 -0.5 Z M 267.1432757617879 0.5 L 485.6224890235758 0.5 L 485.6224890235758 3.5 L 492.6224890235758 0 L 485.6224890235758 -3.5 L 485.6224890235758 -0.5 L 267.1432757617879 -0.5 Z"/><text text-anchor="middle" pointer-events="none" font-size="8px" fill="#000000" x="262.8112445117879" y="3" font-family="Helvetica Neue, Helvetica, Arial, sans-serif">-</text></g><g class="relationship" transform="translate(207.51515041773547 -140.119435718747) rotate(520.8782096599274)"><path class="b-outline" fill="#A5ABB6" stroke="none" d="M 40 0.5 L 287.89042105240856 0.5 L 287.89042105240856 -0.5 L 40 -0.5 Z M 296.55448355240856 0.5 L 544.4449046048171 0.5 L 544.4449046048171 3.5 L 551.4449046048171 0 L 544.4449046048171 -3.5 L 544.4449046048171 -0.5 L 296.55448355240856 -0.5 Z"/><text text-anchor="middle" pointer-events="none" font-size="8px" fill="#000000" x="292.22245230240856" y="3" transform="rotate(180 292.22245230240856 0)" font-family="Helvetica Neue, Helvetica, Arial, sans-serif">-</text></g><g class="relationship" transform="translate(-450.8634086936198 -469.6088827492793) rotate(427.6105872361526)"><path class="b-outline" fill="#A5ABB6" stroke="none" d="M 40 0.5 L 279.7898811452707 0.5 L 279.7898811452707 -0.5 L 40 -0.5 Z M 288.4539436452707 0.5 L 528.2438247905415 0.5 L 528.2438247905415 3.5 L 535.2438247905415 0 L 528.2438247905415 -3.5 L 528.2438247905415 -0.5 L 288.4539436452707 -0.5 Z"/><text text-anchor="middle" pointer-events="none" font-size="8px" fill="#000000" x="284.1219123952707" y="3" font-family="Helvetica Neue, Helvetica, Arial, sans-serif">-</text></g><g class="relationship" transform="translate(207.51515041773547 -140.119435718747) rotate(515.2623813118367)"><path class="b-outline" fill="#A5ABB6" stroke="none" d="M 40 0.5 L 233.99366505696145 0.5 L 233.99366505696145 -0.5 L 40 -0.5 Z M 242.65772755696145 0.5 L 436.6513926139229 0.5 L 436.6513926139229 3.5 L 443.6513926139229 0 L 436.6513926139229 -3.5 L 436.6513926139229 -0.5 L 242.65772755696145 -0.5 Z"/><text text-anchor="middle" pointer-events="none" font-size="8px" fill="#000000" x="238.32569630696145" y="3" transform="rotate(180 238.32569630696145 0)" font-family="Helvetica Neue, Helvetica, Arial, sans-serif">-</text></g><g class="relationship" transform="translate(-450.8634086936198 -469.6088827492793) rotate(387.30497730134005)"><path class="b-outline" fill="#A5ABB6" stroke="none" d="M 40 0.5 L 302.6754945672847 0.5 L 302.6754945672847 -0.5 L 40 -0.5 Z M 311.3395570672847 0.5 L 574.0150516345694 0.5 L 574.0150516345694 3.5 L 581.0150516345694 0 L 574.0150516345694 -3.5 L 574.0150516345694 -0.5 L 311.3395570672847 -0.5 Z"/><text text-anchor="middle" pointer-events="none" font-size="8px" fill="#000000" x="307.0075258172847" y="3" font-family="Helvetica Neue, Helvetica, Arial, sans-serif">-</text></g><g class="relationship" transform="translate(207.51515041773547 -140.119435718747) rotate(202.71775000864193)"><path class="b-outline" fill="#A5ABB6" stroke="none" d="M 40 0.5 L 49.92842590578567 0.5 L 49.92842590578567 -0.5 L 40 -0.5 Z M 58.59248840578567 0.5 L 68.52091431157135 0.5 L 68.52091431157135 3.5 L 75.52091431157135 0 L 68.52091431157135 -3.5 L 68.52091431157135 -0.5 L 58.59248840578567 -0.5 Z"/><text text-anchor="middle" pointer-events="none" font-size="8px" fill="#000000" x="54.26045715578567" y="3" transform="rotate(180 54.26045715578567 0)" font-family="Helvetica Neue, Helvetica, Arial, sans-serif">-</text></g><g class="relationship" transform="translate(-450.8634086936198 -469.6088827492793) rotate(397.69025711297746)"><path class="b-outline" fill="#A5ABB6" stroke="none" d="M 40 0.5 L 287.662003445174 0.5 L 287.662003445174 -0.5 L 40 -0.5 Z M 296.326065945174 0.5 L 543.988069390348 0.5 L 543.988069390348 3.5 L 550.988069390348 0 L 543.988069390348 -3.5 L 543.988069390348 -0.5 L 296.326065945174 -0.5 Z"/><text text-anchor="middle" pointer-events="none" font-size="8px" fill="#000000" x="291.994034695174" y="3" font-family="Helvetica Neue, Helvetica, Arial, sans-serif">-</text></g><g class="relationship" transform="translate(207.51515041773547 -140.119435718747) rotate(530.5228744437936)"><path class="b-outline" fill="#A5ABB6" stroke="none" d="M 40 0.5 L 88.84418340303667 0.5 L 88.84418340303667 -0.5 L 40 -0.5 Z M 97.50824590303667 0.5 L 146.35242930607333 0.5 L 146.35242930607333 3.5 L 153.35242930607333 0 L 146.35242930607333 -3.5 L 146.35242930607333 -0.5 L 97.50824590303667 -0.5 Z"/><text text-anchor="middle" pointer-events="none" font-size="8px" fill="#000000" x="93.17621465303667" y="3" transform="rotate(180 93.17621465303667 0)" font-family="Helvetica Neue, Helvetica, Arial, sans-serif">-</text></g><g class="relationship" transform="translate(-450.8634086936198 -469.6088827492793) rotate(369.9597760575554)"><path class="b-outline" fill="#A5ABB6" stroke="none" d="M 40 0.5 L 237.5448549733649 0.5 L 237.5448549733649 -0.5 L 40 -0.5 Z M 246.2089174733649 0.5 L 443.7537724467298 0.5 L 443.7537724467298 3.5 L 450.7537724467298 0 L 443.7537724467298 -3.5 L 443.7537724467298 -0.5 L 246.2089174733649 -0.5 Z"/><text text-anchor="middle" pointer-events="none" font-size="8px" fill="#000000" x="241.8768862233649" y="3" font-family="Helvetica Neue, Helvetica, Arial, sans-serif">-</text></g><g class="relationship" transform="translate(207.51515041773547 -140.119435718747) rotate(234.41595639690524)"><path class="b-outline" fill="#A5ABB6" stroke="none" d="M 40 0.5 L 142.5561647007234 0.5 L 142.5561647007234 -0.5 L 40 -0.5 Z M 151.2202272007234 0.5 L 253.7763919014468 0.5 L 253.7763919014468 3.5 L 260.7763919014468 0 L 253.7763919014468 -3.5 L 253.7763919014468 -0.5 L 151.2202272007234 -0.5 Z"/><text text-anchor="middle" pointer-events="none" font-size="8px" fill="#000000" x="146.8881959507234" y="3" transform="rotate(180 146.8881959507234 0)" font-family="Helvetica Neue, Helvetica, Arial, sans-serif">-</text></g><g class="relationship" transform="translate(-450.8634086936198 -469.6088827492793) rotate(375.4075891754467)"><path class="b-outline" fill="#A5ABB6" stroke="none" d="M 40 0.5 L 370.54357637815826 0.5 L 370.54357637815826 -0.5 L 40 -0.5 Z M 379.20763887815826 0.5 L 709.7512152563165 0.5 L 709.7512152563165 3.5 L 716.7512152563165 0 L 709.7512152563165 -3.5 L 709.7512152563165 -0.5 L 379.20763887815826 -0.5 Z"/><text text-anchor="middle" pointer-events="none" font-size="8px" fill="#000000" x="374.87560762815826" y="3" font-family="Helvetica Neue, Helvetica, Arial, sans-serif">-</text></g><g class="relationship" transform="translate(207.51515041773547 -140.119435718747) rotate(298.9944261455316)"><path class="b-outline" fill="#A5ABB6" stroke="none" d="M 40 0.5 L 65.58614757036081 0.5 L 65.58614757036081 -0.5 L 40 -0.5 Z M 74.25021007036081 0.5 L 99.83635764072162 0.5 L 99.83635764072162 3.5 L 106.83635764072162 0 L 99.83635764072162 -3.5 L 99.83635764072162 -0.5 L 74.25021007036081 -0.5 Z"/><text text-anchor="middle" pointer-events="none" font-size="8px" fill="#000000" x="69.91817882036081" y="3" font-family="Helvetica Neue, Helvetica, Arial, sans-serif">-</text></g><g class="relationship" transform="translate(-450.8634086936198 -469.6088827492793) rotate(359.91425965982376)"><path class="b-outline" fill="#A5ABB6" stroke="none" d="M 40 0.5 L 282.8551655147128 0.5 L 282.8551655147128 -0.5 L 40 -0.5 Z M 291.5192280147128 0.5 L 534.3743935294256 0.5 L 534.3743935294256 3.5 L 541.3743935294256 0 L 534.3743935294256 -3.5 L 534.3743935294256 -0.5 L 291.5192280147128 -0.5 Z"/><text text-anchor="middle" pointer-events="none" font-size="8px" fill="#000000" x="287.1871967647128" y="3" font-family="Helvetica Neue, Helvetica, Arial, sans-serif">-</text></g><g class="relationship" transform="translate(207.51515041773547 -140.119435718747) rotate(256.87898115622124)"><path class="b-outline" fill="#A5ABB6" stroke="none" d="M 40 0.5 L 161.77568139958703 0.5 L 161.77568139958703 -0.5 L 40 -0.5 Z M 170.43974389958703 0.5 L 292.21542529917406 0.5 L 292.21542529917406 3.5 L 299.21542529917406 0 L 292.21542529917406 -3.5 L 292.21542529917406 -0.5 L 170.43974389958703 -0.5 Z"/><text text-anchor="middle" pointer-events="none" font-size="8px" fill="#000000" x="166.10771264958703" y="3" transform="rotate(180 166.10771264958703 0)" font-family="Helvetica Neue, Helvetica, Arial, sans-serif">-</text></g><g class="relationship" transform="translate(-450.8634086936198 -469.6088827492793) rotate(315.3851717579178)"><path class="b-outline" fill="#A5ABB6" stroke="none" d="M 40 0.5 L 175.06495916124365 0.5 L 175.06495916124365 -0.5 L 40 -0.5 Z M 183.72902166124365 0.5 L 318.7939808224873 0.5 L 318.7939808224873 3.5 L 325.7939808224873 0 L 318.7939808224873 -3.5 L 318.7939808224873 -0.5 L 183.72902166124365 -0.5 Z"/><text text-anchor="middle" pointer-events="none" font-size="8px" fill="#000000" x="179.39699041124365" y="3" font-family="Helvetica Neue, Helvetica, Arial, sans-serif">-</text></g><g class="relationship" transform="translate(207.51515041773547 -140.119435718747) rotate(235.83523641338223)"><path class="b-outline" fill="#A5ABB6" stroke="none" d="M 40 0.5 L 346.5199821849114 0.5 L 346.5199821849114 -0.5 L 40 -0.5 Z M 355.1840446849114 0.5 L 661.7040268698228 0.5 L 661.7040268698228 3.5 L 668.7040268698228 0 L 661.7040268698228 -3.5 L 661.7040268698228 -0.5 L 355.1840446849114 -0.5 Z"/><text text-anchor="middle" pointer-events="none" font-size="8px" fill="#000000" x="350.8520134349114" y="3" transform="rotate(180 350.8520134349114 0)" font-family="Helvetica Neue, Helvetica, Arial, sans-serif">-</text></g><g class="relationship" transform="translate(-450.8634086936198 -469.6088827492793) rotate(339.20319545086966)"><path class="b-outline" fill="#A5ABB6" stroke="none" d="M 40 0.5 L 288.478092914202 0.5 L 288.478092914202 -0.5 L 40 -0.5 Z M 297.142155414202 0.5 L 545.620248328404 0.5 L 545.620248328404 3.5 L 552.620248328404 0 L 545.620248328404 -3.5 L 545.620248328404 -0.5 L 297.142155414202 -0.5 Z"/><text text-anchor="middle" pointer-events="none" font-size="8px" fill="#000000" x="292.810124164202" y="3" font-family="Helvetica Neue, Helvetica, Arial, sans-serif">-</text></g><g class="relationship" transform="translate(207.51515041773547 -140.119435718747) rotate(259.05892749117606)"><path class="b-outline" fill="#A5ABB6" stroke="none" d="M 40 0.5 L 267.1168021618819 0.5 L 267.1168021618819 -0.5 L 40 -0.5 Z M 275.7808646618819 0.5 L 502.89766682376376 0.5 L 502.89766682376376 3.5 L 509.89766682376376 0 L 502.89766682376376 -3.5 L 502.89766682376376 -0.5 L 275.7808646618819 -0.5 Z"/><text text-anchor="middle" pointer-events="none" font-size="8px" fill="#000000" x="271.4488334118819" y="3" transform="rotate(180 271.4488334118819 0)" font-family="Helvetica Neue, Helvetica, Arial, sans-serif">-</text></g><g class="relationship" transform="translate(-450.8634086936198 -469.6088827492793) rotate(456.40712156191574)"><path class="b-outline" fill="#A5ABB6" stroke="none" d="M 40 0.5 L 209.61785413063853 0.5 L 209.61785413063853 -0.5 L 40 -0.5 Z M 218.28191663063853 0.5 L 387.89977076127707 0.5 L 387.89977076127707 3.5 L 394.89977076127707 0 L 387.89977076127707 -3.5 L 387.89977076127707 -0.5 L 218.28191663063853 -0.5 Z"/><text text-anchor="middle" pointer-events="none" font-size="8px" fill="#000000" x="213.94988538063853" y="3" transform="rotate(180 213.94988538063853 0)" font-family="Helvetica Neue, Helvetica, Arial, sans-serif">-</text></g><g class="relationship" transform="translate(207.51515041773547 -140.119435718747) rotate(531.7343719200528)"><path class="b-outline" fill="#A5ABB6" stroke="none" d="M 40 0.5 L 349.3331709269292 0.5 L 349.3331709269292 -0.5 L 40 -0.5 Z M 357.9972334269292 0.5 L 667.3304043538584 0.5 L 667.3304043538584 3.5 L 674.3304043538584 0 L 667.3304043538584 -3.5 L 667.3304043538584 -0.5 L 357.9972334269292 -0.5 Z"/><text text-anchor="middle" pointer-events="none" font-size="8px" fill="#000000" x="353.6652021769292" y="3" transform="rotate(180 353.6652021769292 0)" font-family="Helvetica Neue, Helvetica, Arial, sans-serif">-</text></g><g class="relationship" transform="translate(-450.8634086936198 -469.6088827492793) rotate(367.7269091571116)"><path class="b-outline" fill="#A5ABB6" stroke="none" d="M 40 0.5 L 331.7445617926115 0.5 L 331.7445617926115 -0.5 L 40 -0.5 Z M 340.4086242926115 0.5 L 632.153186085223 0.5 L 632.153186085223 3.5 L 639.153186085223 0 L 632.153186085223 -3.5 L 632.153186085223 -0.5 L 340.4086242926115 -0.5 Z"/><text text-anchor="middle" pointer-events="none" font-size="8px" fill="#000000" x="336.0765930426115" y="3" font-family="Helvetica Neue, Helvetica, Arial, sans-serif">-</text></g><g class="relationship" transform="translate(207.51515041773547 -140.119435718747) rotate(273.50971712118707)"><path class="b-outline" fill="#A5ABB6" stroke="none" d="M 40 0.5 L 111.47985740070123 0.5 L 111.47985740070123 -0.5 L 40 -0.5 Z M 120.14391990070123 0.5 L 191.62377730140247 0.5 L 191.62377730140247 3.5 L 198.62377730140247 0 L 191.62377730140247 -3.5 L 191.62377730140247 -0.5 L 120.14391990070123 -0.5 Z"/><text text-anchor="middle" pointer-events="none" font-size="8px" fill="#000000" x="115.81188865070123" y="3" font-family="Helvetica Neue, Helvetica, Arial, sans-serif">-</text></g><g class="relationship" transform="translate(-450.8634086936198 -469.6088827492793) rotate(403.6033410312825)"><path class="b-outline" fill="#A5ABB6" stroke="none" d="M 40 0.5 L 96.10755544194672 0.5 L 96.10755544194672 -0.5 L 40 -0.5 Z M 104.77161794194672 0.5 L 160.87917338389343 0.5 L 160.87917338389343 3.5 L 167.87917338389343 0 L 160.87917338389343 -3.5 L 160.87917338389343 -0.5 L 104.77161794194672 -0.5 Z"/><text text-anchor="middle" pointer-events="none" font-size="8px" fill="#000000" x="100.43958669194672" y="3" font-family="Helvetica Neue, Helvetica, Arial, sans-serif">-</text></g><g class="relationship" transform="translate(207.51515041773547 -140.119435718747) rotate(200.1276191582583)"><path class="b-outline" fill="#A5ABB6" stroke="none" d="M 40 0.5 L 262.6074536673697 0.5 L 262.6074536673697 -0.5 L 40 -0.5 Z M 271.2715161673697 0.5 L 493.87896983473945 0.5 L 493.87896983473945 3.5 L 500.87896983473945 0 L 493.87896983473945 -3.5 L 493.87896983473945 -0.5 L 271.2715161673697 -0.5 Z"/><text text-anchor="middle" pointer-events="none" font-size="8px" fill="#000000" x="266.9394849173697" y="3" transform="rotate(180 266.9394849173697 0)" font-family="Helvetica Neue, Helvetica, Arial, sans-serif">-</text></g><g class="relationship" transform="translate(-450.8634086936198 -469.6088827492793) rotate(404.28395050125226)"><path class="b-outline" fill="#A5ABB6" stroke="none" d="M 40 0.5 L 368.83609330004765 0.5 L 368.83609330004765 -0.5 L 40 -0.5 Z M 377.50015580004765 0.5 L 706.3362491000953 0.5 L 706.3362491000953 3.5 L 713.3362491000953 0 L 706.3362491000953 -3.5 L 706.3362491000953 -0.5 L 377.50015580004765 -0.5 Z"/><text text-anchor="middle" pointer-events="none" font-size="8px" fill="#000000" x="373.16812455004765" y="3" font-family="Helvetica Neue, Helvetica, Arial, sans-serif">-</text></g><g class="relationship" transform="translate(207.51515041773547 -140.119435718747) rotate(481.2146430333464)"><path class="b-outline" fill="#A5ABB6" stroke="none" d="M 40 0.5 L 107.04971634224007 0.5 L 107.04971634224007 -0.5 L 40 -0.5 Z M 115.71377884224007 0.5 L 182.76349518448015 0.5 L 182.76349518448015 3.5 L 189.76349518448015 0 L 182.76349518448015 -3.5 L 182.76349518448015 -0.5 L 115.71377884224007 -0.5 Z"/><text text-anchor="middle" pointer-events="none" font-size="8px" fill="#000000" x="111.38174759224007" y="3" transform="rotate(180 111.38174759224007 0)" font-family="Helvetica Neue, Helvetica, Arial, sans-serif">-</text></g><g class="relationship" transform="translate(-450.8634086936198 -469.6088827492793) rotate(413.11500249239066)"><path class="b-outline" fill="#A5ABB6" stroke="none" d="M 40 0.5 L 173.5010998479644 0.5 L 173.5010998479644 -0.5 L 40 -0.5 Z M 182.1651623479644 0.5 L 315.6662621959288 0.5 L 315.6662621959288 3.5 L 322.6662621959288 0 L 315.6662621959288 -3.5 L 315.6662621959288 -0.5 L 182.1651623479644 -0.5 Z"/><text text-anchor="middle" pointer-events="none" font-size="8px" fill="#000000" x="177.8331310979644" y="3" font-family="Helvetica Neue, Helvetica, Arial, sans-serif">-</text></g><g class="relationship" transform="translate(207.51515041773547 -140.119435718747) rotate(185.11059672144177)"><path class="b-outline" fill="#A5ABB6" stroke="none" d="M 40 0.5 L 213.39862092198183 0.5 L 213.39862092198183 -0.5 L 40 -0.5 Z M 222.06268342198183 0.5 L 395.46130434396366 0.5 L 395.46130434396366 3.5 L 402.46130434396366 0 L 395.46130434396366 -3.5 L 395.46130434396366 -0.5 L 222.06268342198183 -0.5 Z"/><text text-anchor="middle" pointer-events="none" font-size="8px" fill="#000000" x="217.73065217198183" y="3" transform="rotate(180 217.73065217198183 0)" font-family="Helvetica Neue, Helvetica, Arial, sans-serif">-</text></g><g class="relationship" transform="translate(-450.8634086936198 -469.6088827492793) rotate(390.57747348047707)"><path class="b-outline" fill="#A5ABB6" stroke="none" d="M 40 0.5 L 240.58318898950563 0.5 L 240.58318898950563 -0.5 L 40 -0.5 Z M 249.24725148950563 0.5 L 449.83044047901126 0.5 L 449.83044047901126 3.5 L 456.83044047901126 0 L 449.83044047901126 -3.5 L 449.83044047901126 -0.5 L 249.24725148950563 -0.5 Z"/><text text-anchor="middle" pointer-events="none" font-size="8px" fill="#000000" x="244.91522023950563" y="3" font-family="Helvetica Neue, Helvetica, Arial, sans-serif">-</text></g><g class="relationship" transform="translate(207.51515041773547 -140.119435718747) rotate(198.40622619840565)"><path class="b-outline" fill="#A5ABB6" stroke="none" d="M 40 0.5 L 113.70368802477876 0.5 L 113.70368802477876 -0.5 L 40 -0.5 Z M 122.36775052477876 0.5 L 196.0714385495575 0.5 L 196.0714385495575 3.5 L 203.0714385495575 0 L 196.0714385495575 -3.5 L 196.0714385495575 -0.5 L 122.36775052477876 -0.5 Z"/><text text-anchor="middle" pointer-events="none" font-size="8px" fill="#000000" x="118.03571927477876" y="3" transform="rotate(180 118.03571927477876 0)" font-family="Helvetica Neue, Helvetica, Arial, sans-serif">-</text></g><g class="relationship" transform="translate(-450.8634086936198 -469.6088827492793) rotate(365.90710667086637)"><path class="b-outline" fill="#A5ABB6" stroke="none" d="M 40 0.5 L 384.46417548335626 0.5 L 384.46417548335626 -0.5 L 40 -0.5 Z M 393.12823798335626 0.5 L 737.5924134667125 0.5 L 737.5924134667125 3.5 L 744.5924134667125 0 L 737.5924134667125 -3.5 L 737.5924134667125 -0.5 L 393.12823798335626 -0.5 Z"/><text text-anchor="middle" pointer-events="none" font-size="8px" fill="#000000" x="388.79620673335626" y="3" font-family="Helvetica Neue, Helvetica, Arial, sans-serif">-</text></g><g class="relationship" transform="translate(207.51515041773547 -140.119435718747) rotate(296.13529676255035)"><path class="b-outline" fill="#A5ABB6" stroke="none" d="M 40 0.5 L 130.70354840598486 0.5 L 130.70354840598486 -0.5 L 40 -0.5 Z M 139.36761090598486 0.5 L 230.07115931196972 0.5 L 230.07115931196972 3.5 L 237.07115931196972 0 L 230.07115931196972 -3.5 L 230.07115931196972 -0.5 L 139.36761090598486 -0.5 Z"/><text text-anchor="middle" pointer-events="none" font-size="8px" fill="#000000" x="135.03557965598486" y="3" font-family="Helvetica Neue, Helvetica, Arial, sans-serif">-</text></g><g class="relationship" transform="translate(-450.8634086936198 -469.6088827492793) rotate(324.5869661046689)"><path class="b-outline" fill="#A5ABB6" stroke="none" d="M 40 0.5 L 224.2086254661398 0.5 L 224.2086254661398 -0.5 L 40 -0.5 Z M 232.8726879661398 0.5 L 417.0813134322796 0.5 L 417.0813134322796 3.5 L 424.0813134322796 0 L 417.0813134322796 -3.5 L 417.0813134322796 -0.5 L 232.8726879661398 -0.5 Z"/><text text-anchor="middle" pointer-events="none" font-size="8px" fill="#000000" x="228.5406567161398" y="3" font-family="Helvetica Neue, Helvetica, Arial, sans-serif">-</text></g><g class="relationship" transform="translate(207.51515041773547 -140.119435718747) rotate(244.91265375685032)"><path class="b-outline" fill="#A5ABB6" stroke="none" d="M 40 0.5 L 322.5388779178011 0.5 L 322.5388779178011 -0.5 L 40 -0.5 Z M 331.2029404178011 0.5 L 613.7418183356021 0.5 L 613.7418183356021 3.5 L 620.7418183356021 0 L 613.7418183356021 -3.5 L 613.7418183356021 -0.5 L 331.2029404178011 -0.5 Z"/><text text-anchor="middle" pointer-events="none" font-size="8px" fill="#000000" x="326.8709091678011" y="3" transform="rotate(180 326.8709091678011 0)" font-family="Helvetica Neue, Helvetica, Arial, sans-serif">-</text></g><g class="relationship" transform="translate(-450.8634086936198 -469.6088827492793) rotate(473.6129811498439)"><path class="b-outline" fill="#A5ABB6" stroke="none" d="M 40 0.5 L 127.84010177915178 0.5 L 127.84010177915178 -0.5 L 40 -0.5 Z M 136.50416427915178 0.5 L 224.34426605830356 0.5 L 224.34426605830356 3.5 L 231.34426605830356 0 L 224.34426605830356 -3.5 L 224.34426605830356 -0.5 L 136.50416427915178 -0.5 Z"/><text text-anchor="middle" pointer-events="none" font-size="8px" fill="#000000" x="132.17213302915178" y="3" transform="rotate(180 132.17213302915178 0)" font-family="Helvetica Neue, Helvetica, Arial, sans-serif">-</text></g><g class="relationship" transform="translate(207.51515041773547 -140.119435718747) rotate(186.01789800037363)"><path class="b-outline" fill="#A5ABB6" stroke="none" d="M 40 0.5 L 377.8269131253557 0.5 L 377.8269131253557 -0.5 L 40 -0.5 Z M 386.4909756253557 0.5 L 724.3178887507114 0.5 L 724.3178887507114 3.5 L 731.3178887507114 0 L 724.3178887507114 -3.5 L 724.3178887507114 -0.5 L 386.4909756253557 -0.5 Z"/><text text-anchor="middle" pointer-events="none" font-size="8px" fill="#000000" x="382.1589443753557" y="3" transform="rotate(180 382.1589443753557 0)" font-family="Helvetica Neue, Helvetica, Arial, sans-serif">-</text></g><g class="relationship" transform="translate(-450.8634086936198 -469.6088827492793) rotate(447.5433197460938)"><path class="b-outline" fill="#A5ABB6" stroke="none" d="M 40 0.5 L 94.42380310983428 0.5 L 94.42380310983428 -0.5 L 40 -0.5 Z M 103.08786560983428 0.5 L 157.51166871966856 0.5 L 157.51166871966856 3.5 L 164.51166871966856 0 L 157.51166871966856 -3.5 L 157.51166871966856 -0.5 L 103.08786560983428 -0.5 Z"/><text text-anchor="middle" pointer-events="none" font-size="8px" fill="#000000" x="98.75583435983428" y="3" font-family="Helvetica Neue, Helvetica, Arial, sans-serif">-</text></g><g class="relationship" transform="translate(207.51515041773547 -140.119435718747) rotate(190.90596310940157)"><path class="b-outline" fill="#A5ABB6" stroke="none" d="M 40 0.5 L 322.94836775478393 0.5 L 322.94836775478393 -0.5 L 40 -0.5 Z M 331.61243025478393 0.5 L 614.5607980095679 0.5 L 614.5607980095679 3.5 L 621.5607980095679 0 L 614.5607980095679 -3.5 L 614.5607980095679 -0.5 L 331.61243025478393 -0.5 Z"/><text text-anchor="middle" pointer-events="none" font-size="8px" fill="#000000" x="327.28039900478393" y="3" transform="rotate(180 327.28039900478393 0)" font-family="Helvetica Neue, Helvetica, Arial, sans-serif">-</text></g><g class="relationship" transform="translate(-450.8634086936198 -469.6088827492793) rotate(304.5297037871843)"><path class="b-outline" fill="#A5ABB6" stroke="none" d="M 40 0.5 L 118.17987530318445 0.5 L 118.17987530318445 -0.5 L 40 -0.5 Z M 126.84393780318445 0.5 L 205.0238131063689 0.5 L 205.0238131063689 3.5 L 212.0238131063689 0 L 205.0238131063689 -3.5 L 205.0238131063689 -0.5 L 126.84393780318445 -0.5 Z"/><text text-anchor="middle" pointer-events="none" font-size="8px" fill="#000000" x="122.51190655318445" y="3" font-family="Helvetica Neue, Helvetica, Arial, sans-serif">-</text></g><g class="relationship" transform="translate(207.51515041773547 -140.119435718747) rotate(226.17509111582945)"><path class="b-outline" fill="#A5ABB6" stroke="none" d="M 40 0.5 L 364.4099453108642 0.5 L 364.4099453108642 -0.5 L 40 -0.5 Z M 373.0740078108642 0.5 L 697.4839531217284 0.5 L 697.4839531217284 3.5 L 704.4839531217284 0 L 697.4839531217284 -3.5 L 697.4839531217284 -0.5 L 373.0740078108642 -0.5 Z"/><text text-anchor="middle" pointer-events="none" font-size="8px" fill="#000000" x="368.7419765608642" y="3" transform="rotate(180 368.7419765608642 0)" font-family="Helvetica Neue, Helvetica, Arial, sans-serif">-</text></g><g class="relationship" transform="translate(-450.8634086936198 -469.6088827492793) rotate(351.303861944181)"><path class="b-outline" fill="#A5ABB6" stroke="none" d="M 40 0.5 L 262.5552127819752 0.5 L 262.5552127819752 -0.5 L 40 -0.5 Z M 271.2192752819752 0.5 L 493.77448806395034 0.5 L 493.77448806395034 3.5 L 500.77448806395034 0 L 493.77448806395034 -3.5 L 493.77448806395034 -0.5 L 271.2192752819752 -0.5 Z"/><text text-anchor="middle" pointer-events="none" font-size="8px" fill="#000000" x="266.8872440319752" y="3" font-family="Helvetica Neue, Helvetica, Arial, sans-serif">-</text></g><g class="relationship" transform="translate(207.51515041773547 -140.119435718747) rotate(253.2438496035727)"><path class="b-outline" fill="#A5ABB6" stroke="none" d="M 40 0.5 L 206.91159761783808 0.5 L 206.91159761783808 -0.5 L 40 -0.5 Z M 215.57566011783808 0.5 L 382.48725773567617 0.5 L 382.48725773567617 3.5 L 389.48725773567617 0 L 382.48725773567617 -3.5 L 382.48725773567617 -0.5 L 215.57566011783808 -0.5 Z"/><text text-anchor="middle" pointer-events="none" font-size="8px" fill="#000000" x="211.24362886783808" y="3" transform="rotate(180 211.24362886783808 0)" font-family="Helvetica Neue, Helvetica, Arial, sans-serif">-</text></g><g class="relationship" transform="translate(-450.8634086936198 -469.6088827492793) rotate(428.67994733099727)"><path class="b-outline" fill="#A5ABB6" stroke="none" d="M 40 0.5 L 217.52147572444144 0.5 L 217.52147572444144 -0.5 L 40 -0.5 Z M 226.18553822444144 0.5 L 403.7070139488829 0.5 L 403.7070139488829 3.5 L 410.7070139488829 0 L 403.7070139488829 -3.5 L 403.7070139488829 -0.5 L 226.18553822444144 -0.5 Z"/><text text-anchor="middle" pointer-events="none" font-size="8px" fill="#000000" x="221.85350697444144" y="3" font-family="Helvetica Neue, Helvetica, Arial, sans-serif">-</text></g><g class="relationship" transform="translate(207.51515041773547 -140.119435718747) rotate(529.6433712488398)"><path class="b-outline" fill="#A5ABB6" stroke="none" d="M 40 0.5 L 243.51888189230715 0.5 L 243.51888189230715 -0.5 L 40 -0.5 Z M 252.18294439230715 0.5 L 455.7018262846143 0.5 L 455.7018262846143 3.5 L 462.7018262846143 0 L 455.7018262846143 -3.5 L 455.7018262846143 -0.5 L 252.18294439230715 -0.5 Z"/><text text-anchor="middle" pointer-events="none" font-size="8px" fill="#000000" x="247.85091314230715" y="3" transform="rotate(180 247.85091314230715 0)" font-family="Helvetica Neue, Helvetica, Arial, sans-serif">-</text></g><g class="relationship" transform="translate(-450.8634086936198 -469.6088827492793) rotate(423.9130887044906)"><path class="b-outline" fill="#A5ABB6" stroke="none" d="M 40 0.5 L 328.57382729871756 0.5 L 328.57382729871756 -0.5 L 40 -0.5 Z M 337.23788979871756 0.5 L 625.8117170974351 0.5 L 625.8117170974351 3.5 L 632.8117170974351 0 L 625.8117170974351 -3.5 L 625.8117170974351 -0.5 L 337.23788979871756 -0.5 Z"/><text text-anchor="middle" pointer-events="none" font-size="8px" fill="#000000" x="332.90585854871756" y="3" font-family="Helvetica Neue, Helvetica, Arial, sans-serif">-</text></g><g class="relationship" transform="translate(207.51515041773547 -140.119435718747) rotate(502.8387565221449)"><path class="b-outline" fill="#A5ABB6" stroke="none" d="M 40 0.5 L 219.61354362478875 0.5 L 219.61354362478875 -0.5 L 40 -0.5 Z M 228.27760612478875 0.5 L 407.8911497495775 0.5 L 407.8911497495775 3.5 L 414.8911497495775 0 L 407.8911497495775 -3.5 L 407.8911497495775 -0.5 L 228.27760612478875 -0.5 Z"/><text text-anchor="middle" pointer-events="none" font-size="8px" fill="#000000" x="223.94557487478875" y="3" transform="rotate(180 223.94557487478875 0)" font-family="Helvetica Neue, Helvetica, Arial, sans-serif">-</text></g><g class="relationship" transform="translate(-450.8634086936198 -469.6088827492793) rotate(395.07582299666774)"><path class="b-outline" fill="#A5ABB6" stroke="none" d="M 40 0.5 L 390.0335612917558 0.5 L 390.0335612917558 -0.5 L 40 -0.5 Z M 398.6976237917558 0.5 L 748.7311850835116 0.5 L 748.7311850835116 3.5 L 755.7311850835116 0 L 748.7311850835116 -3.5 L 748.7311850835116 -0.5 L 398.6976237917558 -0.5 Z"/><text text-anchor="middle" pointer-events="none" font-size="8px" fill="#000000" x="394.3655925417558" y="3" font-family="Helvetica Neue, Helvetica, Arial, sans-serif">-</text></g><g class="relationship" transform="translate(207.51515041773547 -140.119435718747) rotate(453.20625221845853)"><path class="b-outline" fill="#A5ABB6" stroke="none" d="M 40 0.5 L 56.16084392268243 0.5 L 56.16084392268243 -0.5 L 40 -0.5 Z M 64.82490642268243 0.5 L 80.98575034536486 0.5 L 80.98575034536486 3.5 L 87.98575034536486 0 L 80.98575034536486 -3.5 L 80.98575034536486 -0.5 L 64.82490642268243 -0.5 Z"/><text text-anchor="middle" pointer-events="none" font-size="8px" fill="#000000" x="60.49287517268243" y="3" transform="rotate(180 60.49287517268243 0)" font-family="Helvetica Neue, Helvetica, Arial, sans-serif">-</text></g><g class="relationship" transform="translate(-450.8634086936198 -469.6088827492793) rotate(376.1412195307823)"><path class="b-outline" fill="#A5ABB6" stroke="none" d="M 40 0.5 L 110.50712856832851 0.5 L 110.50712856832851 -0.5 L 40 -0.5 Z M 119.17119106832851 0.5 L 189.67831963665702 0.5 L 189.67831963665702 3.5 L 196.67831963665702 0 L 189.67831963665702 -3.5 L 189.67831963665702 -0.5 L 119.17119106832851 -0.5 Z"/><text text-anchor="middle" pointer-events="none" font-size="8px" fill="#000000" x="114.83915981832851" y="3" font-family="Helvetica Neue, Helvetica, Arial, sans-serif">-</text></g><g class="relationship" transform="translate(207.51515041773547 -140.119435718747) rotate(211.45705717740134)"><path class="b-outline" fill="#A5ABB6" stroke="none" d="M 40 0.5 L 244.81410396123553 0.5 L 244.81410396123553 -0.5 L 40 -0.5 Z M 253.47816646123553 0.5 L 458.29227042247106 0.5 L 458.29227042247106 3.5 L 465.29227042247106 0 L 458.29227042247106 -3.5 L 458.29227042247106 -0.5 L 253.47816646123553 -0.5 Z"/><text text-anchor="middle" pointer-events="none" font-size="8px" fill="#000000" x="249.14613521123553" y="3" transform="rotate(180 249.14613521123553 0)" font-family="Helvetica Neue, Helvetica, Arial, sans-serif">-</text></g><g class="relationship" transform="translate(-450.8634086936198 -469.6088827492793) rotate(368.2754169170809)"><path class="b-outline" fill="#A5ABB6" stroke="none" d="M 40 0.5 L 166.8208003515339 0.5 L 166.8208003515339 -0.5 L 40 -0.5 Z M 175.4848628515339 0.5 L 302.3056632030678 0.5 L 302.3056632030678 3.5 L 309.3056632030678 0 L 302.3056632030678 -3.5 L 302.3056632030678 -0.5 L 175.4848628515339 -0.5 Z"/><text text-anchor="middle" pointer-events="none" font-size="8px" fill="#000000" x="171.1528316015339" y="3" font-family="Helvetica Neue, Helvetica, Arial, sans-serif">-</text></g><g class="relationship" transform="translate(207.51515041773547 -140.119435718747) rotate(221.761111533671)"><path class="b-outline" fill="#A5ABB6" stroke="none" d="M 40 0.5 L 201.7792850053276 0.5 L 201.7792850053276 -0.5 L 40 -0.5 Z M 210.4433475053276 0.5 L 372.2226325106552 0.5 L 372.2226325106552 3.5 L 379.2226325106552 0 L 372.2226325106552 -3.5 L 372.2226325106552 -0.5 L 210.4433475053276 -0.5 Z"/><text text-anchor="middle" pointer-events="none" font-size="8px" fill="#000000" x="206.1113162553276" y="3" transform="rotate(180 206.1113162553276 0)" font-family="Helvetica Neue, Helvetica, Arial, sans-serif">-</text></g><g class="relationship" transform="translate(-450.8634086936198 -469.6088827492793) rotate(355.789631762859)"><path class="b-outline" fill="#A5ABB6" stroke="none" d="M 40 0.5 L 144.5724687681278 0.5 L 144.5724687681278 -0.5 L 40 -0.5 Z M 153.2365312681278 0.5 L 257.8090000362556 0.5 L 257.8090000362556 3.5 L 264.8090000362556 0 L 257.8090000362556 -3.5 L 257.8090000362556 -0.5 L 153.2365312681278 -0.5 Z"/><text text-anchor="middle" pointer-events="none" font-size="8px" fill="#000000" x="148.9045000181278" y="3" font-family="Helvetica Neue, Helvetica, Arial, sans-serif">-</text></g><g class="relationship" transform="translate(207.51515041773547 -140.119435718747) rotate(224.7952352802571)"><path class="b-outline" fill="#A5ABB6" stroke="none" d="M 40 0.5 L 241.87028481934897 0.5 L 241.87028481934897 -0.5 L 40 -0.5 Z M 250.53434731934897 0.5 L 452.40463213869793 0.5 L 452.40463213869793 3.5 L 459.40463213869793 0 L 452.40463213869793 -3.5 L 452.40463213869793 -0.5 L 250.53434731934897 -0.5 Z"/><text text-anchor="middle" pointer-events="none" font-size="8px" fill="#000000" x="246.20231606934897" y="3" transform="rotate(180 246.20231606934897 0)" font-family="Helvetica Neue, Helvetica, Arial, sans-serif">-</text></g><g class="relationship" transform="translate(-450.8634086936198 -469.6088827492793) rotate(402.62473747639905)"><path class="b-outline" fill="#A5ABB6" stroke="none" d="M 40 0.5 L 218.86240493432766 0.5 L 218.86240493432766 -0.5 L 40 -0.5 Z M 227.52646743432766 0.5 L 406.3888723686553 0.5 L 406.3888723686553 3.5 L 413.3888723686553 0 L 406.3888723686553 -3.5 L 406.3888723686553 -0.5 L 227.52646743432766 -0.5 Z"/><text text-anchor="middle" pointer-events="none" font-size="8px" fill="#000000" x="223.19443618432766" y="3" font-family="Helvetica Neue, Helvetica, Arial, sans-serif">-</text></g><g class="relationship" transform="translate(207.51515041773547 -140.119435718747) rotate(183.9555846530236)"><path class="b-outline" fill="#A5ABB6" stroke="none" d="M 40 0.5 L 154.94215577808225 0.5 L 154.94215577808225 -0.5 L 40 -0.5 Z M 163.60621827808225 0.5 L 278.5483740561645 0.5 L 278.5483740561645 3.5 L 285.5483740561645 0 L 278.5483740561645 -3.5 L 278.5483740561645 -0.5 L 163.60621827808225 -0.5 Z"/><text text-anchor="middle" pointer-events="none" font-size="8px" fill="#000000" x="159.27418702808225" y="3" transform="rotate(180 159.27418702808225 0)" font-family="Helvetica Neue, Helvetica, Arial, sans-serif">-</text></g><g class="relationship" transform="translate(-450.8634086936198 -469.6088827492793) rotate(395.98695233776084)"><path class="b-outline" fill="#A5ABB6" stroke="none" d="M 40 0.5 L 326.34976257481077 0.5 L 326.34976257481077 -0.5 L 40 -0.5 Z M 335.01382507481077 0.5 L 621.3635876496215 0.5 L 621.3635876496215 3.5 L 628.3635876496215 0 L 621.3635876496215 -3.5 L 621.3635876496215 -0.5 L 335.01382507481077 -0.5 Z"/><text text-anchor="middle" pointer-events="none" font-size="8px" fill="#000000" x="330.68179382481077" y="3" font-family="Helvetica Neue, Helvetica, Arial, sans-serif">-</text></g><g class="relationship" transform="translate(207.51515041773547 -140.119435718747) rotate(511.72423023916497)"><path class="b-outline" fill="#A5ABB6" stroke="none" d="M 40 0.5 L 58.91860917032626 0.5 L 58.91860917032626 -0.5 L 40 -0.5 Z M 67.58267167032626 0.5 L 86.50128084065253 0.5 L 86.50128084065253 3.5 L 93.50128084065253 0 L 86.50128084065253 -3.5 L 86.50128084065253 -0.5 L 67.58267167032626 -0.5 Z"/><text text-anchor="middle" pointer-events="none" font-size="8px" fill="#000000" x="63.25064042032626" y="3" transform="rotate(180 63.25064042032626 0)" font-family="Helvetica Neue, Helvetica, Arial, sans-serif">-</text></g><g class="relationship" transform="translate(-450.8634086936198 -469.6088827492793) rotate(330.59616855386537)"><path class="b-outline" fill="#A5ABB6" stroke="none" d="M 40 0.5 L 120.20287874420708 0.5 L 120.20287874420708 -0.5 L 40 -0.5 Z M 128.86694124420708 0.5 L 209.06981998841417 0.5 L 209.06981998841417 3.5 L 216.06981998841417 0 L 209.06981998841417 -3.5 L 209.06981998841417 -0.5 L 128.86694124420708 -0.5 Z"/><text text-anchor="middle" pointer-events="none" font-size="8px" fill="#000000" x="124.53490999420708" y="3" font-family="Helvetica Neue, Helvetica, Arial, sans-serif">-</text></g><g class="relationship" transform="translate(207.51515041773547 -140.119435718747) rotate(226.2811065678461)"><path class="b-outline" fill="#A5ABB6" stroke="none" d="M 40 0.5 L 307.0878918874532 0.5 L 307.0878918874532 -0.5 L 40 -0.5 Z M 315.7519543874532 0.5 L 582.8398462749064 0.5 L 582.8398462749064 3.5 L 589.8398462749064 0 L 582.8398462749064 -3.5 L 582.8398462749064 -0.5 L 315.7519543874532 -0.5 Z"/><text text-anchor="middle" pointer-events="none" font-size="8px" fill="#000000" x="311.4199231374532" y="3" transform="rotate(180 311.4199231374532 0)" font-family="Helvetica Neue, Helvetica, Arial, sans-serif">-</text></g><g class="relationship" transform="translate(-450.8634086936198 -469.6088827492793) rotate(348.9978701227094)"><path class="b-outline" fill="#A5ABB6" stroke="none" d="M 40 0.5 L 202.5178115424673 0.5 L 202.5178115424673 -0.5 L 40 -0.5 Z M 211.1818740424673 0.5 L 373.6996855849346 0.5 L 373.6996855849346 3.5 L 380.6996855849346 0 L 373.6996855849346 -3.5 L 373.6996855849346 -0.5 L 211.1818740424673 -0.5 Z"/><text text-anchor="middle" pointer-events="none" font-size="8px" fill="#000000" x="206.8498427924673" y="3" font-family="Helvetica Neue, Helvetica, Arial, sans-serif">-</text></g><g class="relationship" transform="translate(207.51515041773547 -140.119435718747) rotate(239.08310187786606)"><path class="b-outline" fill="#A5ABB6" stroke="none" d="M 40 0.5 L 230.9904872488516 0.5 L 230.9904872488516 -0.5 L 40 -0.5 Z M 239.6545497488516 0.5 L 430.6450369977032 0.5 L 430.6450369977032 3.5 L 437.6450369977032 0 L 430.6450369977032 -3.5 L 430.6450369977032 -0.5 L 239.6545497488516 -0.5 Z"/><text text-anchor="middle" pointer-events="none" font-size="8px" fill="#000000" x="235.3225184988516" y="3" transform="rotate(180 235.3225184988516 0)" font-family="Helvetica Neue, Helvetica, Arial, sans-serif">-</text></g><g class="relationship" transform="translate(-450.8634086936198 -469.6088827492793) rotate(367.9112415447441)"><path class="b-outline" fill="#A5ABB6" stroke="none" d="M 40 0.5 L 279.8686188301417 0.5 L 279.8686188301417 -0.5 L 40 -0.5 Z M 288.5326813301417 0.5 L 528.4013001602834 0.5 L 528.4013001602834 3.5 L 535.4013001602834 0 L 528.4013001602834 -3.5 L 528.4013001602834 -0.5 L 288.5326813301417 -0.5 Z"/><text text-anchor="middle" pointer-events="none" font-size="8px" fill="#000000" x="284.2006500801417" y="3" font-family="Helvetica Neue, Helvetica, Arial, sans-serif">-</text></g><g class="relationship" transform="translate(207.51515041773547 -140.119435718747) rotate(250.5364875728626)"><path class="b-outline" fill="#A5ABB6" stroke="none" d="M 40 0.5 L 124.898957389766 0.5 L 124.898957389766 -0.5 L 40 -0.5 Z M 133.563019889766 0.5 L 218.461977279532 0.5 L 218.461977279532 3.5 L 225.461977279532 0 L 218.461977279532 -3.5 L 218.461977279532 -0.5 L 133.563019889766 -0.5 Z"/><text text-anchor="middle" pointer-events="none" font-size="8px" fill="#000000" x="129.230988639766" y="3" transform="rotate(180 129.230988639766 0)" font-family="Helvetica Neue, Helvetica, Arial, sans-serif">-</text></g><g class="relationship" transform="translate(-450.8634086936198 -469.6088827492793) rotate(429.50745080007135)"><path class="b-outline" fill="#A5ABB6" stroke="none" d="M 40 0.5 L 153.740233956033 0.5 L 153.740233956033 -0.5 L 40 -0.5 Z M 162.404296456033 0.5 L 276.144530412066 0.5 L 276.144530412066 3.5 L 283.144530412066 0 L 276.144530412066 -3.5 L 276.144530412066 -0.5 L 162.404296456033 -0.5 Z"/><text text-anchor="middle" pointer-events="none" font-size="8px" fill="#000000" x="158.072265206033" y="3" font-family="Helvetica Neue, Helvetica, Arial, sans-serif">-</text></g><g class="relationship" transform="translate(207.51515041773547 -140.119435718747) rotate(182.813318480531)"><path class="b-outline" fill="#A5ABB6" stroke="none" d="M 40 0.5 L 265.12210590278835 0.5 L 265.12210590278835 -0.5 L 40 -0.5 Z M 273.78616840278835 0.5 L 498.9082743055767 0.5 L 498.9082743055767 3.5 L 505.9082743055767 0 L 498.9082743055767 -3.5 L 498.9082743055767 -0.5 L 273.78616840278835 -0.5 Z"/><text text-anchor="middle" pointer-events="none" font-size="8px" fill="#000000" x="269.45413715278835" y="3" transform="rotate(180 269.45413715278835 0)" font-family="Helvetica Neue, Helvetica, Arial, sans-serif">-</text></g><g class="relationship" transform="translate(-450.8634086936198 -469.6088827492793) rotate(378.47424029892755)"><path class="b-outline" fill="#A5ABB6" stroke="none" d="M 40 0.5 L 194.3579714324524 0.5 L 194.3579714324524 -0.5 L 40 -0.5 Z M 203.0220339324524 0.5 L 357.3800053649048 0.5 L 357.3800053649048 3.5 L 364.3800053649048 0 L 357.3800053649048 -3.5 L 357.3800053649048 -0.5 L 203.0220339324524 -0.5 Z"/><text text-anchor="middle" pointer-events="none" font-size="8px" fill="#000000" x="198.6900026824524" y="3" font-family="Helvetica Neue, Helvetica, Arial, sans-serif">-</text></g><g class="relationship" transform="translate(207.51515041773547 -140.119435718747) rotate(216.227054562464)"><path class="b-outline" fill="#A5ABB6" stroke="none" d="M 40 0.5 L 162.51886845549407 0.5 L 162.51886845549407 -0.5 L 40 -0.5 Z M 171.18293095549407 0.5 L 293.70179941098814 0.5 L 293.70179941098814 3.5 L 300.70179941098814 0 L 293.70179941098814 -3.5 L 293.70179941098814 -0.5 L 171.18293095549407 -0.5 Z"/><text text-anchor="middle" pointer-events="none" font-size="8px" fill="#000000" x="166.85089970549407" y="3" transform="rotate(180 166.85089970549407 0)" font-family="Helvetica Neue, Helvetica, Arial, sans-serif">-</text></g><g class="relationship" transform="translate(-450.8634086936198 -469.6088827492793) rotate(333.60826688351926)"><path class="b-outline" fill="#A5ABB6" stroke="none" d="M 40 0.5 L 175.71974835631676 0.5 L 175.71974835631676 -0.5 L 40 -0.5 Z M 184.38381085631676 0.5 L 320.1035592126335 0.5 L 320.1035592126335 3.5 L 327.1035592126335 0 L 320.1035592126335 -3.5 L 320.1035592126335 -0.5 L 184.38381085631676 -0.5 Z"/><text text-anchor="middle" pointer-events="none" font-size="8px" fill="#000000" x="180.05177960631676" y="3" font-family="Helvetica Neue, Helvetica, Arial, sans-serif">-</text></g><g class="relationship" transform="translate(207.51515041773547 -140.119435718747) rotate(236.22226840666292)"><path class="b-outline" fill="#A5ABB6" stroke="none" d="M 40 0.5 L 288.5279268760212 0.5 L 288.5279268760212 -0.5 L 40 -0.5 Z M 297.1919893760212 0.5 L 545.7199162520424 0.5 L 545.7199162520424 3.5 L 552.7199162520424 0 L 545.7199162520424 -3.5 L 545.7199162520424 -0.5 L 297.1919893760212 -0.5 Z"/><text text-anchor="middle" pointer-events="none" font-size="8px" fill="#000000" x="292.8599581260212" y="3" transform="rotate(180 292.8599581260212 0)" font-family="Helvetica Neue, Helvetica, Arial, sans-serif">-</text></g><g class="relationship" transform="translate(-450.8634086936198 -469.6088827492793) rotate(419.0554325486379)"><path class="b-outline" fill="#A5ABB6" stroke="none" d="M 40 0.5 L 234.8674512267583 0.5 L 234.8674512267583 -0.5 L 40 -0.5 Z M 243.5315137267583 0.5 L 438.3989649535166 0.5 L 438.3989649535166 3.5 L 445.3989649535166 0 L 438.3989649535166 -3.5 L 438.3989649535166 -0.5 L 243.5315137267583 -0.5 Z"/><text text-anchor="middle" pointer-events="none" font-size="8px" fill="#000000" x="239.1994824767583" y="3" font-family="Helvetica Neue, Helvetica, Arial, sans-serif">-</text></g><g class="relationship" transform="translate(207.51515041773547 -140.119435718747) rotate(528.0092541048505)"><path class="b-outline" fill="#A5ABB6" stroke="none" d="M 40 0.5 L 201.1181501811351 0.5 L 201.1181501811351 -0.5 L 40 -0.5 Z M 209.7822126811351 0.5 L 370.9003628622702 0.5 L 370.9003628622702 3.5 L 377.9003628622702 0 L 370.9003628622702 -3.5 L 370.9003628622702 -0.5 L 209.7822126811351 -0.5 Z"/><text text-anchor="middle" pointer-events="none" font-size="8px" fill="#000000" x="205.4501814311351" y="3" transform="rotate(180 205.4501814311351 0)" font-family="Helvetica Neue, Helvetica, Arial, sans-serif">-</text></g><g class="relationship" transform="translate(-450.8634086936198 -469.6088827492793) rotate(364.151497415044)"><path class="b-outline" fill="#A5ABB6" stroke="none" d="M 40 0.5 L 56.62826996005933 0.5 L 56.62826996005933 -0.5 L 40 -0.5 Z M 65.29233246005933 0.5 L 81.92060242011866 0.5 L 81.92060242011866 3.5 L 88.92060242011866 0 L 81.92060242011866 -3.5 L 81.92060242011866 -0.5 L 65.29233246005933 -0.5 Z"/><text text-anchor="middle" pointer-events="none" font-size="8px" fill="#000000" x="60.96030121005933" y="3" font-family="Helvetica Neue, Helvetica, Arial, sans-serif">-</text></g><g class="relationship" transform="translate(207.51515041773547 -140.119435718747) rotate(211.14460978325724)"><path class="b-outline" fill="#A5ABB6" stroke="none" d="M 40 0.5 L 301.67731917809726 0.5 L 301.67731917809726 -0.5 L 40 -0.5 Z M 310.34138167809726 0.5 L 572.0187008561945 0.5 L 572.0187008561945 3.5 L 579.0187008561945 0 L 572.0187008561945 -3.5 L 572.0187008561945 -0.5 L 310.34138167809726 -0.5 Z"/><text text-anchor="middle" pointer-events="none" font-size="8px" fill="#000000" x="306.00935042809726" y="3" transform="rotate(180 306.00935042809726 0)" font-family="Helvetica Neue, Helvetica, Arial, sans-serif">-</text></g><g class="relationship" transform="translate(-450.8634086936198 -469.6088827492793) rotate(396.5016352712854)"><path class="b-outline" fill="#A5ABB6" stroke="none" d="M 40 0.5 L 173.08972952686477 0.5 L 173.08972952686477 -0.5 L 40 -0.5 Z M 181.75379202686477 0.5 L 314.84352155372954 0.5 L 314.84352155372954 3.5 L 321.84352155372954 0 L 314.84352155372954 -3.5 L 314.84352155372954 -0.5 L 181.75379202686477 -0.5 Z"/><text text-anchor="middle" pointer-events="none" font-size="8px" fill="#000000" x="177.42176077686477" y="3" font-family="Helvetica Neue, Helvetica, Arial, sans-serif">-</text></g><g class="relationship" transform="translate(207.51515041773547 -140.119435718747) rotate(197.26878848236083)"><path class="b-outline" fill="#A5ABB6" stroke="none" d="M 40 0.5 L 184.59942093532766 0.5 L 184.59942093532766 -0.5 L 40 -0.5 Z M 193.26348343532766 0.5 L 337.8629043706553 0.5 L 337.8629043706553 3.5 L 344.8629043706553 0 L 337.8629043706553 -3.5 L 337.8629043706553 -0.5 L 193.26348343532766 -0.5 Z"/><text text-anchor="middle" pointer-events="none" font-size="8px" fill="#000000" x="188.93145218532766" y="3" transform="rotate(180 188.93145218532766 0)" font-family="Helvetica Neue, Helvetica, Arial, sans-serif">-</text></g><g class="relationship" transform="translate(-450.8634086936198 -469.6088827492793) rotate(378.6785581609223)"><path class="b-outline" fill="#A5ABB6" stroke="none" d="M 40 0.5 L 315.61195528851175 0.5 L 315.61195528851175 -0.5 L 40 -0.5 Z M 324.27601778851175 0.5 L 599.8879730770235 0.5 L 599.8879730770235 3.5 L 606.8879730770235 0 L 599.8879730770235 -3.5 L 599.8879730770235 -0.5 L 324.27601778851175 -0.5 Z"/><text text-anchor="middle" pointer-events="none" font-size="8px" fill="#000000" x="319.94398653851175" y="3" font-family="Helvetica Neue, Helvetica, Arial, sans-serif">-</text></g><g class="relationship" transform="translate(207.51515041773547 -140.119435718747) rotate(249.570227945275)"><path class="b-outline" fill="#A5ABB6" stroke="none" d="M 40 0.5 L 57.43207254574871 0.5 L 57.43207254574871 -0.5 L 40 -0.5 Z M 66.09613504574871 0.5 L 83.52820759149742 0.5 L 83.52820759149742 3.5 L 90.52820759149742 0 L 83.52820759149742 -3.5 L 83.52820759149742 -0.5 L 66.09613504574871 -0.5 Z"/><text text-anchor="middle" pointer-events="none" font-size="8px" fill="#000000" x="61.76410379574871" y="3" transform="rotate(180 61.76410379574871 0)" font-family="Helvetica Neue, Helvetica, Arial, sans-serif">-</text></g><g class="relationship" transform="translate(-450.8634086936198 -469.6088827492793) rotate(358.41324452837785)"><path class="b-outline" fill="#A5ABB6" stroke="none" d="M 40 0.5 L 344.19062548821677 0.5 L 344.19062548821677 -0.5 L 40 -0.5 Z M 352.85468798821677 0.5 L 657.0453134764335 0.5 L 657.0453134764335 3.5 L 664.0453134764335 0 L 657.0453134764335 -3.5 L 657.0453134764335 -0.5 L 352.85468798821677 -0.5 Z"/><text text-anchor="middle" pointer-events="none" font-size="8px" fill="#000000" x="348.52265673821677" y="3" font-family="Helvetica Neue, Helvetica, Arial, sans-serif">-</text></g><g class="relationship" transform="translate(207.51515041773547 -140.119435718747) rotate(277.41155394103146)"><path class="b-outline" fill="#A5ABB6" stroke="none" d="M 40 0.5 L 168.13053673138467 0.5 L 168.13053673138467 -0.5 L 40 -0.5 Z M 176.79459923138467 0.5 L 304.92513596276933 0.5 L 304.92513596276933 3.5 L 311.92513596276933 0 L 304.92513596276933 -3.5 L 304.92513596276933 -0.5 L 176.79459923138467 -0.5 Z"/><text text-anchor="middle" pointer-events="none" font-size="8px" fill="#000000" x="172.46256798138467" y="3" font-family="Helvetica Neue, Helvetica, Arial, sans-serif">-</text></g><g class="relationship" transform="translate(-450.8634086936198 -469.6088827492793) rotate(337.49309272893197)"><path class="b-outline" fill="#A5ABB6" stroke="none" d="M 40 0.5 L 236.5228712079766 0.5 L 236.5228712079766 -0.5 L 40 -0.5 Z M 245.1869337079766 0.5 L 441.7098049159532 0.5 L 441.7098049159532 3.5 L 448.7098049159532 0 L 441.7098049159532 -3.5 L 441.7098049159532 -0.5 L 245.1869337079766 -0.5 Z"/><text text-anchor="middle" pointer-events="none" font-size="8px" fill="#000000" x="240.8549024579766" y="3" font-family="Helvetica Neue, Helvetica, Arial, sans-serif">-</text></g><g class="relationship" transform="translate(207.51515041773547 -140.119435718747) rotate(248.17314979837363)"><path class="b-outline" fill="#A5ABB6" stroke="none" d="M 40 0.5 L 270.3961903131671 0.5 L 270.3961903131671 -0.5 L 40 -0.5 Z M 279.0602528131671 0.5 L 509.4564431263342 0.5 L 509.4564431263342 3.5 L 516.4564431263342 0 L 509.4564431263342 -3.5 L 509.4564431263342 -0.5 L 279.0602528131671 -0.5 Z"/><text text-anchor="middle" pointer-events="none" font-size="8px" fill="#000000" x="274.7282215631671" y="3" transform="rotate(180 274.7282215631671 0)" font-family="Helvetica Neue, Helvetica, Arial, sans-serif">-</text></g><g class="relationship" transform="translate(-450.8634086936198 -469.6088827492793) rotate(407.6055753466335)"><path class="b-outline" fill="#A5ABB6" stroke="none" d="M 40 0.5 L 269.7227384215808 0.5 L 269.7227384215808 -0.5 L 40 -0.5 Z M 278.3868009215808 0.5 L 508.1095393431616 0.5 L 508.1095393431616 3.5 L 515.1095393431616 0 L 508.1095393431616 -3.5 L 508.1095393431616 -0.5 L 278.3868009215808 -0.5 Z"/><text text-anchor="middle" pointer-events="none" font-size="8px" fill="#000000" x="274.0547696715808" y="3" font-family="Helvetica Neue, Helvetica, Arial, sans-serif">-</text></g><g class="relationship" transform="translate(207.51515041773547 -140.119435718747) rotate(524.1857229159182)"><path class="b-outline" fill="#A5ABB6" stroke="none" d="M 40 0.5 L 139.80956710070043 0.5 L 139.80956710070043 -0.5 L 40 -0.5 Z M 148.47362960070043 0.5 L 248.28319670140087 0.5 L 248.28319670140087 3.5 L 255.28319670140087 0 L 248.28319670140087 -3.5 L 248.28319670140087 -0.5 L 148.47362960070043 -0.5 Z"/><text text-anchor="middle" pointer-events="none" font-size="8px" fill="#000000" x="144.14159835070043" y="3" transform="rotate(180 144.14159835070043 0)" font-family="Helvetica Neue, Helvetica, Arial, sans-serif">-</text></g><g class="relationship" transform="translate(-450.8634086936198 -469.6088827492793) rotate(414.0346235561835)"><path class="b-outline" fill="#A5ABB6" stroke="none" d="M 40 0.5 L 347.6320768340057 0.5 L 347.6320768340057 -0.5 L 40 -0.5 Z M 356.2961393340057 0.5 L 663.9282161680114 0.5 L 663.9282161680114 3.5 L 670.9282161680114 0 L 663.9282161680114 -3.5 L 663.9282161680114 -0.5 L 356.2961393340057 -0.5 Z"/><text text-anchor="middle" pointer-events="none" font-size="8px" fill="#000000" x="351.9641080840057" y="3" font-family="Helvetica Neue, Helvetica, Arial, sans-serif">-</text></g><g class="relationship" transform="translate(207.51515041773547 -140.119435718747) rotate(494.40408646747534)"><path class="b-outline" fill="#A5ABB6" stroke="none" d="M 40 0.5 L 164.27612616696135 0.5 L 164.27612616696135 -0.5 L 40 -0.5 Z M 172.94018866696135 0.5 L 297.2163148339227 0.5 L 297.2163148339227 3.5 L 304.2163148339227 0 L 297.2163148339227 -3.5 L 297.2163148339227 -0.5 L 172.94018866696135 -0.5 Z"/><text text-anchor="middle" pointer-events="none" font-size="8px" fill="#000000" x="168.60815741696135" y="3" transform="rotate(180 168.60815741696135 0)" font-family="Helvetica Neue, Helvetica, Arial, sans-serif">-</text></g><g class="relationship" transform="translate(-450.8634086936198 -469.6088827492793) rotate(361.3185463172501)"><path class="b-outline" fill="#A5ABB6" stroke="none" d="M 40 0.5 L 221.79797083154088 0.5 L 221.79797083154088 -0.5 L 40 -0.5 Z M 230.46203333154088 0.5 L 412.26000416308176 0.5 L 412.26000416308176 3.5 L 419.26000416308176 0 L 412.26000416308176 -3.5 L 412.26000416308176 -0.5 L 230.46203333154088 -0.5 Z"/><text text-anchor="middle" pointer-events="none" font-size="8px" fill="#000000" x="226.13000208154088" y="3" font-family="Helvetica Neue, Helvetica, Arial, sans-serif">-</text></g><g class="relationship" transform="translate(207.51515041773547 -140.119435718747) rotate(238.00569484658888)"><path class="b-outline" fill="#A5ABB6" stroke="none" d="M 40 0.5 L 180.18892989277848 0.5 L 180.18892989277848 -0.5 L 40 -0.5 Z M 188.85299239277848 0.5 L 329.04192228555695 0.5 L 329.04192228555695 3.5 L 336.04192228555695 0 L 329.04192228555695 -3.5 L 329.04192228555695 -0.5 L 188.85299239277848 -0.5 Z"/><text text-anchor="middle" pointer-events="none" font-size="8px" fill="#000000" x="184.52096114277848" y="3" transform="rotate(180 184.52096114277848 0)" font-family="Helvetica Neue, Helvetica, Arial, sans-serif">-</text></g><g class="relationship" transform="translate(-450.8634086936198 -469.6088827492793) rotate(349.3014079465738)"><path class="b-outline" fill="#A5ABB6" stroke="none" d="M 40 0.5 L 311.38075163591316 0.5 L 311.38075163591316 -0.5 L 40 -0.5 Z M 320.04481413591316 0.5 L 591.4255657718263 0.5 L 591.4255657718263 3.5 L 598.4255657718263 0 L 591.4255657718263 -3.5 L 591.4255657718263 -0.5 L 320.04481413591316 -0.5 Z"/><text text-anchor="middle" pointer-events="none" font-size="8px" fill="#000000" x="315.71278288591316" y="3" font-family="Helvetica Neue, Helvetica, Arial, sans-serif">-</text></g><g class="relationship" transform="translate(207.51515041773547 -140.119435718747) rotate(266.0352902163616)"><path class="b-outline" fill="#A5ABB6" stroke="none" d="M 40 0.5 L 216.70950844441003 0.5 L 216.70950844441003 -0.5 L 40 -0.5 Z M 225.37357094441003 0.5 L 402.08307938882007 0.5 L 402.08307938882007 3.5 L 409.08307938882007 0 L 402.08307938882007 -3.5 L 402.08307938882007 -0.5 L 225.37357094441003 -0.5 Z"/><text text-anchor="middle" pointer-events="none" font-size="8px" fill="#000000" x="221.04153969441003" y="3" transform="rotate(180 221.04153969441003 0)" font-family="Helvetica Neue, Helvetica, Arial, sans-serif">-</text></g><g class="relationship" transform="translate(-450.8634086936198 -469.6088827492793) rotate(381.19202609525865)"><path class="b-outline" fill="#A5ABB6" stroke="none" d="M 40 0.5 L 254.2081530307412 0.5 L 254.2081530307412 -0.5 L 40 -0.5 Z M 262.8722155307412 0.5 L 477.0803685614824 0.5 L 477.0803685614824 3.5 L 484.0803685614824 0 L 477.0803685614824 -3.5 L 477.0803685614824 -0.5 L 262.8722155307412 -0.5 Z"/><text text-anchor="middle" pointer-events="none" font-size="8px" fill="#000000" x="258.5401842807412" y="3" font-family="Helvetica Neue, Helvetica, Arial, sans-serif">-</text></g><g class="relationship" transform="translate(207.51515041773547 -140.119435718747) rotate(219.52302341833092)"><path class="b-outline" fill="#A5ABB6" stroke="none" d="M 40 0.5 L 102.192874938544 0.5 L 102.192874938544 -0.5 L 40 -0.5 Z M 110.856937438544 0.5 L 173.049812377088 0.5 L 173.049812377088 3.5 L 180.049812377088 0 L 173.049812377088 -3.5 L 173.049812377088 -0.5 L 110.856937438544 -0.5 Z"/><text text-anchor="middle" pointer-events="none" font-size="8px" fill="#000000" x="106.524906188544" y="3" transform="rotate(180 106.524906188544 0)" font-family="Helvetica Neue, Helvetica, Arial, sans-serif">-</text></g><g class="relationship" transform="translate(-450.8634086936198 -469.6088827492793) rotate(443.10596414846077)"><path class="b-outline" fill="#A5ABB6" stroke="none" d="M 40 0.5 L 199.02785686232411 0.5 L 199.02785686232411 -0.5 L 40 -0.5 Z M 207.69191936232411 0.5 L 366.71977622464823 0.5 L 366.71977622464823 3.5 L 373.71977622464823 0 L 366.71977622464823 -3.5 L 366.71977622464823 -0.5 L 207.69191936232411 -0.5 Z"/><text text-anchor="middle" pointer-events="none" font-size="8px" fill="#000000" x="203.35988811232411" y="3" font-family="Helvetica Neue, Helvetica, Arial, sans-serif">-</text></g><g class="relationship" transform="translate(207.51515041773547 -140.119435718747) rotate(532.3982702628266)"><path class="b-outline" fill="#A5ABB6" stroke="none" d="M 40 0.5 L 299.22569470772567 0.5 L 299.22569470772567 -0.5 L 40 -0.5 Z M 307.88975720772567 0.5 L 567.1154519154513 0.5 L 567.1154519154513 3.5 L 574.1154519154513 0 L 567.1154519154513 -3.5 L 567.1154519154513 -0.5 L 307.88975720772567 -0.5 Z"/><text text-anchor="middle" pointer-events="none" font-size="8px" fill="#000000" x="303.55772595772567" y="3" transform="rotate(180 303.55772595772567 0)" font-family="Helvetica Neue, Helvetica, Arial, sans-serif">-</text></g></g><g class="layer nodes"><g class="node" aria-label="graph-node334683" transform="translate(2.4988431471989023,-2.284312079241112)"><circle class="b-outline" cx="0" cy="0" r="40" fill="#8DCC93" stroke="#5db665" stroke-width="2px"/><text class="caption" text-anchor="middle" pointer-events="none" x="0" y="5" font-size="10px" fill="#2A2C34" font-family="Helvetica Neue, Helvetica, Arial, sans-serif"> Goals</text></g><g class="node" aria-label="graph-node349777" transform="translate(-450.8634086936198,-469.6088827492793)"><circle class="b-outline" cx="0" cy="0" r="40" fill="#F16667" stroke="#eb2728" stroke-width="2px"/><text class="caption" text-anchor="middle" pointer-events="none" x="0" y="5" font-size="10px" fill="#FFFFFF" font-family="Helvetica Neue, Helvetica, Arial, sans-serif"> 41</text></g><g class="node" aria-label="graph-node349792" transform="translate(207.51515041773547,-140.119435718747)"><circle class="b-outline" cx="0" cy="0" r="40" fill="#F16667" stroke="#eb2728" stroke-width="2px"/><text class="caption" text-anchor="middle" pointer-events="none" x="0" y="5" font-size="10px" fill="#FFFFFF" font-family="Helvetica Neue, Helvetica, Arial, sans-serif"> 49</text></g><g class="node" aria-label="graph-node331444" transform="translate(-282.0645189126826,153.01792302535702)"><circle class="b-outline" cx="0" cy="0" r="40" fill="#8DCC93" stroke="#5db665" stroke-width="2px"/><text class="caption" text-anchor="middle" pointer-events="none" x="0" y="5" font-size="10px" fill="#2A2C34" font-family="Helvetica Neue, Helvetica, Arial, sans-serif"> Electromyogra…</text></g><g class="node" aria-label="graph-node346970" transform="translate(-456.5025654148205,-154.85870897617525)"><circle class="b-outline" cx="0" cy="0" r="40" fill="#8DCC93" stroke="#5db665" stroke-width="2px"/><text class="caption" text-anchor="middle" pointer-events="none" x="0" y="5" font-size="10px" fill="#2A2C34" font-family="Helvetica Neue, Helvetica, Arial, sans-serif"> surgery</text></g><g class="node" aria-label="graph-node312870" transform="translate(-189.79838438750534,-128.6073186210988)"><circle class="b-outline" cx="0" cy="0" r="40" fill="#8DCC93" stroke="#5db665" stroke-width="2px"/><text class="caption" text-anchor="middle" pointer-events="none" x="0" y="0" font-size="10px" fill="#2A2C34" font-family="Helvetica Neue, Helvetica, Arial, sans-serif"> Randomized</text><text class="caption" text-anchor="middle" pointer-events="none" x="0" y="10" font-size="10px" fill="#2A2C34" font-family="Helvetica Neue, Helvetica, Arial, sans-serif"> Controlled Trial</text></g><g class="node" aria-label="graph-node312860" transform="translate(-369.58908960491226,-236.77321454407652)"><circle class="b-outline" cx="0" cy="0" r="40" fill="#8DCC93" stroke="#5db665" stroke-width="2px"/><text class="caption" text-anchor="middle" pointer-events="none" x="0" y="5" font-size="10px" fill="#2A2C34" font-family="Helvetica Neue, Helvetica, Arial, sans-serif"> Clinical Trial</text></g><g class="node" aria-label="graph-node348396" transform="translate(-353.7068490288459,-566.6028176298292)"><circle class="b-outline" cx="0" cy="0" r="40" fill="#8DCC93" stroke="#5db665" stroke-width="2px"/><text class="caption" text-anchor="middle" pointer-events="none" x="0" y="5" font-size="10px" fill="#2A2C34" font-family="Helvetica Neue, Helvetica, Arial, sans-serif"> Chronic Pain</text></g><g class="node" aria-label="graph-node347127" transform="translate(-526.2418800766899,-373.2661361538748)"><circle class="b-outline" cx="0" cy="0" r="40" fill="#8DCC93" stroke="#5db665" stroke-width="2px"/><text class="caption" text-anchor="middle" pointer-events="none" x="0" y="5" font-size="10px" fill="#2A2C34" font-family="Helvetica Neue, Helvetica, Arial, sans-serif"> rehabilitation</text></g><g class="node" aria-label="graph-node316043" transform="translate(-270.8226779268225,-270.87821113998893)"><circle class="b-outline" cx="0" cy="0" r="40" fill="#8DCC93" stroke="#5db665" stroke-width="2px"/><text class="caption" text-anchor="middle" pointer-events="none" x="0" y="5" font-size="10px" fill="#2A2C34" font-family="Helvetica Neue, Helvetica, Arial, sans-serif"> Rehabilitation</text></g><g class="node" aria-label="graph-node344210" transform="translate(-62.129763748670925,-280.69763449867264)"><circle class="b-outline" cx="0" cy="0" r="40" fill="#8DCC93" stroke="#5db665" stroke-width="2px"/><text class="caption" text-anchor="middle" pointer-events="none" x="0" y="5" font-size="10px" fill="#2A2C34" font-family="Helvetica Neue, Helvetica, Arial, sans-serif"> Form</text></g><g class="node" aria-label="graph-node346491" transform="translate(-169.80927001276464,-323.99042299539894)"><circle class="b-outline" cx="0" cy="0" r="40" fill="#8DCC93" stroke="#5db665" stroke-width="2px"/><text class="caption" text-anchor="middle" pointer-events="none" x="0" y="5" font-size="10px" fill="#2A2C34" font-family="Helvetica Neue, Helvetica, Arial, sans-serif"> education</text></g><g class="node" aria-label="graph-node321770" transform="translate(-244.6586243587467,-515.4471026475715)"><circle class="b-outline" cx="0" cy="0" r="40" fill="#8DCC93" stroke="#5db665" stroke-width="2px"/><text class="caption" text-anchor="middle" pointer-events="none" x="0" y="5" font-size="10px" fill="#2A2C34" font-family="Helvetica Neue, Helvetica, Arial, sans-serif"> Problem Solving</text></g><g class="node" aria-label="graph-node323836" transform="translate(-105.72351822216986,25.346151513397494)"><circle class="b-outline" cx="0" cy="0" r="40" fill="#8DCC93" stroke="#5db665" stroke-width="2px"/><text class="caption" text-anchor="middle" pointer-events="none" x="0" y="5" font-size="10px" fill="#2A2C34" font-family="Helvetica Neue, Helvetica, Arial, sans-serif"> Behavior</text></g><g class="node" aria-label="graph-node313995" transform="translate(-408.67449278653226,-358.5202736509986)"><circle class="b-outline" cx="0" cy="0" r="40" fill="#8DCC93" stroke="#5db665" stroke-width="2px"/><text class="caption" text-anchor="middle" pointer-events="none" x="0" y="5" font-size="10px" fill="#2A2C34" font-family="Helvetica Neue, Helvetica, Arial, sans-serif"> Walking</text></g><g class="node" aria-label="graph-node323955" transform="translate(-351.29642584695176,53.624460741443215)"><circle class="b-outline" cx="0" cy="0" r="40" fill="#8DCC93" stroke="#5db665" stroke-width="2px"/><text class="caption" text-anchor="middle" pointer-events="none" x="0" y="0" font-size="10px" fill="#2A2C34" font-family="Helvetica Neue, Helvetica, Arial, sans-serif"> Activities of Daily</text><text class="caption" text-anchor="middle" pointer-events="none" x="0" y="10" font-size="10px" fill="#2A2C34" font-family="Helvetica Neue, Helvetica, Arial, sans-serif"> Living</text></g><g class="node" aria-label="graph-node316782" transform="translate(-231.7533060456071,62.271010532304)"><circle class="b-outline" cx="0" cy="0" r="40" fill="#8DCC93" stroke="#5db665" stroke-width="2px"/><text class="caption" text-anchor="middle" pointer-events="none" x="0" y="5" font-size="10px" fill="#2A2C34" font-family="Helvetica Neue, Helvetica, Arial, sans-serif"> Attention</text></g><g class="node" aria-label="graph-node318866" transform="translate(100.95652272797702,-184.73266815327088)"><circle class="b-outline" cx="0" cy="0" r="40" fill="#8DCC93" stroke="#5db665" stroke-width="2px"/><text class="caption" text-anchor="middle" pointer-events="none" x="0" y="5" font-size="10px" fill="#2A2C34" font-family="Helvetica Neue, Helvetica, Arial, sans-serif"> Environment</text></g><g class="node" aria-label="graph-node318836" transform="translate(16.801708060155782,-108.28321699412119)"><circle class="b-outline" cx="0" cy="0" r="40" fill="#8DCC93" stroke="#5db665" stroke-width="2px"/><text class="caption" text-anchor="middle" pointer-events="none" x="0" y="5" font-size="10px" fill="#2A2C34" font-family="Helvetica Neue, Helvetica, Arial, sans-serif"> Exercise</text></g><g class="node" aria-label="graph-node346069" transform="translate(32.49441894217283,-384.72970017838026)"><circle class="b-outline" cx="0" cy="0" r="40" fill="#8DCC93" stroke="#5db665" stroke-width="2px"/><text class="caption" text-anchor="middle" pointer-events="none" x="0" y="5" font-size="10px" fill="#2A2C34" font-family="Helvetica Neue, Helvetica, Arial, sans-serif"> methods</text></g><g class="node" aria-label="graph-node348398" transform="translate(278.69033531718793,-268.5523325159565)"><circle class="b-outline" cx="0" cy="0" r="40" fill="#8DCC93" stroke="#5db665" stroke-width="2px"/><text class="caption" text-anchor="middle" pointer-events="none" x="0" y="0" font-size="10px" fill="#2A2C34" font-family="Helvetica Neue, Helvetica, Arial, sans-serif"> Musculoskeletal</text><text class="caption" text-anchor="middle" pointer-events="none" x="0" y="10" font-size="10px" fill="#2A2C34" font-family="Helvetica Neue, Helvetica, Arial, sans-serif"> Pain</text></g><g class="node" aria-label="graph-node312876" transform="translate(130.5103338808128,-470.478880855426)"><circle class="b-outline" cx="0" cy="0" r="40" fill="#8DCC93" stroke="#5db665" stroke-width="2px"/><text class="caption" text-anchor="middle" pointer-events="none" x="0" y="5" font-size="10px" fill="#2A2C34" font-family="Helvetica Neue, Helvetica, Arial, sans-serif"> Education</text></g><g class="node" aria-label="graph-node323300" transform="translate(-190.4750470875406,-726.5196406907558)"><circle class="b-outline" cx="0" cy="0" r="40" fill="#8DCC93" stroke="#5db665" stroke-width="2px"/><text class="caption" text-anchor="middle" pointer-events="none" x="0" y="5" font-size="10px" fill="#2A2C34" font-family="Helvetica Neue, Helvetica, Arial, sans-serif"> Risk Factors</text></g><g class="node" aria-label="graph-node344535" transform="translate(103.14495161225963,-680.021561644849)"><circle class="b-outline" cx="0" cy="0" r="40" fill="#8DCC93" stroke="#5db665" stroke-width="2px"/><text class="caption" text-anchor="middle" pointer-events="none" x="0" y="5" font-size="10px" fill="#2A2C34" font-family="Helvetica Neue, Helvetica, Arial, sans-serif"> Knowledge</text></g><g class="node" aria-label="graph-node333197" transform="translate(-499.394940240795,-37.42547139028594)"><circle class="b-outline" cx="0" cy="0" r="40" fill="#8DCC93" stroke="#5db665" stroke-width="2px"/><text class="caption" text-anchor="middle" pointer-events="none" x="0" y="5" font-size="10px" fill="#2A2C34" font-family="Helvetica Neue, Helvetica, Arial, sans-serif"> Population</text></g><g class="node" aria-label="graph-node347132" transform="translate(222.1231774071702,-378.295657540039)"><circle class="b-outline" cx="0" cy="0" r="40" fill="#8DCC93" stroke="#5db665" stroke-width="2px"/><text class="caption" text-anchor="middle" pointer-events="none" x="0" y="5" font-size="10px" fill="#2A2C34" font-family="Helvetica Neue, Helvetica, Arial, sans-serif"> secondary</text></g><g class="node" aria-label="graph-node333498" transform="translate(-300.3315204704409,-326.2425639894841)"><circle class="b-outline" cx="0" cy="0" r="40" fill="#8DCC93" stroke="#5db665" stroke-width="2px"/><text class="caption" text-anchor="middle" pointer-events="none" x="0" y="5" font-size="10px" fill="#2A2C34" font-family="Helvetica Neue, Helvetica, Arial, sans-serif"> Risk</text></g><g class="node" aria-label="graph-node346260" transform="translate(88.44123064908436,56.381621149447646)"><circle class="b-outline" cx="0" cy="0" r="40" fill="#8DCC93" stroke="#5db665" stroke-width="2px"/><text class="caption" text-anchor="middle" pointer-events="none" x="0" y="5" font-size="10px" fill="#2A2C34" font-family="Helvetica Neue, Helvetica, Arial, sans-serif"> history</text></g><g class="node" aria-label="graph-node314472" transform="translate(-233.1871966116196,-179.53322980888123)"><circle class="b-outline" cx="0" cy="0" r="40" fill="#8DCC93" stroke="#5db665" stroke-width="2px"/><text class="caption" text-anchor="middle" pointer-events="none" x="0" y="5" font-size="10px" fill="#2A2C34" font-family="Helvetica Neue, Helvetica, Arial, sans-serif"> History</text></g><g class="node" aria-label="graph-node317396" transform="translate(-23.1211678208516,-216.86976436886098)"><circle class="b-outline" cx="0" cy="0" r="40" fill="#8DCC93" stroke="#5db665" stroke-width="2px"/><text class="caption" text-anchor="middle" pointer-events="none" x="0" y="5" font-size="10px" fill="#2A2C34" font-family="Helvetica Neue, Helvetica, Arial, sans-serif"> Art</text></g><g class="node" aria-label="graph-node324407" transform="translate(329.56286582975355,-388.8618375829767)"><circle class="b-outline" cx="0" cy="0" r="40" fill="#8DCC93" stroke="#5db665" stroke-width="2px"/><text class="caption" text-anchor="middle" pointer-events="none" x="0" y="5" font-size="10px" fill="#2A2C34" font-family="Helvetica Neue, Helvetica, Arial, sans-serif"> Kinesiophobia</text></g><g class="node" aria-label="graph-node321270" transform="translate(-72.63899586370674,-738.5284971631357)"><circle class="b-outline" cx="0" cy="0" r="40" fill="#8DCC93" stroke="#5db665" stroke-width="2px"/><text class="caption" text-anchor="middle" pointer-events="none" x="0" y="5" font-size="10px" fill="#2A2C34" font-family="Helvetica Neue, Helvetica, Arial, sans-serif"> Pain</text></g><g class="node" aria-label="graph-node337031" transform="translate(-559.5521553499674,-220.98372900776482)"><circle class="b-outline" cx="0" cy="0" r="40" fill="#8DCC93" stroke="#5db665" stroke-width="2px"/><text class="caption" text-anchor="middle" pointer-events="none" x="0" y="5" font-size="10px" fill="#2A2C34" font-family="Helvetica Neue, Helvetica, Arial, sans-serif"> Review</text></g><g class="node" aria-label="graph-node324426" transform="translate(-442.0972159481101,-265.285177547822)"><circle class="b-outline" cx="0" cy="0" r="40" fill="#8DCC93" stroke="#5db665" stroke-width="2px"/><text class="caption" text-anchor="middle" pointer-events="none" x="0" y="0" font-size="10px" fill="#2A2C34" font-family="Helvetica Neue, Helvetica, Arial, sans-serif"> Systematic</text><text class="caption" text-anchor="middle" pointer-events="none" x="0" y="10" font-size="10px" fill="#2A2C34" font-family="Helvetica Neue, Helvetica, Arial, sans-serif"> Review</text></g><g class="node" aria-label="graph-node315951" transform="translate(-308.0078909030552,-677.2342747644749)"><circle class="b-outline" cx="0" cy="0" r="40" fill="#8DCC93" stroke="#5db665" stroke-width="2px"/><text class="caption" text-anchor="middle" pointer-events="none" x="0" y="5" font-size="10px" fill="#2A2C34" font-family="Helvetica Neue, Helvetica, Arial, sans-serif"> Back Pain</text></g><g class="node" aria-label="graph-node338957" transform="translate(83.69437916795353,-551.3708444268757)"><circle class="b-outline" cx="0" cy="0" r="40" fill="#8DCC93" stroke="#5db665" stroke-width="2px"/><text class="caption" text-anchor="middle" pointer-events="none" x="0" y="5" font-size="10px" fill="#2A2C34" font-family="Helvetica Neue, Helvetica, Arial, sans-serif"> Low Back Pain</text></g><g class="node" aria-label="graph-node349296" transform="translate(-286.9965756616698,-49.74643687587479)"><circle class="b-outline" cx="0" cy="0" r="40" fill="#8DCC93" stroke="#5db665" stroke-width="2px"/><text class="caption" text-anchor="middle" pointer-events="none" x="0" y="5" font-size="10px" fill="#2A2C34" font-family="Helvetica Neue, Helvetica, Arial, sans-serif"> analysis</text></g><g class="node" aria-label="graph-node332292" transform="translate(-155.00521296551256,134.66219440410225)"><circle class="b-outline" cx="0" cy="0" r="40" fill="#8DCC93" stroke="#5db665" stroke-width="2px"/><text class="caption" text-anchor="middle" pointer-events="none" x="0" y="5" font-size="10px" fill="#2A2C34" font-family="Helvetica Neue, Helvetica, Arial, sans-serif"> Muscles</text></g><g class="node" aria-label="graph-node338012" transform="translate(200.35684899953173,-12.334025705427386)"><circle class="b-outline" cx="0" cy="0" r="40" fill="#8DCC93" stroke="#5db665" stroke-width="2px"/><text class="caption" text-anchor="middle" pointer-events="none" x="0" y="5" font-size="10px" fill="#2A2C34" font-family="Helvetica Neue, Helvetica, Arial, sans-serif"> Meta-Analysis</text></g><g class="node" aria-label="graph-node321331" transform="translate(-223.5150902348789,-403.8109414439883)"><circle class="b-outline" cx="0" cy="0" r="40" fill="#8DCC93" stroke="#5db665" stroke-width="2px"/><text class="caption" text-anchor="middle" pointer-events="none" x="0" y="5" font-size="10px" fill="#2A2C34" font-family="Helvetica Neue, Helvetica, Arial, sans-serif"> Movement</text></g><g class="node" aria-label="graph-node323459" transform="translate(-105.19484360723239,-419.33275067000153)"><circle class="b-outline" cx="0" cy="0" r="40" fill="#8DCC93" stroke="#5db665" stroke-width="2px"/><text class="caption" text-anchor="middle" pointer-events="none" x="0" y="5" font-size="10px" fill="#2A2C34" font-family="Helvetica Neue, Helvetica, Arial, sans-serif"> Affect</text></g><g class="node" aria-label="graph-node328456" transform="translate(-146.87702483347206,-491.9875540845711)"><circle class="b-outline" cx="0" cy="0" r="40" fill="#8DCC93" stroke="#5db665" stroke-width="2px"/><text class="caption" text-anchor="middle" pointer-events="none" x="0" y="5" font-size="10px" fill="#2A2C34" font-family="Helvetica Neue, Helvetica, Arial, sans-serif"> Fear</text></g><g class="node" aria-label="graph-node329704" transform="translate(-117.25771054670503,-162.57678711165647)"><circle class="b-outline" cx="0" cy="0" r="40" fill="#8DCC93" stroke="#5db665" stroke-width="2px"/><text class="caption" text-anchor="middle" pointer-events="none" x="0" y="5" font-size="10px" fill="#2A2C34" font-family="Helvetica Neue, Helvetica, Arial, sans-serif"> Depression</text></g><g class="node" aria-label="graph-node316612" transform="translate(89.94354072020388,-76.87776765704838)"><circle class="b-outline" cx="0" cy="0" r="40" fill="#8DCC93" stroke="#5db665" stroke-width="2px"/><text class="caption" text-anchor="middle" pointer-events="none" x="0" y="5" font-size="10px" fill="#2A2C34" font-family="Helvetica Neue, Helvetica, Arial, sans-serif"> Association</text></g><g class="node" aria-label="graph-node333440" transform="translate(-227.78025151304453,-595.3294367221504)"><circle class="b-outline" cx="0" cy="0" r="40" fill="#8DCC93" stroke="#5db665" stroke-width="2px"/><text class="caption" text-anchor="middle" pointer-events="none" x="0" y="5" font-size="10px" fill="#2A2C34" font-family="Helvetica Neue, Helvetica, Arial, sans-serif"> Role</text></g><g class="node" aria-label="graph-node346976" transform="translate(-37.89614556950734,-549.8975185518814)"><circle class="b-outline" cx="0" cy="0" r="40" fill="#8DCC93" stroke="#5db665" stroke-width="2px"/><text class="caption" text-anchor="middle" pointer-events="none" x="0" y="5" font-size="10px" fill="#2A2C34" font-family="Helvetica Neue, Helvetica, Arial, sans-serif"> therapy</text></g><g class="node" aria-label="graph-node330927" transform="translate(119.06149652100437,-390.4112903474506)"><circle class="b-outline" cx="0" cy="0" r="40" fill="#8DCC93" stroke="#5db665" stroke-width="2px"/><text class="caption" text-anchor="middle" pointer-events="none" x="0" y="5" font-size="10px" fill="#2A2C34" font-family="Helvetica Neue, Helvetica, Arial, sans-serif"> Elements</text></g><g class="node" aria-label="graph-node324062" transform="translate(-337.7351707585928,-166.913674136803)"><circle class="b-outline" cx="0" cy="0" r="40" fill="#8DCC93" stroke="#5db665" stroke-width="2px"/><text class="caption" text-anchor="middle" pointer-events="none" x="0" y="5" font-size="10px" fill="#2A2C34" font-family="Helvetica Neue, Helvetica, Arial, sans-serif"> Research</text></g><g class="node" aria-label="graph-node326623" transform="translate(-67.32263482917081,-341.4696478429477)"><circle class="b-outline" cx="0" cy="0" r="40" fill="#8DCC93" stroke="#5db665" stroke-width="2px"/><text class="caption" text-anchor="middle" pointer-events="none" x="0" y="5" font-size="10px" fill="#2A2C34" font-family="Helvetica Neue, Helvetica, Arial, sans-serif"> Literature</text></g><g class="node" aria-label="graph-node333091" transform="translate(-122.02088578188416,-632.7885944527509)"><circle class="b-outline" cx="0" cy="0" r="40" fill="#8DCC93" stroke="#5db665" stroke-width="2px"/><text class="caption" text-anchor="middle" pointer-events="none" x="0" y="5" font-size="10px" fill="#2A2C34" font-family="Helvetica Neue, Helvetica, Arial, sans-serif"> Thinking</text></g><g class="node" aria-label="graph-node334607" transform="translate(-201.26711494733175,-53.29908785362476)"><circle class="b-outline" cx="0" cy="0" r="40" fill="#8DCC93" stroke="#5db665" stroke-width="2px"/><text class="caption" text-anchor="middle" pointer-events="none" x="0" y="5" font-size="10px" fill="#2A2C34" font-family="Helvetica Neue, Helvetica, Arial, sans-serif"> Life</text></g><g class="node" aria-label="graph-node336983" transform="translate(-322.28107869718195,-460.27581567283244)"><circle class="b-outline" cx="0" cy="0" r="40" fill="#8DCC93" stroke="#5db665" stroke-width="2px"/><text class="caption" text-anchor="middle" pointer-events="none" x="0" y="5" font-size="10px" fill="#2A2C34" font-family="Helvetica Neue, Helvetica, Arial, sans-serif"> Lifting</text></g><g class="node" aria-label="graph-node320396" transform="translate(-159.99915447137943,-254.36780928479334)"><circle class="b-outline" cx="0" cy="0" r="40" fill="#8DCC93" stroke="#5db665" stroke-width="2px"/><text class="caption" text-anchor="middle" pointer-events="none" x="0" y="5" font-size="10px" fill="#2A2C34" font-family="Helvetica Neue, Helvetica, Arial, sans-serif"> Patients</text></g><g class="node" aria-label="graph-node339895" transform="translate(161.95310074915415,-262.4375153596847)"><circle class="b-outline" cx="0" cy="0" r="40" fill="#8DCC93" stroke="#5db665" stroke-width="2px"/><text class="caption" text-anchor="middle" pointer-events="none" x="0" y="5" font-size="10px" fill="#2A2C34" font-family="Helvetica Neue, Helvetica, Arial, sans-serif"> Bias</text></g><g class="node" aria-label="graph-node317284" transform="translate(252.91193347954564,-489.1042970093947)"><circle class="b-outline" cx="0" cy="0" r="40" fill="#8DCC93" stroke="#5db665" stroke-width="2px"/><text class="caption" text-anchor="middle" pointer-events="none" x="0" y="5" font-size="10px" fill="#2A2C34" font-family="Helvetica Neue, Helvetica, Arial, sans-serif"> Spine</text></g><g class="node" aria-label="graph-node332696" transform="translate(0.6230278612860558,-656.6844584611878)"><circle class="b-outline" cx="0" cy="0" r="40" fill="#8DCC93" stroke="#5db665" stroke-width="2px"/><text class="caption" text-anchor="middle" pointer-events="none" x="0" y="5" font-size="10px" fill="#2A2C34" font-family="Helvetica Neue, Helvetica, Arial, sans-serif"> Time</text></g><g class="node" aria-label="graph-node328364" transform="translate(-76.59161162599491,-59.64885714977333)"><circle class="b-outline" cx="0" cy="0" r="40" fill="#8DCC93" stroke="#5db665" stroke-width="2px"/><text class="caption" text-anchor="middle" pointer-events="none" x="0" y="5" font-size="10px" fill="#2A2C34" font-family="Helvetica Neue, Helvetica, Arial, sans-serif"> Lead</text></g><g class="node" aria-label="graph-node317797" transform="translate(-33.337926186714164,105.7965395411318)"><circle class="b-outline" cx="0" cy="0" r="40" fill="#8DCC93" stroke="#5db665" stroke-width="2px"/><text class="caption" text-anchor="middle" pointer-events="none" x="0" y="5" font-size="10px" fill="#2A2C34" font-family="Helvetica Neue, Helvetica, Arial, sans-serif"> Anxiety</text></g><g class="node" aria-label="graph-node324204" transform="translate(8.274989476505839,-459.04087680468245)"><circle class="b-outline" cx="0" cy="0" r="40" fill="#8DCC93" stroke="#5db665" stroke-width="2px"/><text class="caption" text-anchor="middle" pointer-events="none" x="0" y="5" font-size="10px" fill="#2A2C34" font-family="Helvetica Neue, Helvetica, Arial, sans-serif"> Health</text></g><g class="node" aria-label="graph-node344169" transform="translate(176.46463446463093,-588.127781235202)"><circle class="b-outline" cx="0" cy="0" r="40" fill="#8DCC93" stroke="#5db665" stroke-width="2px"/><text class="caption" text-anchor="middle" pointer-events="none" x="0" y="5" font-size="10px" fill="#2A2C34" font-family="Helvetica Neue, Helvetica, Arial, sans-serif"> Address</text></g><g class="node" aria-label="graph-node323411" transform="translate(37.77556364859023,-280.1565472664773)"><circle class="b-outline" cx="0" cy="0" r="40" fill="#8DCC93" stroke="#5db665" stroke-width="2px"/><text class="caption" text-anchor="middle" pointer-events="none" x="0" y="5" font-size="10px" fill="#2A2C34" font-family="Helvetica Neue, Helvetica, Arial, sans-serif"> Work</text></g><g class="node" aria-label="graph-node334500" transform="translate(-401.20317673111094,-58.88036584206134)"><circle class="b-outline" cx="0" cy="0" r="40" fill="#8DCC93" stroke="#5db665" stroke-width="2px"/><text class="caption" text-anchor="middle" pointer-events="none" x="0" y="5" font-size="10px" fill="#2A2C34" font-family="Helvetica Neue, Helvetica, Arial, sans-serif"> Methods</text></g></g></svg>