<svg xmlns="http://www.w3.org/2000/svg" width="710.384521484375" height="812.4876098632812" viewBox="-289.343017578125 -493.31640625 710.384521484375 812.4876098632812"><title>Neo4j Graph Visualization</title><desc>Created using Neo4j (http://www.neo4j.com/)</desc><g class="layer relationships"><g class="relationship" transform="translate(146.63809693506718 -53.92902312453654) rotate(187.05776827826213)"><path class="b-outline" fill="#A5ABB6" stroke="none" d="M 25 0.5 L 57.76274416781699 0.5 L 57.76274416781699 -0.5 L 25 -0.5 Z M 66.42680666781699 0.5 L 99.18955083563398 0.5 L 99.18955083563398 3.5 L 106.18955083563398 0 L 99.18955083563398 -3.5 L 99.18955083563398 -0.5 L 66.42680666781699 -0.5 Z"/><text text-anchor="middle" pointer-events="none" font-size="8px" fill="#000000" x="62.09477541781699" y="3" transform="rotate(180 62.09477541781699 0)" font-family="Helvetica Neue, Helvetica, Arial, sans-serif">-</text></g><g class="relationship" transform="translate(146.63809693506718 -53.92902312453654) rotate(399.23333341049056)"><path class="b-outline" fill="#A5ABB6" stroke="none" d="M 25 0.5 L 68.73137093568305 0.5 L 68.73137093568305 -0.5 L 25 -0.5 Z M 77.39543343568305 0.5 L 121.12680437136609 0.5 L 121.12680437136609 3.5 L 128.1268043713661 0 L 121.12680437136609 -3.5 L 121.12680437136609 -0.5 L 77.39543343568305 -0.5 Z"/><text text-anchor="middle" pointer-events="none" font-size="8px" fill="#000000" x="73.06340218568305" y="3" font-family="Helvetica Neue, Helvetica, Arial, sans-serif">-</text></g><g class="relationship" transform="translate(146.63809693506718 -53.92902312453654) rotate(496.9501155834864)"><path class="b-outline" fill="#A5ABB6" stroke="none" d="M 25 0.5 L 63.63461321164948 0.5 L 63.63461321164948 -0.5 L 25 -0.5 Z M 72.29867571164948 0.5 L 110.93328892329896 0.5 L 110.93328892329896 3.5 L 117.93328892329896 0 L 110.93328892329896 -3.5 L 110.93328892329896 -0.5 L 72.29867571164948 -0.5 Z"/><text text-anchor="middle" pointer-events="none" font-size="8px" fill="#000000" x="67.96664446164948" y="3" transform="rotate(180 67.96664446164948 0)" font-family="Helvetica Neue, Helvetica, Arial, sans-serif">-</text></g><g class="relationship" transform="translate(146.63809693506718 -53.92902312453654) rotate(238.5714783664862)"><path class="b-outline" fill="#A5ABB6" stroke="none" d="M 25 0.5 L 66.52089734350817 0.5 L 66.52089734350817 -0.5 L 25 -0.5 Z M 75.18495984350817 0.5 L 116.70585718701633 0.5 L 116.70585718701633 3.5 L 123.70585718701633 0 L 116.70585718701633 -3.5 L 116.70585718701633 -0.5 L 75.18495984350817 -0.5 Z"/><text text-anchor="middle" pointer-events="none" font-size="8px" fill="#000000" x="70.85292859350817" y="3" transform="rotate(180 70.85292859350817 0)" font-family="Helvetica Neue, Helvetica, Arial, sans-serif">-</text></g><g class="relationship" transform="translate(146.63809693506718 -53.92902312453654) rotate(334.538111493368)"><path class="b-outline" fill="#A5ABB6" stroke="none" d="M 25 0.5 L 84.50796009833363 0.5 L 84.50796009833363 -0.5 L 25 -0.5 Z M 93.17202259833363 0.5 L 152.67998269666725 0.5 L 152.67998269666725 3.5 L 159.67998269666725 0 L 152.67998269666725 -3.5 L 152.67998269666725 -0.5 L 93.17202259833363 -0.5 Z"/><text text-anchor="middle" pointer-events="none" font-size="8px" fill="#000000" x="88.83999134833363" y="3" font-family="Helvetica Neue, Helvetica, Arial, sans-serif">-</text></g><g class="relationship" transform="translate(146.63809693506718 -53.92902312453654) rotate(465.1847098082203)"><path class="b-outline" fill="#A5ABB6" stroke="none" d="M 25 0.5 L 84.88352473235767 0.5 L 84.88352473235767 -0.5 L 25 -0.5 Z M 93.54758723235767 0.5 L 153.43111196471534 0.5 L 153.43111196471534 3.5 L 160.43111196471534 0 L 153.43111196471534 -3.5 L 153.43111196471534 -0.5 L 93.54758723235767 -0.5 Z"/><text text-anchor="middle" pointer-events="none" font-size="8px" fill="#000000" x="89.21555598235767" y="3" transform="rotate(180 89.21555598235767 0)" font-family="Helvetica Neue, Helvetica, Arial, sans-serif">-</text></g><g class="relationship" transform="translate(146.63809693506718 -53.92902312453654) rotate(188.54852908960487)"><path class="b-outline" fill="#A5ABB6" stroke="none" d="M 25 0.5 L 107.24152546286498 0.5 L 107.24152546286498 -0.5 L 25 -0.5 Z M 115.90558796286498 0.5 L 198.14711342572997 0.5 L 198.14711342572997 3.5 L 205.14711342572997 0 L 198.14711342572997 -3.5 L 198.14711342572997 -0.5 L 115.90558796286498 -0.5 Z"/><text text-anchor="middle" pointer-events="none" font-size="8px" fill="#000000" x="111.57355671286498" y="3" transform="rotate(180 111.57355671286498 0)" font-family="Helvetica Neue, Helvetica, Arial, sans-serif">-</text></g><g class="relationship" transform="translate(146.63809693506718 -53.92902312453654) rotate(270.2043060339031)"><path class="b-outline" fill="#A5ABB6" stroke="none" d="M 25 0.5 L 86.53473692923443 0.5 L 86.53473692923443 -0.5 L 25 -0.5 Z M 95.19879942923443 0.5 L 156.73353635846885 0.5 L 156.73353635846885 3.5 L 163.73353635846885 0 L 156.73353635846885 -3.5 L 156.73353635846885 -0.5 L 95.19879942923443 -0.5 Z"/><text text-anchor="middle" pointer-events="none" font-size="8px" fill="#000000" x="90.86676817923443" y="3" font-family="Helvetica Neue, Helvetica, Arial, sans-serif">-</text></g><g class="relationship" transform="translate(146.63809693506718 -53.92902312453654) rotate(523.4276606591812)"><path class="b-outline" fill="#A5ABB6" stroke="none" d="M 25 0.5 L 93.87257980768102 0.5 L 93.87257980768102 -0.5 L 25 -0.5 Z M 102.53664230768102 0.5 L 171.40922211536204 0.5 L 171.40922211536204 3.5 L 178.40922211536204 0 L 171.40922211536204 -3.5 L 171.40922211536204 -0.5 L 102.53664230768102 -0.5 Z"/><text text-anchor="middle" pointer-events="none" font-size="8px" fill="#000000" x="98.20461105768102" y="3" transform="rotate(180 98.20461105768102 0)" font-family="Helvetica Neue, Helvetica, Arial, sans-serif">-</text></g><g class="relationship" transform="translate(146.63809693506718 -53.92902312453654) rotate(302.30887416357655)"><path class="b-outline" fill="#A5ABB6" stroke="none" d="M 25 0.5 L 76.50440995260358 0.5 L 76.50440995260358 -0.5 L 25 -0.5 Z M 85.16847245260358 0.5 L 136.67288240520716 0.5 L 136.67288240520716 3.5 L 143.67288240520716 0 L 136.67288240520716 -3.5 L 136.67288240520716 -0.5 L 85.16847245260358 -0.5 Z"/><text text-anchor="middle" pointer-events="none" font-size="8px" fill="#000000" x="80.83644120260358" y="3" font-family="Helvetica Neue, Helvetica, Arial, sans-serif">-</text></g><g class="relationship" transform="translate(-59.75676886009385 -217.62568716325487) rotate(353.10607901083847)"><path class="b-outline" fill="#A5ABB6" stroke="none" d="M 25 0.5 L 96.45588821270586 0.5 L 96.45588821270586 -0.5 L 25 -0.5 Z M 105.11995071270586 0.5 L 176.57583892541172 0.5 L 176.57583892541172 3.5 L 183.57583892541172 0 L 176.57583892541172 -3.5 L 176.57583892541172 -0.5 L 105.11995071270586 -0.5 Z"/><text text-anchor="middle" pointer-events="none" font-size="8px" fill="#000000" x="100.78791946270586" y="3" font-family="Helvetica Neue, Helvetica, Arial, sans-serif">-</text></g><g class="relationship" transform="translate(-59.75676886009385 -217.62568716325487) rotate(459.29622677608745)"><path class="b-outline" fill="#A5ABB6" stroke="none" d="M 25 0.5 L 57.77258399910397 0.5 L 57.77258399910397 -0.5 L 25 -0.5 Z M 66.43664649910397 0.5 L 99.20923049820794 0.5 L 99.20923049820794 3.5 L 106.20923049820794 0 L 99.20923049820794 -3.5 L 99.20923049820794 -0.5 L 66.43664649910397 -0.5 Z"/><text text-anchor="middle" pointer-events="none" font-size="8px" fill="#000000" x="62.10461524910397" y="3" transform="rotate(180 62.10461524910397 0)" font-family="Helvetica Neue, Helvetica, Arial, sans-serif">-</text></g><g class="relationship" transform="translate(-59.75676886009385 -217.62568716325487) rotate(447.047515287946)"><path class="b-outline" fill="#A5ABB6" stroke="none" d="M 25 0.5 L 103.17241616951547 0.5 L 103.17241616951547 -0.5 L 25 -0.5 Z M 111.83647866951547 0.5 L 190.00889483903094 0.5 L 190.00889483903094 3.5 L 197.00889483903094 0 L 190.00889483903094 -3.5 L 190.00889483903094 -0.5 L 111.83647866951547 -0.5 Z"/><text text-anchor="middle" pointer-events="none" font-size="8px" fill="#000000" x="107.50444741951547" y="3" font-family="Helvetica Neue, Helvetica, Arial, sans-serif">-</text></g><g class="relationship" transform="translate(-59.75676886009385 -217.62568716325487) rotate(212.13924613217876)"><path class="b-outline" fill="#A5ABB6" stroke="none" d="M 25 0.5 L 67.30270489024277 0.5 L 67.30270489024277 -0.5 L 25 -0.5 Z M 75.96676739024277 0.5 L 118.26947228048553 0.5 L 118.26947228048553 3.5 L 125.26947228048553 0 L 118.26947228048553 -3.5 L 118.26947228048553 -0.5 L 75.96676739024277 -0.5 Z"/><text text-anchor="middle" pointer-events="none" font-size="8px" fill="#000000" x="71.63473614024277" y="3" transform="rotate(180 71.63473614024277 0)" font-family="Helvetica Neue, Helvetica, Arial, sans-serif">-</text></g><g class="relationship" transform="translate(-59.75676886009385 -217.62568716325487) rotate(375.9419718998182)"><path class="b-outline" fill="#A5ABB6" stroke="none" d="M 25 0.5 L 59.172179965350466 0.5 L 59.172179965350466 -0.5 L 25 -0.5 Z M 67.83624246535047 0.5 L 102.00842243070093 0.5 L 102.00842243070093 3.5 L 109.00842243070093 0 L 102.00842243070093 -3.5 L 102.00842243070093 -0.5 L 67.83624246535047 -0.5 Z"/><text text-anchor="middle" pointer-events="none" font-size="8px" fill="#000000" x="63.504211215350466" y="3" font-family="Helvetica Neue, Helvetica, Arial, sans-serif">-</text></g><g class="relationship" transform="translate(-59.75676886009385 -217.62568716325487) rotate(422.6911129539228)"><path class="b-outline" fill="#A5ABB6" stroke="none" d="M 25 0.5 L 75.21228424336417 0.5 L 75.21228424336417 -0.5 L 25 -0.5 Z M 83.87634674336417 0.5 L 134.08863098672833 0.5 L 134.08863098672833 3.5 L 141.08863098672833 0 L 134.08863098672833 -3.5 L 134.08863098672833 -0.5 L 83.87634674336417 -0.5 Z"/><text text-anchor="middle" pointer-events="none" font-size="8px" fill="#000000" x="79.54431549336417" y="3" font-family="Helvetica Neue, Helvetica, Arial, sans-serif">-</text></g><g class="relationship" transform="translate(352.71186647652803 -309.48794390424484) rotate(279.8704222708737)"><path class="b-outline" fill="#A5ABB6" stroke="none" d="M 25 0.5 L 63.13261521834342 0.5 L 63.13261521834342 -0.5 L 25 -0.5 Z M 71.79667771834342 0.5 L 109.92929293668683 0.5 L 109.92929293668683 3.5 L 116.92929293668683 0 L 109.92929293668683 -3.5 L 109.92929293668683 -0.5 L 71.79667771834342 -0.5 Z"/><text text-anchor="middle" pointer-events="none" font-size="8px" fill="#000000" x="67.46464646834342" y="3" font-family="Helvetica Neue, Helvetica, Arial, sans-serif">-</text></g><g class="relationship" transform="translate(352.71186647652803 -309.48794390424484) rotate(224.1076065075482)"><path class="b-outline" fill="#A5ABB6" stroke="none" d="M 25 0.5 L 65.66457251888113 0.5 L 65.66457251888113 -0.5 L 25 -0.5 Z M 74.32863501888113 0.5 L 114.99320753776226 0.5 L 114.99320753776226 3.5 L 121.99320753776226 0 L 114.99320753776226 -3.5 L 114.99320753776226 -0.5 L 74.32863501888113 -0.5 Z"/><text text-anchor="middle" pointer-events="none" font-size="8px" fill="#000000" x="69.99660376888113" y="3" transform="rotate(180 69.99660376888113 0)" font-family="Helvetica Neue, Helvetica, Arial, sans-serif">-</text></g><g class="relationship" transform="translate(352.71186647652803 -309.48794390424484) rotate(462.58586858591013)"><path class="b-outline" fill="#A5ABB6" stroke="none" d="M 25 0.5 L 82.41814901240022 0.5 L 82.41814901240022 -0.5 L 25 -0.5 Z M 91.08221151240022 0.5 L 148.50036052480044 0.5 L 148.50036052480044 3.5 L 155.50036052480044 0 L 148.50036052480044 -3.5 L 148.50036052480044 -0.5 L 91.08221151240022 -0.5 Z"/><text text-anchor="middle" pointer-events="none" font-size="8px" fill="#000000" x="86.75018026240022" y="3" transform="rotate(180 86.75018026240022 0)" font-family="Helvetica Neue, Helvetica, Arial, sans-serif">-</text></g><g class="relationship" transform="translate(352.71186647652803 -309.48794390424484) rotate(495.7309974618611)"><path class="b-outline" fill="#A5ABB6" stroke="none" d="M 25 0.5 L 73.11037679436829 0.5 L 73.11037679436829 -0.5 L 25 -0.5 Z M 81.77443929436829 0.5 L 129.88481608873659 0.5 L 129.88481608873659 3.5 L 136.88481608873659 0 L 129.88481608873659 -3.5 L 129.88481608873659 -0.5 L 81.77443929436829 -0.5 Z"/><text text-anchor="middle" pointer-events="none" font-size="8px" fill="#000000" x="77.44240804436829" y="3" transform="rotate(180 77.44240804436829 0)" font-family="Helvetica Neue, Helvetica, Arial, sans-serif">-</text></g><g class="relationship" transform="translate(352.71186647652803 -309.48794390424484) rotate(521.9778438638766)"><path class="b-outline" fill="#A5ABB6" stroke="none" d="M 25 0.5 L 100.16712824907603 0.5 L 100.16712824907603 -0.5 L 25 -0.5 Z M 108.83119074907603 0.5 L 183.99831899815206 0.5 L 183.99831899815206 3.5 L 190.99831899815206 0 L 183.99831899815206 -3.5 L 183.99831899815206 -0.5 L 108.83119074907603 -0.5 Z"/><text text-anchor="middle" pointer-events="none" font-size="8px" fill="#000000" x="104.49915949907603" y="3" transform="rotate(180 104.49915949907603 0)" font-family="Helvetica Neue, Helvetica, Arial, sans-serif">-</text></g><g class="relationship" transform="translate(-87.17287661066135 122.4507531268404) rotate(182.44284366905492)"><path class="b-outline" fill="#A5ABB6" stroke="none" d="M 25 0.5 L 71.32496832680918 0.5 L 71.32496832680918 -0.5 L 25 -0.5 Z M 79.98903082680918 0.5 L 126.31399915361837 0.5 L 126.31399915361837 3.5 L 133.31399915361837 0 L 126.31399915361837 -3.5 L 126.31399915361837 -0.5 L 79.98903082680918 -0.5 Z"/><text text-anchor="middle" pointer-events="none" font-size="8px" fill="#000000" x="75.65699957680918" y="3" transform="rotate(180 75.65699957680918 0)" font-family="Helvetica Neue, Helvetica, Arial, sans-serif">-</text></g><g class="relationship" transform="translate(-87.17287661066135 122.4507531268404) rotate(219.53417933478545)"><path class="b-outline" fill="#A5ABB6" stroke="none" d="M 25 0.5 L 68.96309655936653 0.5 L 68.96309655936653 -0.5 L 25 -0.5 Z M 77.62715905936653 0.5 L 121.59025561873307 0.5 L 121.59025561873307 3.5 L 128.59025561873307 0 L 121.59025561873307 -3.5 L 121.59025561873307 -0.5 L 77.62715905936653 -0.5 Z"/><text text-anchor="middle" pointer-events="none" font-size="8px" fill="#000000" x="73.29512780936653" y="3" transform="rotate(180 73.29512780936653 0)" font-family="Helvetica Neue, Helvetica, Arial, sans-serif">-</text></g><g class="relationship" transform="translate(-87.17287661066135 122.4507531268404) rotate(506.1411788846808)"><path class="b-outline" fill="#A5ABB6" stroke="none" d="M 25 0.5 L 71.93601273626763 0.5 L 71.93601273626763 -0.5 L 25 -0.5 Z M 80.60007523626763 0.5 L 127.53608797253526 0.5 L 127.53608797253526 3.5 L 134.53608797253526 0 L 127.53608797253526 -3.5 L 127.53608797253526 -0.5 L 80.60007523626763 -0.5 Z"/><text text-anchor="middle" pointer-events="none" font-size="8px" fill="#000000" x="76.26804398626763" y="3" transform="rotate(180 76.26804398626763 0)" font-family="Helvetica Neue, Helvetica, Arial, sans-serif">-</text></g><g class="relationship" transform="translate(-87.17287661066135 122.4507531268404) rotate(360.79711080872727)"><path class="b-outline" fill="#A5ABB6" stroke="none" d="M 25 0.5 L 84.79728183725881 0.5 L 84.79728183725881 -0.5 L 25 -0.5 Z M 93.46134433725881 0.5 L 153.25862617451762 0.5 L 153.25862617451762 3.5 L 160.25862617451762 0 L 153.25862617451762 -3.5 L 153.25862617451762 -0.5 L 93.46134433725881 -0.5 Z"/><text text-anchor="middle" pointer-events="none" font-size="8px" fill="#000000" x="89.12931308725881" y="3" font-family="Helvetica Neue, Helvetica, Arial, sans-serif">-</text></g><g class="relationship" transform="translate(-87.17287661066135 122.4507531268404) rotate(271.69199257318166)"><path class="b-outline" fill="#A5ABB6" stroke="none" d="M 25 0.5 L 97.50913038694257 0.5 L 97.50913038694257 -0.5 L 25 -0.5 Z M 106.17319288694257 0.5 L 178.68232327388515 0.5 L 178.68232327388515 3.5 L 185.68232327388515 0 L 178.68232327388515 -3.5 L 178.68232327388515 -0.5 L 106.17319288694257 -0.5 Z"/><text text-anchor="middle" pointer-events="none" font-size="8px" fill="#000000" x="101.84116163694257" y="3" font-family="Helvetica Neue, Helvetica, Arial, sans-serif">-</text></g><g class="relationship" transform="translate(-87.17287661066135 122.4507531268404) rotate(298.29202095301787)"><path class="b-outline" fill="#A5ABB6" stroke="none" d="M 25 0.5 L 101.47492924624073 0.5 L 101.47492924624073 -0.5 L 25 -0.5 Z M 110.13899174624073 0.5 L 186.61392099248147 0.5 L 186.61392099248147 3.5 L 193.61392099248147 0 L 186.61392099248147 -3.5 L 186.61392099248147 -0.5 L 110.13899174624073 -0.5 Z"/><text text-anchor="middle" pointer-events="none" font-size="8px" fill="#000000" x="105.80696049624073" y="3" font-family="Helvetica Neue, Helvetica, Arial, sans-serif">-</text></g><g class="relationship" transform="translate(-87.17287661066135 122.4507531268404) rotate(469.8573911122376)"><path class="b-outline" fill="#A5ABB6" stroke="none" d="M 25 0.5 L 71.70320433842087 0.5 L 71.70320433842087 -0.5 L 25 -0.5 Z M 80.36726683842087 0.5 L 127.07047117684175 0.5 L 127.07047117684175 3.5 L 134.07047117684175 0 L 127.07047117684175 -3.5 L 127.07047117684175 -0.5 L 80.36726683842087 -0.5 Z"/><text text-anchor="middle" pointer-events="none" font-size="8px" fill="#000000" x="76.03523558842087" y="3" transform="rotate(180 76.03523558842087 0)" font-family="Helvetica Neue, Helvetica, Arial, sans-serif">-</text></g><g class="relationship" transform="translate(-87.17287661066135 122.4507531268404) rotate(328.6496607170278)"><path class="b-outline" fill="#A5ABB6" stroke="none" d="M 25 0.5 L 67.9061317486785 0.5 L 67.9061317486785 -0.5 L 25 -0.5 Z M 76.5701942486785 0.5 L 119.47632599735701 0.5 L 119.47632599735701 3.5 L 126.47632599735701 0 L 119.47632599735701 -3.5 L 119.47632599735701 -0.5 L 76.5701942486785 -0.5 Z"/><text text-anchor="middle" pointer-events="none" font-size="8px" fill="#000000" x="72.2381629986785" y="3" font-family="Helvetica Neue, Helvetica, Arial, sans-serif">-</text></g><g class="relationship" transform="translate(-87.17287661066135 122.4507531268404) rotate(433.5034989190563)"><path class="b-outline" fill="#A5ABB6" stroke="none" d="M 25 0.5 L 71.80633643984724 0.5 L 71.80633643984724 -0.5 L 25 -0.5 Z M 80.47039893984724 0.5 L 127.27673537969449 0.5 L 127.27673537969449 3.5 L 134.2767353796945 0 L 127.27673537969449 -3.5 L 127.27673537969449 -0.5 L 80.47039893984724 -0.5 Z"/><text text-anchor="middle" pointer-events="none" font-size="8px" fill="#000000" x="76.13836768984724" y="3" font-family="Helvetica Neue, Helvetica, Arial, sans-serif">-</text></g><g class="relationship" transform="translate(-87.17287661066135 122.4507531268404) rotate(288.1719355458697)"><path class="b-outline" fill="#A5ABB6" stroke="none" d="M 25 0.5 L 54.455694526659904 0.5 L 54.455694526659904 -0.5 L 25 -0.5 Z M 63.119757026659904 0.5 L 92.57545155331981 0.5 L 92.57545155331981 3.5 L 99.57545155331981 0 L 92.57545155331981 -3.5 L 92.57545155331981 -0.5 L 63.119757026659904 -0.5 Z"/><text text-anchor="middle" pointer-events="none" font-size="8px" fill="#000000" x="58.787725776659904" y="3" font-family="Helvetica Neue, Helvetica, Arial, sans-serif">-</text></g><g class="relationship" transform="translate(-87.17287661066135 122.4507531268404) rotate(396.5116625780425)"><path class="b-outline" fill="#A5ABB6" stroke="none" d="M 25 0.5 L 69.25339661149866 0.5 L 69.25339661149866 -0.5 L 25 -0.5 Z M 77.91745911149866 0.5 L 122.17085572299732 0.5 L 122.17085572299732 3.5 L 129.17085572299732 0 L 122.17085572299732 -3.5 L 122.17085572299732 -0.5 L 77.91745911149866 -0.5 Z"/><text text-anchor="middle" pointer-events="none" font-size="8px" fill="#000000" x="73.58542786149866" y="3" font-family="Helvetica Neue, Helvetica, Arial, sans-serif">-</text></g></g><g class="layer nodes"><g class="node" aria-label="graph-node333440" transform="translate(16.44259913082496,-70.04828489302194)"><circle class="b-outline" cx="0" cy="0" r="25" fill="#8DCC93" stroke="#5db665" stroke-width="2px"/><text class="caption" text-anchor="middle" pointer-events="none" x="0" y="5" font-size="10px" fill="#2A2C34" font-family="Helvetica Neue, Helvetica, Arial, sans-serif"> Role</text></g><g class="node" aria-label="graph-node349797" transform="translate(146.63809693506718,-53.92902312453654)"><circle class="b-outline" cx="0" cy="0" r="25" fill="#F16667" stroke="#eb2728" stroke-width="2px"/><text class="caption" text-anchor="middle" pointer-events="none" x="0" y="5" font-size="10px" fill="#FFFFFF" font-family="Helvetica Neue, Helvetica, Arial, sans-serif"> 21</text></g><g class="node" aria-label="graph-node332858" transform="translate(265.24654515976204,42.920624405624864)"><circle class="b-outline" cx="0" cy="0" r="25" fill="#8DCC93" stroke="#5db665" stroke-width="2px"/><text class="caption" text-anchor="middle" pointer-events="none" x="0" y="0" font-size="10px" fill="#2A2C34" font-family="Helvetica Neue, Helvetica, Arial, sans-serif"> Motor</text><text class="caption" text-anchor="middle" pointer-events="none" x="0" y="10" font-size="10px" fill="#2A2C34" font-family="Helvetica Neue, Helvetica, Arial, sans-serif"> Activity</text></g><g class="node" aria-label="graph-node323836" transform="translate(42.18821753979227,43.642221495708945)"><circle class="b-outline" cx="0" cy="0" r="25" fill="#8DCC93" stroke="#5db665" stroke-width="2px"/><text class="caption" text-anchor="middle" pointer-events="none" x="0" y="5" font-size="10px" fill="#2A2C34" font-family="Helvetica Neue, Helvetica, Arial, sans-serif"> Behavior</text></g><g class="node" aria-label="graph-node328456" transform="translate(69.09773832703793,-180.8184424969315)"><circle class="b-outline" cx="0" cy="0" r="25" fill="#8DCC93" stroke="#5db665" stroke-width="2px"/><text class="caption" text-anchor="middle" pointer-events="none" x="0" y="5" font-size="10px" fill="#2A2C34" font-family="Helvetica Neue, Helvetica, Arial, sans-serif"> Fear</text></g><g class="node" aria-label="graph-node328321" transform="translate(313.38038036006606,-133.3249104680171)"><circle class="b-outline" cx="0" cy="0" r="25" fill="#8DCC93" stroke="#5db665" stroke-width="2px"/><text class="caption" text-anchor="middle" pointer-events="none" x="0" y="5" font-size="10px" fill="#2A2C34" font-family="Helvetica Neue, Helvetica, Arial, sans-serif"> Language</text></g><g class="node" aria-label="graph-node313995" transform="translate(98.06782149258026,125.028026549154)"><circle class="b-outline" cx="0" cy="0" r="25" fill="#8DCC93" stroke="#5db665" stroke-width="2px"/><text class="caption" text-anchor="middle" pointer-events="none" x="0" y="5" font-size="10px" fill="#2A2C34" font-family="Helvetica Neue, Helvetica, Arial, sans-serif"> Walking</text></g><g class="node" aria-label="graph-node313330" transform="translate(-80.95215459630529,-88.13971189401936)"><circle class="b-outline" cx="0" cy="0" r="25" fill="#8DCC93" stroke="#5db665" stroke-width="2px"/><text class="caption" text-anchor="middle" pointer-events="none" x="0" y="5" font-size="10px" fill="#2A2C34" font-family="Helvetica Neue, Helvetica, Arial, sans-serif"> Gait</text></g><g class="node" aria-label="graph-node318836" transform="translate(147.3110840013348,-242.66135960872816)"><circle class="b-outline" cx="0" cy="0" r="25" fill="#8DCC93" stroke="#5db665" stroke-width="2px"/><text class="caption" text-anchor="middle" pointer-events="none" x="0" y="5" font-size="10px" fill="#2A2C34" font-family="Helvetica Neue, Helvetica, Arial, sans-serif"> Exercise</text></g><g class="node" aria-label="graph-node326611" transform="translate(-48.32158429131764,4.088511618703877)"><circle class="b-outline" cx="0" cy="0" r="25" fill="#8DCC93" stroke="#5db665" stroke-width="2px"/><text class="caption" text-anchor="middle" pointer-events="none" x="0" y="5" font-size="10px" fill="#2A2C34" font-family="Helvetica Neue, Helvetica, Arial, sans-serif"> Respect</text></g><g class="node" aria-label="graph-node323459" transform="translate(236.79092899384204,-196.48781145644955)"><circle class="b-outline" cx="0" cy="0" r="25" fill="#8DCC93" stroke="#5db665" stroke-width="2px"/><text class="caption" text-anchor="middle" pointer-events="none" x="0" y="5" font-size="10px" fill="#2A2C34" font-family="Helvetica Neue, Helvetica, Arial, sans-serif"> Affect</text></g><g class="node" aria-label="graph-node349800" transform="translate(-59.75676886009385,-217.62568716325487)"><circle class="b-outline" cx="0" cy="0" r="25" fill="#F16667" stroke="#eb2728" stroke-width="2px"/><text class="caption" text-anchor="middle" pointer-events="none" x="0" y="5" font-size="10px" fill="#FFFFFF" font-family="Helvetica Neue, Helvetica, Arial, sans-serif"> 26</text></g><g class="node" aria-label="graph-node317837" transform="translate(-186.99860584865596,-297.56584740347324)"><circle class="b-outline" cx="0" cy="0" r="25" fill="#8DCC93" stroke="#5db665" stroke-width="2px"/><text class="caption" text-anchor="middle" pointer-events="none" x="0" y="5" font-size="10px" fill="#2A2C34" font-family="Helvetica Neue, Helvetica, Arial, sans-serif"> Ethics</text></g><g class="node" aria-label="graph-node314944" transform="translate(377.0414618931342,-449.3163922985974)"><circle class="b-outline" cx="0" cy="0" r="25" fill="#8DCC93" stroke="#5db665" stroke-width="2px"/><text class="caption" text-anchor="middle" pointer-events="none" x="0" y="5" font-size="10px" fill="#2A2C34" font-family="Helvetica Neue, Helvetica, Arial, sans-serif"> Family</text></g><g class="node" aria-label="graph-node349807" transform="translate(352.71186647652803,-309.48794390424484)"><circle class="b-outline" cx="0" cy="0" r="25" fill="#57C7E3" stroke="#23b3d7" stroke-width="2px"/><text class="caption" text-anchor="middle" pointer-events="none" x="0" y="5" font-size="10px" fill="#2A2C34" font-family="Helvetica Neue, Helvetica, Arial, sans-serif"> 5</text></g><g class="node" aria-label="graph-node338502" transform="translate(247.165759949947,-411.79641109694234)"><circle class="b-outline" cx="0" cy="0" r="25" fill="#8DCC93" stroke="#5db665" stroke-width="2px"/><text class="caption" text-anchor="middle" pointer-events="none" x="0" y="5" font-size="10px" fill="#2A2C34" font-family="Helvetica Neue, Helvetica, Arial, sans-serif"> Consens…</text></g><g class="node" aria-label="graph-node333917" transform="translate(-245.34300597092536,115.70297525785055)"><circle class="b-outline" cx="0" cy="0" r="25" fill="#8DCC93" stroke="#5db665" stroke-width="2px"/><text class="caption" text-anchor="middle" pointer-events="none" x="0" y="5" font-size="10px" fill="#2A2C34" font-family="Helvetica Neue, Helvetica, Arial, sans-serif"> Jogging</text></g><g class="node" aria-label="graph-node349811" transform="translate(-87.17287661066135,122.4507531268404)"><circle class="b-outline" cx="0" cy="0" r="25" fill="#57C7E3" stroke="#23b3d7" stroke-width="2px"/><text class="caption" text-anchor="middle" pointer-events="none" x="0" y="5" font-size="10px" fill="#2A2C34" font-family="Helvetica Neue, Helvetica, Arial, sans-serif"> 62</text></g><g class="node" aria-label="graph-node337663" transform="translate(-205.62859311890534,24.684655487902717)"><circle class="b-outline" cx="0" cy="0" r="25" fill="#8DCC93" stroke="#5db665" stroke-width="2px"/><text class="caption" text-anchor="middle" pointer-events="none" x="0" y="0" font-size="10px" fill="#2A2C34" font-family="Helvetica Neue, Helvetica, Arial, sans-serif"> Conflict of</text><text class="caption" text-anchor="middle" pointer-events="none" x="0" y="10" font-size="10px" fill="#2A2C34" font-family="Helvetica Neue, Helvetica, Arial, sans-serif"> Interes</text></g><g class="node" aria-label="graph-node321018" transform="translate(-219.65370623842637,211.33603394835555)"><circle class="b-outline" cx="0" cy="0" r="25" fill="#8DCC93" stroke="#5db665" stroke-width="2px"/><text class="caption" text-anchor="middle" pointer-events="none" x="0" y="0" font-size="10px" fill="#2A2C34" font-family="Helvetica Neue, Helvetica, Arial, sans-serif"> Stair</text><text class="caption" text-anchor="middle" pointer-events="none" x="0" y="10" font-size="10px" fill="#2A2C34" font-family="Helvetica Neue, Helvetica, Arial, sans-serif"> Climbi…</text></g><g class="node" aria-label="graph-node322753" transform="translate(-141.2059655057201,272.06305243702786)"><circle class="b-outline" cx="0" cy="0" r="25" fill="#8DCC93" stroke="#5db665" stroke-width="2px"/><text class="caption" text-anchor="middle" pointer-events="none" x="0" y="5" font-size="10px" fill="#2A2C34" font-family="Helvetica Neue, Helvetica, Arial, sans-serif"> Running</text></g><g class="node" aria-label="graph-node332614" transform="translate(-41.945165903675914,275.1711925493959)"><circle class="b-outline" cx="0" cy="0" r="25" fill="#8DCC93" stroke="#5db665" stroke-width="2px"/><text class="caption" text-anchor="middle" pointer-events="none" x="0" y="5" font-size="10px" fill="#2A2C34" font-family="Helvetica Neue, Helvetica, Arial, sans-serif"> Projection</text></g><g class="node" aria-label="graph-node325100" transform="translate(36.73975444880263,214.1803155278593)"><circle class="b-outline" cx="0" cy="0" r="25" fill="#8DCC93" stroke="#5db665" stroke-width="2px"/><text class="caption" text-anchor="middle" pointer-events="none" x="0" y="5" font-size="10px" fill="#2A2C34" font-family="Helvetica Neue, Helvetica, Arial, sans-serif"> Orientati…</text></g></g></svg>