<?xml version="1.0" standalone="yes"?><svg xmlns="http://www.w3.org/2000/svg" width="556.5442504882812" height="698.5406494140625" viewBox="-170.81732177734375 -291.4898986816406 556.5442504882812 698.5406494140625" style="zoom: 1;"><title>Neo4j Graph Visualization</title><desc>Created using Neo4j (http://www.neo4j.com/)</desc><g class="layer relationships"><g class="relationship" transform="translate(103.40506799004018 173.11841867407873) rotate(493.7232857606317)"><path class="b-outline" fill="#A5ABB6" stroke="none" d="M 40 0.5 L 57.877072036011384 0.5 L 57.877072036011384 -0.5 L 40 -0.5 Z M 63.877072036011384 0.5 L 81.75414407202277 0.5 L 81.75414407202277 3.5 L 88.75414407202277 0 L 81.75414407202277 -3.5 L 81.75414407202277 -0.5 L 63.877072036011384 -0.5 Z"></path><text text-anchor="middle" pointer-events="none" font-size="8px" fill="#000000" x="60.877072036011384" y="3" transform="rotate(180 60.877072036011384 0)" font-family="Helvetica Neue, Helvetica, Arial, sans-serif"></text></g><g class="relationship" transform="translate(103.40506799004018 173.11841867407873) rotate(368.41575884943626)"><path class="b-outline" fill="#A5ABB6" stroke="none" d="M 40 0.5 L 57.97162181846643 0.5 L 57.97162181846643 -0.5 L 40 -0.5 Z M 63.97162181846643 0.5 L 81.94324363693286 0.5 L 81.94324363693286 3.5 L 88.94324363693286 0 L 81.94324363693286 -3.5 L 81.94324363693286 -0.5 L 63.97162181846643 -0.5 Z"></path><text text-anchor="middle" pointer-events="none" font-size="8px" fill="#000000" x="60.97162181846643" y="3" font-family="Helvetica Neue, Helvetica, Arial, sans-serif"></text></g><g class="relationship" transform="translate(103.40506799004018 173.11841867407873) rotate(333.4451434435832)"><path class="b-outline" fill="#A5ABB6" stroke="none" d="M 40 0.5 L 99.05530606847314 0.5 L 99.05530606847314 -0.5 L 40 -0.5 Z M 105.05530606847314 0.5 L 164.1106121369463 0.5 L 164.1106121369463 3.5 L 171.1106121369463 0 L 164.1106121369463 -3.5 L 164.1106121369463 -0.5 L 105.05530606847314 -0.5 Z"></path><text text-anchor="middle" pointer-events="none" font-size="8px" fill="#000000" x="102.05530606847314" y="3" font-family="Helvetica Neue, Helvetica, Arial, sans-serif"></text></g><g class="relationship" transform="translate(103.40506799004018 173.11841867407873) rotate(299.0599471788317)"><path class="b-outline" fill="#A5ABB6" stroke="none" d="M 40 0.5 L 58.185039456415836 0.5 L 58.185039456415836 -0.5 L 40 -0.5 Z M 64.18503945641584 0.5 L 82.37007891283167 0.5 L 82.37007891283167 3.5 L 89.37007891283167 0 L 82.37007891283167 -3.5 L 82.37007891283167 -0.5 L 64.18503945641584 -0.5 Z"></path><text text-anchor="middle" pointer-events="none" font-size="8px" fill="#000000" x="61.185039456415836" y="3" font-family="Helvetica Neue, Helvetica, Arial, sans-serif"></text></g><g class="relationship" transform="translate(341.72691521527855 -61.1352330085295) rotate(469.4815775742181)"><path class="b-outline" fill="#A5ABB6" stroke="none" d="M 40 0.5 L 67.68504201180234 0.5 L 67.68504201180234 -0.5 L 40 -0.5 Z M 73.68504201180234 0.5 L 101.37008402360468 0.5 L 101.37008402360468 3.5 L 108.37008402360468 0 L 101.37008402360468 -3.5 L 101.37008402360468 -0.5 L 73.68504201180234 -0.5 Z"></path><text text-anchor="middle" pointer-events="none" font-size="8px" fill="#000000" x="70.68504201180234" y="3" transform="rotate(180 70.68504201180234 0)" font-family="Helvetica Neue, Helvetica, Arial, sans-serif"></text></g><g class="relationship" transform="translate(341.72691521527855 -61.1352330085295) rotate(505.3753049838974)"><path class="b-outline" fill="#A5ABB6" stroke="none" d="M 40 0.5 L 100.12622424583002 0.5 L 100.12622424583002 -0.5 L 40 -0.5 Z M 106.12622424583002 0.5 L 166.25244849166003 0.5 L 166.25244849166003 3.5 L 173.25244849166003 0 L 166.25244849166003 -3.5 L 166.25244849166003 -0.5 L 106.12622424583002 -0.5 Z"></path><text text-anchor="middle" pointer-events="none" font-size="8px" fill="#000000" x="103.12622424583002" y="3" transform="rotate(180 103.12622424583002 0)" font-family="Helvetica Neue, Helvetica, Arial, sans-serif"></text></g><g class="relationship" transform="translate(234.156428783622 -132.42669395737383) rotate(469.43624299710734)"><path class="b-outline" fill="#A5ABB6" stroke="none" d="M 40 0.5 L 95.54594602808692 0.5 L 95.54594602808692 -0.5 L 40 -0.5 Z M 101.54594602808692 0.5 L 157.09189205617383 0.5 L 157.09189205617383 3.5 L 164.09189205617383 0 L 157.09189205617383 -3.5 L 157.09189205617383 -0.5 L 101.54594602808692 -0.5 Z"></path><text text-anchor="middle" pointer-events="none" font-size="8px" fill="#000000" x="98.54594602808692" y="3" transform="rotate(180 98.54594602808692 0)" font-family="Helvetica Neue, Helvetica, Arial, sans-serif"></text></g><g class="relationship" transform="translate(126.42309718153932 -62.322655795026456) rotate(431.97292363581295)"><path class="b-outline" fill="#A5ABB6" stroke="none" d="M 40 0.5 L 57.83684026629858 0.5 L 57.83684026629858 -0.5 L 40 -0.5 Z M 63.83684026629858 0.5 L 81.67368053259716 0.5 L 81.67368053259716 3.5 L 88.67368053259716 0 L 81.67368053259716 -3.5 L 81.67368053259716 -0.5 L 63.83684026629858 -0.5 Z"></path><text text-anchor="middle" pointer-events="none" font-size="8px" fill="#000000" x="60.83684026629858" y="3" font-family="Helvetica Neue, Helvetica, Arial, sans-serif"></text></g><g class="relationship" transform="translate(126.42309718153932 -62.322655795026456) rotate(186.58333056207658)"><path class="b-outline" fill="#A5ABB6" stroke="none" d="M 40 0.5 L 120.96066212803326 0.5 L 120.96066212803326 -0.5 L 40 -0.5 Z M 126.96066212803326 0.5 L 207.92132425606653 0.5 L 207.92132425606653 3.5 L 214.92132425606653 0 L 207.92132425606653 -3.5 L 207.92132425606653 -0.5 L 126.96066212803326 -0.5 Z"></path><text text-anchor="middle" pointer-events="none" font-size="8px" fill="#000000" x="123.96066212803326" y="3" transform="rotate(180 123.96066212803326 0)" font-family="Helvetica Neue, Helvetica, Arial, sans-serif"></text></g><g class="relationship" transform="translate(126.42309718153932 -62.322655795026456) rotate(261.7502436982104)"><path class="b-outline" fill="#A5ABB6" stroke="none" d="M 40 0.5 L 87.05169440270869 0.5 L 87.05169440270869 -0.5 L 40 -0.5 Z M 93.05169440270869 0.5 L 140.10338880541738 0.5 L 140.10338880541738 3.5 L 147.10338880541738 0 L 140.10338880541738 -3.5 L 140.10338880541738 -0.5 L 93.05169440270869 -0.5 Z"></path><text text-anchor="middle" pointer-events="none" font-size="8px" fill="#000000" x="90.05169440270869" y="3" transform="rotate(180 90.05169440270869 0)" font-family="Helvetica Neue, Helvetica, Arial, sans-serif"></text></g><g class="relationship" transform="translate(126.42309718153932 -62.322655795026456) rotate(468.8285574935809)"><path class="b-outline" fill="#A5ABB6" stroke="none" d="M 40 0.5 L 167.03085879300804 0.5 L 167.03085879300804 -0.5 L 40 -0.5 Z M 173.03085879300804 0.5 L 300.0617175860161 0.5 L 300.0617175860161 3.5 L 307.0617175860161 0 L 300.0617175860161 -3.5 L 300.0617175860161 -0.5 L 173.03085879300804 -0.5 Z"></path><text text-anchor="middle" pointer-events="none" font-size="8px" fill="#000000" x="170.03085879300804" y="3" transform="rotate(180 170.03085879300804 0)" font-family="Helvetica Neue, Helvetica, Arial, sans-serif"></text></g><g class="relationship" transform="translate(126.42309718153932 -62.322655795026456) rotate(516.7041982271809)"><path class="b-outline" fill="#A5ABB6" stroke="none" d="M 40 0.5 L 111.60852140058176 0.5 L 111.60852140058176 -0.5 L 40 -0.5 Z M 117.60852140058176 0.5 L 189.21704280116353 0.5 L 189.21704280116353 3.5 L 196.21704280116353 0 L 189.21704280116353 -3.5 L 189.21704280116353 -0.5 L 117.60852140058176 -0.5 Z"></path><text text-anchor="middle" pointer-events="none" font-size="8px" fill="#000000" x="114.60852140058176" y="3" transform="rotate(180 114.60852140058176 0)" font-family="Helvetica Neue, Helvetica, Arial, sans-serif"></text></g><g class="relationship" transform="translate(126.42309718153932 -62.322655795026456) rotate(427.6545817193928)"><path class="b-outline" fill="#A5ABB6" stroke="none" d="M 40 0.5 L 130.979837847169 0.5 L 130.979837847169 -0.5 L 40 -0.5 Z M 136.979837847169 0.5 L 227.959675694338 0.5 L 227.959675694338 3.5 L 234.959675694338 0 L 227.959675694338 -3.5 L 227.959675694338 -0.5 L 136.979837847169 -0.5 Z"></path><text text-anchor="middle" pointer-events="none" font-size="8px" fill="#000000" x="133.979837847169" y="3" font-family="Helvetica Neue, Helvetica, Arial, sans-serif"></text></g><g class="relationship" transform="translate(126.42309718153932 -62.322655795026456) rotate(221.7921863791854)"><path class="b-outline" fill="#A5ABB6" stroke="none" d="M 40 0.5 L 89.33172530569423 0.5 L 89.33172530569423 -0.5 L 40 -0.5 Z M 95.33172530569423 0.5 L 144.66345061138847 0.5 L 144.66345061138847 3.5 L 151.66345061138847 0 L 144.66345061138847 -3.5 L 144.66345061138847 -0.5 L 95.33172530569423 -0.5 Z"></path><text text-anchor="middle" pointer-events="none" font-size="8px" fill="#000000" x="92.33172530569423" y="3" transform="rotate(180 92.33172530569423 0)" font-family="Helvetica Neue, Helvetica, Arial, sans-serif"></text></g><g class="relationship" transform="translate(36.87385940908265 62.41390324299351) rotate(393.72793129764443)"><path class="b-outline" fill="#A5ABB6" stroke="none" d="M 40 0.5 L 110.18260638119325 0.5 L 110.18260638119325 -0.5 L 40 -0.5 Z M 116.18260638119325 0.5 L 186.3652127623865 0.5 L 186.3652127623865 3.5 L 193.3652127623865 0 L 186.3652127623865 -3.5 L 186.3652127623865 -0.5 L 116.18260638119325 -0.5 Z"></path><text text-anchor="middle" pointer-events="none" font-size="8px" fill="#000000" x="113.18260638119325" y="3" font-family="Helvetica Neue, Helvetica, Arial, sans-serif"></text></g><g class="relationship" transform="translate(36.87385940908265 62.41390324299351) rotate(363.65809882765654)"><path class="b-outline" fill="#A5ABB6" stroke="none" d="M 40 0.5 L 121.44622270794605 0.5 L 121.44622270794605 -0.5 L 40 -0.5 Z M 127.44622270794605 0.5 L 208.8924454158921 0.5 L 208.8924454158921 3.5 L 215.8924454158921 0 L 208.8924454158921 -3.5 L 208.8924454158921 -0.5 L 127.44622270794605 -0.5 Z"></path><text text-anchor="middle" pointer-events="none" font-size="8px" fill="#000000" x="124.44622270794605" y="3" font-family="Helvetica Neue, Helvetica, Arial, sans-serif"></text></g><g class="relationship" transform="translate(36.87385940908265 62.41390324299351) rotate(456.2905560129655)"><path class="b-outline" fill="#A5ABB6" stroke="none" d="M 40 0.5 L 95.99379802350356 0.5 L 95.99379802350356 -0.5 L 40 -0.5 Z M 101.99379802350356 0.5 L 157.98759604700712 0.5 L 157.98759604700712 3.5 L 164.98759604700712 0 L 157.98759604700712 -3.5 L 157.98759604700712 -0.5 L 101.99379802350356 -0.5 Z"></path><text text-anchor="middle" pointer-events="none" font-size="8px" fill="#000000" x="98.99379802350356" y="3" transform="rotate(180 98.99379802350356 0)" font-family="Helvetica Neue, Helvetica, Arial, sans-serif"></text></g><g class="relationship" transform="translate(36.87385940908265 62.41390324299351) rotate(358.9463088879065)"><path class="b-outline" fill="#A5ABB6" stroke="none" d="M 40 0.5 L 58.19564929726597 0.5 L 58.19564929726597 -0.5 L 40 -0.5 Z M 64.19564929726597 0.5 L 82.39129859453195 0.5 L 82.39129859453195 3.5 L 89.39129859453195 0 L 82.39129859453195 -3.5 L 82.39129859453195 -0.5 L 64.19564929726597 -0.5 Z"></path><text text-anchor="middle" pointer-events="none" font-size="8px" fill="#000000" x="61.19564929726597" y="3" font-family="Helvetica Neue, Helvetica, Arial, sans-serif"></text></g><g class="relationship" transform="translate(-0.5500471984220308 -61.18387692517574) rotate(396.0080740328718)"><path class="b-outline" fill="#A5ABB6" stroke="none" d="M 40 0.5 L 96.59450034224443 0.5 L 96.59450034224443 -0.5 L 40 -0.5 Z M 102.59450034224443 0.5 L 159.18900068448886 0.5 L 159.18900068448886 3.5 L 166.18900068448886 0 L 159.18900068448886 -3.5 L 159.18900068448886 -0.5 L 102.59450034224443 -0.5 Z"></path><text text-anchor="middle" pointer-events="none" font-size="8px" fill="#000000" x="99.59450034224443" y="3" font-family="Helvetica Neue, Helvetica, Arial, sans-serif"></text></g><g class="relationship" transform="translate(-51.922363520337505 155.52149364587936) rotate(419.05598390765437)"><path class="b-outline" fill="#A5ABB6" stroke="none" d="M 40 0.5 L 58.00369236949362 0.5 L 58.00369236949362 -0.5 L 40 -0.5 Z M 64.00369236949362 0.5 L 82.00738473898724 0.5 L 82.00738473898724 3.5 L 89.00738473898724 0 L 82.00738473898724 -3.5 L 82.00738473898724 -0.5 L 64.00369236949362 -0.5 Z"></path><text text-anchor="middle" pointer-events="none" font-size="8px" fill="#000000" x="61.00369236949362" y="3" font-family="Helvetica Neue, Helvetica, Arial, sans-serif"></text></g><g class="relationship" transform="translate(-51.922363520337505 155.52149364587936) rotate(253.13626292222403)"><path class="b-outline" fill="#A5ABB6" stroke="none" d="M 40 0.5 L 122.58624911589268 0.5 L 122.58624911589268 -0.5 L 40 -0.5 Z M 128.58624911589268 0.5 L 211.17249823178537 0.5 L 211.17249823178537 3.5 L 218.17249823178537 0 L 211.17249823178537 -3.5 L 211.17249823178537 -0.5 L 128.58624911589268 -0.5 Z"></path><text text-anchor="middle" pointer-events="none" font-size="8px" fill="#000000" x="125.58624911589268" y="3" transform="rotate(180 125.58624911589268 0)" font-family="Helvetica Neue, Helvetica, Arial, sans-serif"></text></g><g class="relationship" transform="translate(-51.922363520337505 155.52149364587936) rotate(347.42370509221166)"><path class="b-outline" fill="#A5ABB6" stroke="none" d="M 40 0.5 L 169.81396249791794 0.5 L 169.81396249791794 -0.5 L 40 -0.5 Z M 175.81396249791794 0.5 L 305.6279249958359 0.5 L 305.6279249958359 3.5 L 312.6279249958359 0 L 305.6279249958359 -3.5 L 305.6279249958359 -0.5 L 175.81396249791794 -0.5 Z"></path><text text-anchor="middle" pointer-events="none" font-size="8px" fill="#000000" x="172.81396249791794" y="3" font-family="Helvetica Neue, Helvetica, Arial, sans-serif"></text></g><g class="relationship" transform="translate(-51.922363520337505 155.52149364587936) rotate(336.3619062524675)"><path class="b-outline" fill="#A5ABB6" stroke="none" d="M 40 0.5 L 112.57352407360524 0.5 L 112.57352407360524 -0.5 L 40 -0.5 Z M 118.57352407360524 0.5 L 191.14704814721048 0.5 L 191.14704814721048 3.5 L 198.14704814721048 0 L 191.14704814721048 -3.5 L 191.14704814721048 -0.5 L 118.57352407360524 -0.5 Z"></path><text text-anchor="middle" pointer-events="none" font-size="8px" fill="#000000" x="115.57352407360524" y="3" font-family="Helvetica Neue, Helvetica, Arial, sans-serif"></text></g><g class="relationship" transform="translate(-51.922363520337505 155.52149364587936) rotate(252.75884472519795)"><path class="b-outline" fill="#A5ABB6" stroke="none" d="M 40 0.5 L 58.63973657530275 0.5 L 58.63973657530275 -0.5 L 40 -0.5 Z M 64.63973657530275 0.5 L 83.2794731506055 0.5 L 83.2794731506055 3.5 L 90.2794731506055 0 L 83.2794731506055 -3.5 L 83.2794731506055 -0.5 L 64.63973657530275 -0.5 Z"></path><text text-anchor="middle" pointer-events="none" font-size="8px" fill="#000000" x="61.63973657530275" y="3" transform="rotate(180 61.63973657530275 0)" font-family="Helvetica Neue, Helvetica, Arial, sans-serif"></text></g><g class="relationship" transform="translate(210.89493680712704 363.05078327987326) rotate(276.6900539617037)"><path class="b-outline" fill="#A5ABB6" stroke="none" d="M 40 0.5 L 79.6168096341664 0.5 L 79.6168096341664 -0.5 L 40 -0.5 Z M 85.6168096341664 0.5 L 125.2336192683328 0.5 L 125.2336192683328 3.5 L 132.2336192683328 0 L 125.2336192683328 -3.5 L 125.2336192683328 -0.5 L 85.6168096341664 -0.5 Z"></path><text text-anchor="middle" pointer-events="none" font-size="8px" fill="#000000" x="82.6168096341664" y="3" font-family="Helvetica Neue, Helvetica, Arial, sans-serif"></text></g></g><g class="layer nodes"><g class="node" aria-label="graph-node349857" transform="translate(103.40506799004018,173.11841867407873)"><circle class="b-outline" cx="0" cy="0" r="40" fill="#D9C8AE" stroke="#c0a378" stroke-width="2px"></circle><text class="caption" text-anchor="middle" pointer-events="none" x="0" y="0" font-size="10px" fill="#2A2C34" font-family="Helvetica Neue, Helvetica, Arial, sans-serif">Biomechanical</text><text class="caption" text-anchor="middle" pointer-events="none" x="0" y="10" font-size="10px" fill="#2A2C34" font-family="Helvetica Neue, Helvetica, Arial, sans-serif">Attributes</text></g><g class="node" aria-label="graph-node332292" transform="translate(14.41327086631167,266.1672749830541)"><circle class="b-outline" cx="0" cy="0" r="40" fill="#8DCC93" stroke="#5db665" stroke-width="2px"></circle><text class="caption" text-anchor="middle" pointer-events="none" x="0" y="5" font-size="10px" fill="#2A2C34" font-family="Helvetica Neue, Helvetica, Arial, sans-serif">Muscles</text></g><g class="node" aria-label="graph-node320407" transform="translate(230.9598657771515,191.98992208802466)"><circle class="b-outline" cx="0" cy="0" r="40" fill="#8DCC93" stroke="#5db665" stroke-width="2px"></circle><text class="caption" text-anchor="middle" pointer-events="none" x="0" y="5" font-size="10px" fill="#2A2C34" font-family="Helvetica Neue, Helvetica, Arial, sans-serif">Ligaments</text></g><g class="node" aria-label="graph-node324208" transform="translate(292.2449354208326,78.740481498291)"><circle class="b-outline" cx="0" cy="0" r="40" fill="#8DCC93" stroke="#5db665" stroke-width="2px"></circle><text class="caption" text-anchor="middle" pointer-events="none" x="0" y="5" font-size="10px" fill="#2A2C34" font-family="Helvetica Neue, Helvetica, Arial, sans-serif">Joints</text></g><g class="node" aria-label="graph-node317284" transform="translate(166.2432781604563,60.034482323724774)"><circle class="b-outline" cx="0" cy="0" r="40" fill="#8DCC93" stroke="#5db665" stroke-width="2px"></circle><text class="caption" text-anchor="middle" pointer-events="none" x="0" y="5" font-size="10px" fill="#2A2C34" font-family="Helvetica Neue, Helvetica, Arial, sans-serif">Spine</text></g><g class="node" aria-label="graph-node349858" transform="translate(341.72691521527855,-61.1352330085295)"><circle class="b-outline" cx="0" cy="0" r="40" fill="#D9C8AE" stroke="#c0a378" stroke-width="2px"></circle><text class="caption" text-anchor="middle" pointer-events="none" x="0" y="5" font-size="10px" fill="#2A2C34" font-family="Helvetica Neue, Helvetica, Arial, sans-serif">Load</text></g><g class="node" aria-label="graph-node349859" transform="translate(234.156428783622,-132.42669395737383)"><circle class="b-outline" cx="0" cy="0" r="40" fill="#D9C8AE" stroke="#c0a378" stroke-width="2px"></circle><text class="caption" text-anchor="middle" pointer-events="none" x="0" y="5" font-size="10px" fill="#2A2C34" font-family="Helvetica Neue, Helvetica, Arial, sans-serif">Physical Activity</text></g><g class="node" aria-label="graph-node349860" transform="translate(126.42309718153932,-62.322655795026456)"><circle class="b-outline" cx="0" cy="0" r="40" fill="#D9C8AE" stroke="#c0a378" stroke-width="2px"></circle><text class="caption" text-anchor="middle" pointer-events="none" x="0" y="0" font-size="10px" fill="#2A2C34" font-family="Helvetica Neue, Helvetica, Arial, sans-serif">Sensorimotor</text><text class="caption" text-anchor="middle" pointer-events="none" x="0" y="10" font-size="10px" fill="#2A2C34" font-family="Helvetica Neue, Helvetica, Arial, sans-serif">Control</text></g><g class="node" aria-label="graph-node345991" transform="translate(-126.81731740930775,-91.54891074365946)"><circle class="b-outline" cx="0" cy="0" r="40" fill="#8DCC93" stroke="#5db665" stroke-width="2px"></circle><text class="caption" text-anchor="middle" pointer-events="none" x="0" y="0" font-size="10px" fill="#2A2C34" font-family="Helvetica Neue, Helvetica, Arial, sans-serif">Paraspinal</text><text class="caption" text-anchor="middle" pointer-events="none" x="0" y="10" font-size="10px" fill="#2A2C34" font-family="Helvetica Neue, Helvetica, Arial, sans-serif">Muscles</text></g><g class="node" aria-label="graph-node330152" transform="translate(99.57592891669856,-247.48989819667403)"><circle class="b-outline" cx="0" cy="0" r="40" fill="#8DCC93" stroke="#5db665" stroke-width="2px"></circle><text class="caption" text-anchor="middle" pointer-events="none" x="0" y="5" font-size="10px" fill="#2A2C34" font-family="Helvetica Neue, Helvetica, Arial, sans-serif">Cartilage</text></g><g class="node" aria-label="graph-node324687" transform="translate(-90.53643663042783,31.09603611307404)"><circle class="b-outline" cx="0" cy="0" r="40" fill="#8DCC93" stroke="#5db665" stroke-width="2px"></circle><text class="caption" text-anchor="middle" pointer-events="none" x="0" y="0" font-size="10px" fill="#2A2C34" font-family="Helvetica Neue, Helvetica, Arial, sans-serif">Intervertebral</text><text class="caption" text-anchor="middle" pointer-events="none" x="0" y="10" font-size="10px" fill="#2A2C34" font-family="Helvetica Neue, Helvetica, Arial, sans-serif">Disc</text></g><g class="node" aria-label="graph-node336639" transform="translate(-16.47482562822656,-190.0530826984011)"><circle class="b-outline" cx="0" cy="0" r="40" fill="#8DCC93" stroke="#5db665" stroke-width="2px"></circle><text class="caption" text-anchor="middle" pointer-events="none" x="0" y="5" font-size="10px" fill="#2A2C34" font-family="Helvetica Neue, Helvetica, Arial, sans-serif">Muscle Spindles</text></g><g class="node" aria-label="graph-node349869" transform="translate(36.87385940908265,62.41390324299351)"><circle class="b-outline" cx="0" cy="0" r="40" fill="#F79767" stroke="#f36924" stroke-width="2px"></circle><text class="caption" text-anchor="middle" pointer-events="none" x="0" y="5" font-size="10px" fill="#FFFFFF" font-family="Helvetica Neue, Helvetica, Arial, sans-serif">Anatomy</text></g><g class="node" aria-label="graph-node349873" transform="translate(-0.5500471984220308,-61.18387692517574)"><circle class="b-outline" cx="0" cy="0" r="40" fill="#F79767" stroke="#f36924" stroke-width="2px"></circle><text class="caption" text-anchor="middle" pointer-events="none" x="0" y="0" font-size="10px" fill="#FFFFFF" font-family="Helvetica Neue, Helvetica, Arial, sans-serif">Nociception</text><text class="caption" text-anchor="middle" pointer-events="none" x="0" y="10" font-size="10px" fill="#FFFFFF" font-family="Helvetica Neue, Helvetica, Arial, sans-serif"></text></g><g class="node" aria-label="graph-node349876" transform="translate(-51.922363520337505,155.52149364587936)"><circle class="b-outline" cx="0" cy="0" r="40" fill="#F79767" stroke="#f36924" stroke-width="2px"></circle><text class="caption" text-anchor="middle" pointer-events="none" x="0" y="0" font-size="10px" fill="#FFFFFF" font-family="Helvetica Neue, Helvetica, Arial, sans-serif">Peripheral</text><text class="caption" text-anchor="middle" pointer-events="none" x="0" y="10" font-size="10px" fill="#FFFFFF" font-family="Helvetica Neue, Helvetica, Arial, sans-serif">Stimulus</text></g><g class="node" aria-label="graph-node349877" transform="translate(210.89493680712704,363.05078327987326)"><circle class="b-outline" cx="0" cy="0" r="40" fill="#569480" stroke="#447666" stroke-width="2px"></circle><text class="caption" text-anchor="middle" pointer-events="none" x="0" y="5" font-size="10px" fill="#FFFFFF" font-family="Helvetica Neue, Helvetica, Arial, sans-serif">Inflammation</text></g></g></svg>