<svg xmlns="http://www.w3.org/2000/svg" width="800.427001953125" height="769.0491943359375" viewBox="-367.5506286621094 -356.0078430175781 800.427001953125 769.0491943359375"><title>Neo4j Graph Visualization</title><desc>Created using Neo4j (http://www.neo4j.com/)</desc><g class="layer relationships"><g class="relationship" transform="translate(-29.784035531059608 155.7491629977474) rotate(293.39385765553436)"><path class="b-outline" fill="#A5ABB6" stroke="none" d="M 40 0.5 L 45.29013776936213 0.5 L 45.29013776936213 -0.5 L 40 -0.5 Z M 92.63779401936213 0.5 L 97.92793178872427 0.5 L 97.92793178872427 3.5 L 104.92793178872427 0 L 97.92793178872427 -3.5 L 97.92793178872427 -0.5 L 92.63779401936213 -0.5 Z"/><text text-anchor="middle" pointer-events="none" font-size="8px" fill="#000000" x="68.96396589436213" y="3" font-family="Helvetica Neue, Helvetica, Arial, sans-serif">subClassOf</text></g><g class="relationship" transform="translate(69.64433599758685 164.36913757705832) rotate(253.52574615986657)"><path class="b-outline" fill="#A5ABB6" stroke="none" d="M 40 0.5 L 46.6750839455988 0.5 L 46.6750839455988 -0.5 L 40 -0.5 Z M 94.0227401955988 0.5 L 100.6978241411976 0.5 L 100.6978241411976 3.5 L 107.6978241411976 0 L 100.6978241411976 -3.5 L 100.6978241411976 -0.5 L 94.0227401955988 -0.5 Z"/><text text-anchor="middle" pointer-events="none" font-size="8px" fill="#000000" x="70.3489120705988" y="3" transform="rotate(180 70.3489120705988 0)" font-family="Helvetica Neue, Helvetica, Arial, sans-serif">subClassOf</text></g><g class="relationship" transform="translate(169.42437117653108 161.2449226338474) rotate(224.35490470120112)"><path class="b-outline" fill="#A5ABB6" stroke="none" d="M 40 0.5 L 71.88929058855274 0.5 L 71.88929058855274 -0.5 L 40 -0.5 Z M 119.23694683855274 0.5 L 151.12623742710548 0.5 L 151.12623742710548 3.5 L 158.12623742710548 0 L 151.12623742710548 -3.5 L 151.12623742710548 -0.5 L 119.23694683855274 -0.5 Z"/><text text-anchor="middle" pointer-events="none" font-size="8px" fill="#000000" x="95.56311871355274" y="3" transform="rotate(180 95.56311871355274 0)" font-family="Helvetica Neue, Helvetica, Arial, sans-serif">subClassOf</text></g><g class="relationship" transform="translate(297.1488912231705 244.97290567741757) rotate(213.24627217420448)"><path class="b-outline" fill="#A5ABB6" stroke="none" d="M 40 0.5 L 49.18703908735027 0.5 L 49.18703908735027 -0.5 L 40 -0.5 Z M 96.53469533735027 0.5 L 105.72173442470054 0.5 L 105.72173442470054 3.5 L 112.72173442470054 0 L 105.72173442470054 -3.5 L 105.72173442470054 -0.5 L 96.53469533735027 -0.5 Z"/><text text-anchor="middle" pointer-events="none" font-size="8px" fill="#000000" x="72.86086721235027" y="3" transform="rotate(180 72.86086721235027 0)" font-family="Helvetica Neue, Helvetica, Arial, sans-serif">subClassOf</text></g><g class="relationship" transform="translate(209.56947808933182 310.3210823177896) rotate(254.9282085853962)"><path class="b-outline" fill="#A5ABB6" stroke="none" d="M 40 0.5 L 50.01964795159671 0.5 L 50.01964795159671 -0.5 L 40 -0.5 Z M 97.36730420159671 0.5 L 107.38695215319342 0.5 L 107.38695215319342 3.5 L 114.38695215319342 0 L 107.38695215319342 -3.5 L 107.38695215319342 -0.5 L 97.36730420159671 -0.5 Z"/><text text-anchor="middle" pointer-events="none" font-size="8px" fill="#000000" x="73.69347607659671" y="3" transform="rotate(180 73.69347607659671 0)" font-family="Helvetica Neue, Helvetica, Arial, sans-serif">subClassOf</text></g><g class="relationship" transform="translate(239.94519367776027 -13.211642472822133) rotate(530.384817529401)"><path class="b-outline" fill="#A5ABB6" stroke="none" d="M 40 0.5 L 80.43065300801457 0.5 L 80.43065300801457 -0.5 L 40 -0.5 Z M 127.77830925801457 0.5 L 168.20896226602915 0.5 L 168.20896226602915 3.5 L 175.20896226602915 0 L 168.20896226602915 -3.5 L 168.20896226602915 -0.5 L 127.77830925801457 -0.5 Z"/><text text-anchor="middle" pointer-events="none" font-size="8px" fill="#000000" x="104.10448113301457" y="3" transform="rotate(180 104.10448113301457 0)" font-family="Helvetica Neue, Helvetica, Arial, sans-serif">subClassOf</text></g><g class="relationship" transform="translate(392.8763541373817 -8.834257308637156) rotate(181.6395431377353)"><path class="b-outline" fill="#A5ABB6" stroke="none" d="M 40 0.5 L 49.32306942712644 0.5 L 49.32306942712644 -0.5 L 40 -0.5 Z M 96.67072567712644 0.5 L 105.99379510425288 0.5 L 105.99379510425288 3.5 L 112.99379510425288 0 L 105.99379510425288 -3.5 L 105.99379510425288 -0.5 L 96.67072567712644 -0.5 Z"/><text text-anchor="middle" pointer-events="none" font-size="8px" fill="#000000" x="72.99689755212644" y="3" transform="rotate(180 72.99689755212644 0)" font-family="Helvetica Neue, Helvetica, Arial, sans-serif">subClassOf</text></g><g class="relationship" transform="translate(356.4393239887637 83.95323386408836) rotate(219.83065062605226)"><path class="b-outline" fill="#A5ABB6" stroke="none" d="M 40 0.5 L 48.67453308090239 0.5 L 48.67453308090239 -0.5 L 40 -0.5 Z M 96.02218933090239 0.5 L 104.69672241180479 0.5 L 104.69672241180479 3.5 L 111.69672241180479 0 L 104.69672241180479 -3.5 L 104.69672241180479 -0.5 L 96.02218933090239 -0.5 Z"/><text text-anchor="middle" pointer-events="none" font-size="8px" fill="#000000" x="72.34836120590239" y="3" transform="rotate(180 72.34836120590239 0)" font-family="Helvetica Neue, Helvetica, Arial, sans-serif">subClassOf</text></g><g class="relationship" transform="translate(279.99838568433233 -158.00637868157477) rotate(465.4625351881548)"><path class="b-outline" fill="#A5ABB6" stroke="none" d="M 40 0.5 L 47.94237156534241 0.5 L 47.94237156534241 -0.5 L 40 -0.5 Z M 95.29002781534241 0.5 L 103.23239938068483 0.5 L 103.23239938068483 3.5 L 110.23239938068483 0 L 103.23239938068483 -3.5 L 103.23239938068483 -0.5 L 95.29002781534241 -0.5 Z"/><text text-anchor="middle" pointer-events="none" font-size="8px" fill="#000000" x="71.61619969034241" y="3" transform="rotate(180 71.61619969034241 0)" font-family="Helvetica Neue, Helvetica, Arial, sans-serif">subClassOf</text></g><g class="relationship" transform="translate(363.9679143565672 -104.19619630043437) rotate(503.73578155344893)"><path class="b-outline" fill="#A5ABB6" stroke="none" d="M 40 0.5 L 49.734923457285845 0.5 L 49.734923457285845 -0.5 L 40 -0.5 Z M 97.08257970728584 0.5 L 106.81750316457169 0.5 L 106.81750316457169 3.5 L 113.81750316457169 0 L 106.81750316457169 -3.5 L 106.81750316457169 -0.5 L 97.08257970728584 -0.5 Z"/><text text-anchor="middle" pointer-events="none" font-size="8px" fill="#000000" x="73.40875158228584" y="3" transform="rotate(180 73.40875158228584 0)" font-family="Helvetica Neue, Helvetica, Arial, sans-serif">subClassOf</text></g><g class="relationship" transform="translate(104.57474410566432 -165.26434452559306) rotate(472.2246118512082)"><path class="b-outline" fill="#A5ABB6" stroke="none" d="M 40 0.5 L 74.3695410988992 0.5 L 74.3695410988992 -0.5 L 40 -0.5 Z M 121.7171973488992 0.5 L 156.0867384477984 0.5 L 156.0867384477984 3.5 L 163.0867384477984 0 L 156.0867384477984 -3.5 L 156.0867384477984 -0.5 L 121.7171973488992 -0.5 Z"/><text text-anchor="middle" pointer-events="none" font-size="8px" fill="#000000" x="98.0433692238992" y="3" transform="rotate(180 98.0433692238992 0)" font-family="Helvetica Neue, Helvetica, Arial, sans-serif">subClassOf</text></g><g class="relationship" transform="translate(-3.271326575339969 -78.20928149024998) rotate(321.0889796699686)"><path class="b-outline" fill="#A5ABB6" stroke="none" d="M 40 0.5 L 42.125087742096596 0.5 L 42.125087742096596 -0.5 L 40 -0.5 Z M 89.4727439920966 0.5 L 91.59783173419319 0.5 L 91.59783173419319 3.5 L 98.59783173419319 0 L 91.59783173419319 -3.5 L 91.59783173419319 -0.5 L 89.4727439920966 -0.5 Z"/><text text-anchor="middle" pointer-events="none" font-size="8px" fill="#000000" x="65.7989158670966" y="3" font-family="Helvetica Neue, Helvetica, Arial, sans-serif">subClassOf</text></g><g class="relationship" transform="translate(176.9094085735604 -299.7690391030638) rotate(478.2707161515883)"><path class="b-outline" fill="#A5ABB6" stroke="none" d="M 40 0.5 L 49.186856371443895 0.5 L 49.186856371443895 -0.5 L 40 -0.5 Z M 96.5345126214439 0.5 L 105.72136899288779 0.5 L 105.72136899288779 3.5 L 112.72136899288779 0 L 105.72136899288779 -3.5 L 105.72136899288779 -0.5 L 96.5345126214439 -0.5 Z"/><text text-anchor="middle" pointer-events="none" font-size="8px" fill="#000000" x="72.8606844964439" y="3" transform="rotate(180 72.8606844964439 0)" font-family="Helvetica Neue, Helvetica, Arial, sans-serif">subClassOf</text></g><g class="relationship" transform="translate(78.46993757717169 -316.0078296792843) rotate(440.1753160114714)"><path class="b-outline" fill="#A5ABB6" stroke="none" d="M 40 0.5 L 49.319732453932346 0.5 L 49.319732453932346 -0.5 L 40 -0.5 Z M 96.66738870393235 0.5 L 105.98712115786469 0.5 L 105.98712115786469 3.5 L 112.98712115786469 0 L 105.98712115786469 -3.5 L 105.98712115786469 -0.5 L 96.66738870393235 -0.5 Z"/><text text-anchor="middle" pointer-events="none" font-size="8px" fill="#000000" x="72.99356057893235" y="3" font-family="Helvetica Neue, Helvetica, Arial, sans-serif">subClassOf</text></g><g class="relationship" transform="translate(-71.5386483650905 -150.92459157112847) rotate(420.2391318568144)"><path class="b-outline" fill="#A5ABB6" stroke="none" d="M 40 0.5 L 72.84827190945414 0.5 L 72.84827190945414 -0.5 L 40 -0.5 Z M 120.19592815945414 0.5 L 153.04420006890828 0.5 L 153.04420006890828 3.5 L 160.04420006890828 0 L 153.04420006890828 -3.5 L 153.04420006890828 -0.5 L 120.19592815945414 -0.5 Z"/><text text-anchor="middle" pointer-events="none" font-size="8px" fill="#000000" x="96.52210003445414" y="3" font-family="Helvetica Neue, Helvetica, Arial, sans-serif">subClassOf</text></g><g class="relationship" transform="translate(-92.49430520374447 -303.284013444594) rotate(442.168621805126)"><path class="b-outline" fill="#A5ABB6" stroke="none" d="M 40 0.5 L 49.723071986701626 0.5 L 49.723071986701626 -0.5 L 40 -0.5 Z M 97.07072823670163 0.5 L 106.79380022340325 0.5 L 106.79380022340325 3.5 L 113.79380022340325 0 L 106.79380022340325 -3.5 L 106.79380022340325 -0.5 L 97.07072823670163 -0.5 Z"/><text text-anchor="middle" pointer-events="none" font-size="8px" fill="#000000" x="73.39690011170163" y="3" font-family="Helvetica Neue, Helvetica, Arial, sans-serif">subClassOf</text></g><g class="relationship" transform="translate(-181.68385896011375 -258.6665105429822) rotate(404.36805407703156)"><path class="b-outline" fill="#A5ABB6" stroke="none" d="M 40 0.5 L 49.86559120166602 0.5 L 49.86559120166602 -0.5 L 40 -0.5 Z M 97.21324745166602 0.5 L 107.07883865333204 0.5 L 107.07883865333204 3.5 L 114.07883865333204 0 L 107.07883865333204 -3.5 L 107.07883865333204 -0.5 L 97.21324745166602 -0.5 Z"/><text text-anchor="middle" pointer-events="none" font-size="8px" fill="#000000" x="73.53941932666602" y="3" font-family="Helvetica Neue, Helvetica, Arial, sans-serif">subClassOf</text></g><g class="relationship" transform="translate(-174.30858608617496 -28.26326582507249) rotate(374.1645216593191)"><path class="b-outline" fill="#A5ABB6" stroke="none" d="M 40 0.5 L 77.02827889426602 0.5 L 77.02827889426602 -0.5 L 40 -0.5 Z M 124.37593514426602 0.5 L 161.40421403853205 0.5 L 161.40421403853205 3.5 L 168.40421403853205 0 L 161.40421403853205 -3.5 L 161.40421403853205 -0.5 L 124.37593514426602 -0.5 Z"/><text text-anchor="middle" pointer-events="none" font-size="8px" fill="#000000" x="100.70210701926602" y="3" font-family="Helvetica Neue, Helvetica, Arial, sans-serif">subClassOf</text></g><g class="relationship" transform="translate(-275.62817867162937 -143.57347993053938) rotate(408.69520644190663)"><path class="b-outline" fill="#A5ABB6" stroke="none" d="M 40 0.5 L 49.57593623739248 0.5 L 49.57593623739248 -0.5 L 40 -0.5 Z M 96.92359248739248 0.5 L 106.49952872478497 0.5 L 106.49952872478497 3.5 L 113.49952872478497 0 L 106.49952872478497 -3.5 L 106.49952872478497 -0.5 L 96.92359248739248 -0.5 Z"/><text text-anchor="middle" pointer-events="none" font-size="8px" fill="#000000" x="73.24976436239248" y="3" font-family="Helvetica Neue, Helvetica, Arial, sans-serif">subClassOf</text></g><g class="relationship" transform="translate(-327.55061359752506 -58.55435102311657) rotate(371.1814147112953)"><path class="b-outline" fill="#A5ABB6" stroke="none" d="M 40 0.5 L 50.92973907628816 0.5 L 50.92973907628816 -0.5 L 40 -0.5 Z M 98.27739532628816 0.5 L 109.20713440257632 0.5 L 109.20713440257632 3.5 L 116.20713440257632 0 L 109.20713440257632 -3.5 L 109.20713440257632 -0.5 L 98.27739532628816 -0.5 Z"/><text text-anchor="middle" pointer-events="none" font-size="8px" fill="#000000" x="74.60356720128816" y="3" font-family="Helvetica Neue, Helvetica, Arial, sans-serif">subClassOf</text></g><g class="relationship" transform="translate(-312.16019178027335 39.93805814517151) rotate(333.6763491657655)"><path class="b-outline" fill="#A5ABB6" stroke="none" d="M 40 0.5 L 49.72624629586022 0.5 L 49.72624629586022 -0.5 L 40 -0.5 Z M 97.07390254586022 0.5 L 106.80014884172044 0.5 L 106.80014884172044 3.5 L 113.80014884172044 0 L 106.80014884172044 -3.5 L 106.80014884172044 -0.5 L 97.07390254586022 -0.5 Z"/><text text-anchor="middle" pointer-events="none" font-size="8px" fill="#000000" x="73.40007442086022" y="3" font-family="Helvetica Neue, Helvetica, Arial, sans-serif">subClassOf</text></g><g class="relationship" transform="translate(-107.21016465616654 221.33536893298162) rotate(304.20016303578825)"><path class="b-outline" fill="#A5ABB6" stroke="none" d="M 40 0.5 L 92.88765417286724 0.5 L 92.88765417286724 -0.5 L 40 -0.5 Z M 140.23531042286726 0.5 L 193.1229645957345 0.5 L 193.1229645957345 3.5 L 200.1229645957345 0 L 193.1229645957345 -3.5 L 193.1229645957345 -0.5 L 140.23531042286726 -0.5 Z"/><text text-anchor="middle" pointer-events="none" font-size="8px" fill="#000000" x="116.56148229786724" y="3" font-family="Helvetica Neue, Helvetica, Arial, sans-serif">subClassOf</text></g><g class="relationship" transform="translate(-253.885879852071 266.486784805928) rotate(342.8899821964094)"><path class="b-outline" fill="#A5ABB6" stroke="none" d="M 40 0.5 L 49.56015356427805 0.5 L 49.56015356427805 -0.5 L 40 -0.5 Z M 96.90780981427805 0.5 L 106.4679633785561 0.5 L 106.4679633785561 3.5 L 113.4679633785561 0 L 106.4679633785561 -3.5 L 106.4679633785561 -0.5 L 96.90780981427805 -0.5 Z"/><text text-anchor="middle" pointer-events="none" font-size="8px" fill="#000000" x="73.23398168927805" y="3" font-family="Helvetica Neue, Helvetica, Arial, sans-serif">subClassOf</text></g><g class="relationship" transform="translate(-229.95481143212447 142.3198902523043) rotate(392.77095129829684)"><path class="b-outline" fill="#A5ABB6" stroke="none" d="M 40 0.5 L 45.81537344497754 0.5 L 45.81537344497754 -0.5 L 40 -0.5 Z M 93.16302969497754 0.5 L 98.97840313995508 0.5 L 98.97840313995508 3.5 L 105.97840313995508 0 L 98.97840313995508 -3.5 L 98.97840313995508 -0.5 L 93.16302969497754 -0.5 Z"/><text text-anchor="middle" pointer-events="none" font-size="8px" fill="#000000" x="69.48920156997754" y="3" font-family="Helvetica Neue, Helvetica, Arial, sans-serif">subClassOf</text></g><g class="relationship" transform="translate(-194.7669543533794 346.7803399351218) rotate(304.91387376181234)"><path class="b-outline" fill="#A5ABB6" stroke="none" d="M 40 0.5 L 49.31576621927951 0.5 L 49.31576621927951 -0.5 L 40 -0.5 Z M 96.66342246927951 0.5 L 105.97918868855902 0.5 L 105.97918868855902 3.5 L 112.97918868855902 0 L 105.97918868855902 -3.5 L 105.97918868855902 -0.5 L 96.66342246927951 -0.5 Z"/><text text-anchor="middle" pointer-events="none" font-size="8px" fill="#000000" x="72.98959434427951" y="3" font-family="Helvetica Neue, Helvetica, Arial, sans-serif">subClassOf</text></g><g class="relationship" transform="translate(-91.52283785827706 373.0413817103112) rotate(264.0962499322856)"><path class="b-outline" fill="#A5ABB6" stroke="none" d="M 40 0.5 L 49.08364123843198 0.5 L 49.08364123843198 -0.5 L 40 -0.5 Z M 96.43129748843198 0.5 L 105.51493872686396 0.5 L 105.51493872686396 3.5 L 112.51493872686396 0 L 105.51493872686396 -3.5 L 105.51493872686396 -0.5 L 96.43129748843198 -0.5 Z"/><text text-anchor="middle" pointer-events="none" font-size="8px" fill="#000000" x="72.75746936343198" y="3" transform="rotate(180 72.75746936343198 0)" font-family="Helvetica Neue, Helvetica, Arial, sans-serif">subClassOf</text></g></g><g class="layer nodes"><g class="node" aria-label="graph-node321308" transform="translate(27.759527504627634,22.734713535611856)"><circle class="b-outline" cx="0" cy="0" r="40" fill="#8DCC93" stroke="#5db665" stroke-width="2px"/><text class="caption" text-anchor="middle" pointer-events="none" x="0" y="0" font-size="10px" fill="#2A2C34" font-family="Helvetica Neue, Helvetica, Arial, sans-serif"> Musculoskeletal</text><text class="caption" text-anchor="middle" pointer-events="none" x="0" y="10" font-size="10px" fill="#2A2C34" font-family="Helvetica Neue, Helvetica, Arial, sans-serif"> System</text></g><g class="node" aria-label="graph-node322429" transform="translate(-29.784035531059608,155.7491629977474)"><circle class="b-outline" cx="0" cy="0" r="40" fill="#8DCC93" stroke="#5db665" stroke-width="2px"/><text class="caption" text-anchor="middle" pointer-events="none" x="0" y="5" font-size="10px" fill="#2A2C34" font-family="Helvetica Neue, Helvetica, Arial, sans-serif"> Aponeurosis</text></g><g class="node" aria-label="graph-node321072" transform="translate(69.64433599758685,164.36913757705832)"><circle class="b-outline" cx="0" cy="0" r="40" fill="#8DCC93" stroke="#5db665" stroke-width="2px"/><text class="caption" text-anchor="middle" pointer-events="none" x="0" y="0" font-size="10px" fill="#2A2C34" font-family="Helvetica Neue, Helvetica, Arial, sans-serif"> Myotendinous</text><text class="caption" text-anchor="middle" pointer-events="none" x="0" y="10" font-size="10px" fill="#2A2C34" font-family="Helvetica Neue, Helvetica, Arial, sans-serif"> Junction</text></g><g class="node" aria-label="graph-node320880" transform="translate(169.42437117653108,161.2449226338474)"><circle class="b-outline" cx="0" cy="0" r="40" fill="#8DCC93" stroke="#5db665" stroke-width="2px"/><text class="caption" text-anchor="middle" pointer-events="none" x="0" y="5" font-size="10px" fill="#2A2C34" font-family="Helvetica Neue, Helvetica, Arial, sans-serif"> Skeleton</text></g><g class="node" aria-label="graph-node322161" transform="translate(297.1488912231705,244.97290567741757)"><circle class="b-outline" cx="0" cy="0" r="40" fill="#8DCC93" stroke="#5db665" stroke-width="2px"/><text class="caption" text-anchor="middle" pointer-events="none" x="0" y="5" font-size="10px" fill="#2A2C34" font-family="Helvetica Neue, Helvetica, Arial, sans-serif"> Bone and Bones</text></g><g class="node" aria-label="graph-node324208" transform="translate(209.56947808933182,310.3210823177896)"><circle class="b-outline" cx="0" cy="0" r="40" fill="#8DCC93" stroke="#5db665" stroke-width="2px"/><text class="caption" text-anchor="middle" pointer-events="none" x="0" y="5" font-size="10px" fill="#2A2C34" font-family="Helvetica Neue, Helvetica, Arial, sans-serif"> Joints</text></g><g class="node" aria-label="graph-node332292" transform="translate(239.94519367776027,-13.211642472822133)"><circle class="b-outline" cx="0" cy="0" r="40" fill="#8DCC93" stroke="#5db665" stroke-width="2px"/><text class="caption" text-anchor="middle" pointer-events="none" x="0" y="5" font-size="10px" fill="#2A2C34" font-family="Helvetica Neue, Helvetica, Arial, sans-serif"> Muscles</text></g><g class="node" aria-label="graph-node332299" transform="translate(392.8763541373817,-8.834257308637156)"><circle class="b-outline" cx="0" cy="0" r="40" fill="#8DCC93" stroke="#5db665" stroke-width="2px"/><text class="caption" text-anchor="middle" pointer-events="none" x="0" y="5" font-size="10px" fill="#2A2C34" font-family="Helvetica Neue, Helvetica, Arial, sans-serif"> Muscle, Smooth</text></g><g class="node" aria-label="graph-node331941" transform="translate(356.4393239887637,83.95323386408836)"><circle class="b-outline" cx="0" cy="0" r="40" fill="#8DCC93" stroke="#5db665" stroke-width="2px"/><text class="caption" text-anchor="middle" pointer-events="none" x="0" y="5" font-size="10px" fill="#2A2C34" font-family="Helvetica Neue, Helvetica, Arial, sans-serif"> Myocardium</text></g><g class="node" aria-label="graph-node314954" transform="translate(279.99838568433233,-158.00637868157477)"><circle class="b-outline" cx="0" cy="0" r="40" fill="#8DCC93" stroke="#5db665" stroke-width="2px"/><text class="caption" text-anchor="middle" pointer-events="none" x="0" y="5" font-size="10px" fill="#2A2C34" font-family="Helvetica Neue, Helvetica, Arial, sans-serif"> Muscle, Skeletal</text></g><g class="node" aria-label="graph-node326666" transform="translate(363.9679143565672,-104.19619630043437)"><circle class="b-outline" cx="0" cy="0" r="40" fill="#8DCC93" stroke="#5db665" stroke-width="2px"/><text class="caption" text-anchor="middle" pointer-events="none" x="0" y="5" font-size="10px" fill="#2A2C34" font-family="Helvetica Neue, Helvetica, Arial, sans-serif"> Muscle, Striated</text></g><g class="node" aria-label="graph-node320407" transform="translate(104.57474410566432,-165.26434452559306)"><circle class="b-outline" cx="0" cy="0" r="40" fill="#8DCC93" stroke="#5db665" stroke-width="2px"/><text class="caption" text-anchor="middle" pointer-events="none" x="0" y="5" font-size="10px" fill="#2A2C34" font-family="Helvetica Neue, Helvetica, Arial, sans-serif"> Ligaments</text></g><g class="node" aria-label="graph-node321671" transform="translate(-3.271326575339969,-78.20928149024998)"><circle class="b-outline" cx="0" cy="0" r="40" fill="#8DCC93" stroke="#5db665" stroke-width="2px"/><text class="caption" text-anchor="middle" pointer-events="none" x="0" y="5" font-size="10px" fill="#2A2C34" font-family="Helvetica Neue, Helvetica, Arial, sans-serif"> Broad Ligament</text></g><g class="node" aria-label="graph-node323183" transform="translate(176.9094085735604,-299.7690391030638)"><circle class="b-outline" cx="0" cy="0" r="40" fill="#8DCC93" stroke="#5db665" stroke-width="2px"/><text class="caption" text-anchor="middle" pointer-events="none" x="0" y="0" font-size="10px" fill="#2A2C34" font-family="Helvetica Neue, Helvetica, Arial, sans-serif"> Round</text><text class="caption" text-anchor="middle" pointer-events="none" x="0" y="10" font-size="10px" fill="#2A2C34" font-family="Helvetica Neue, Helvetica, Arial, sans-serif"> Ligaments</text></g><g class="node" aria-label="graph-node320408" transform="translate(78.46993757717169,-316.0078296792843)"><circle class="b-outline" cx="0" cy="0" r="40" fill="#8DCC93" stroke="#5db665" stroke-width="2px"/><text class="caption" text-anchor="middle" pointer-events="none" x="0" y="0" font-size="10px" fill="#2A2C34" font-family="Helvetica Neue, Helvetica, Arial, sans-serif"> Ligaments,</text><text class="caption" text-anchor="middle" pointer-events="none" x="0" y="10" font-size="10px" fill="#2A2C34" font-family="Helvetica Neue, Helvetica, Arial, sans-serif"> Articular</text></g><g class="node" aria-label="graph-node328345" transform="translate(-71.5386483650905,-150.92459157112847)"><circle class="b-outline" cx="0" cy="0" r="40" fill="#8DCC93" stroke="#5db665" stroke-width="2px"/><text class="caption" text-anchor="middle" pointer-events="none" x="0" y="5" font-size="10px" fill="#2A2C34" font-family="Helvetica Neue, Helvetica, Arial, sans-serif"> Fascia</text></g><g class="node" aria-label="graph-node328348" transform="translate(-92.49430520374447,-303.284013444594)"><circle class="b-outline" cx="0" cy="0" r="40" fill="#8DCC93" stroke="#5db665" stroke-width="2px"/><text class="caption" text-anchor="middle" pointer-events="none" x="0" y="5" font-size="10px" fill="#2A2C34" font-family="Helvetica Neue, Helvetica, Arial, sans-serif"> Fascia Lata</text></g><g class="node" aria-label="graph-node349595" transform="translate(-181.68385896011375,-258.6665105429822)"><circle class="b-outline" cx="0" cy="0" r="40" fill="#8DCC93" stroke="#5db665" stroke-width="2px"/><text class="caption" text-anchor="middle" pointer-events="none" x="0" y="5" font-size="10px" fill="#2A2C34" font-family="Helvetica Neue, Helvetica, Arial, sans-serif"> Tenon Capsule</text></g><g class="node" aria-label="graph-node330152" transform="translate(-174.30858608617496,-28.26326582507249)"><circle class="b-outline" cx="0" cy="0" r="40" fill="#8DCC93" stroke="#5db665" stroke-width="2px"/><text class="caption" text-anchor="middle" pointer-events="none" x="0" y="5" font-size="10px" fill="#2A2C34" font-family="Helvetica Neue, Helvetica, Arial, sans-serif"> Cartilage</text></g><g class="node" aria-label="graph-node329904" transform="translate(-275.62817867162937,-143.57347993053938)"><circle class="b-outline" cx="0" cy="0" r="40" fill="#8DCC93" stroke="#5db665" stroke-width="2px"/><text class="caption" text-anchor="middle" pointer-events="none" x="0" y="5" font-size="10px" fill="#2A2C34" font-family="Helvetica Neue, Helvetica, Arial, sans-serif"> Hyaline Cartilage</text></g><g class="node" aria-label="graph-node317611" transform="translate(-327.55061359752506,-58.55435102311657)"><circle class="b-outline" cx="0" cy="0" r="40" fill="#8DCC93" stroke="#5db665" stroke-width="2px"/><text class="caption" text-anchor="middle" pointer-events="none" x="0" y="5" font-size="10px" fill="#2A2C34" font-family="Helvetica Neue, Helvetica, Arial, sans-serif"> Fibrocartilage</text></g><g class="node" aria-label="graph-node329906" transform="translate(-312.16019178027335,39.93805814517151)"><circle class="b-outline" cx="0" cy="0" r="40" fill="#8DCC93" stroke="#5db665" stroke-width="2px"/><text class="caption" text-anchor="middle" pointer-events="none" x="0" y="5" font-size="10px" fill="#2A2C34" font-family="Helvetica Neue, Helvetica, Arial, sans-serif"> Elastic Cartilage</text></g><g class="node" aria-label="graph-node322845" transform="translate(-107.21016465616654,221.33536893298162)"><circle class="b-outline" cx="0" cy="0" r="40" fill="#8DCC93" stroke="#5db665" stroke-width="2px"/><text class="caption" text-anchor="middle" pointer-events="none" x="0" y="5" font-size="10px" fill="#2A2C34" font-family="Helvetica Neue, Helvetica, Arial, sans-serif"> Tendons</text></g><g class="node" aria-label="graph-node322493" transform="translate(-253.885879852071,266.486784805928)"><circle class="b-outline" cx="0" cy="0" r="40" fill="#8DCC93" stroke="#5db665" stroke-width="2px"/><text class="caption" text-anchor="middle" pointer-events="none" x="0" y="0" font-size="10px" fill="#2A2C34" font-family="Helvetica Neue, Helvetica, Arial, sans-serif"> Hamstring</text><text class="caption" text-anchor="middle" pointer-events="none" x="0" y="10" font-size="10px" fill="#2A2C34" font-family="Helvetica Neue, Helvetica, Arial, sans-serif"> Tendons</text></g><g class="node" aria-label="graph-node324037" transform="translate(-229.95481143212447,142.3198902523043)"><circle class="b-outline" cx="0" cy="0" r="40" fill="#8DCC93" stroke="#5db665" stroke-width="2px"/><text class="caption" text-anchor="middle" pointer-events="none" x="0" y="5" font-size="10px" fill="#2A2C34" font-family="Helvetica Neue, Helvetica, Arial, sans-serif"> Achilles Tendon</text></g><g class="node" aria-label="graph-node341946" transform="translate(-194.7669543533794,346.7803399351218)"><circle class="b-outline" cx="0" cy="0" r="40" fill="#8DCC93" stroke="#5db665" stroke-width="2px"/><text class="caption" text-anchor="middle" pointer-events="none" x="0" y="0" font-size="10px" fill="#2A2C34" font-family="Helvetica Neue, Helvetica, Arial, sans-serif"> Patellar</text><text class="caption" text-anchor="middle" pointer-events="none" x="0" y="10" font-size="10px" fill="#2A2C34" font-family="Helvetica Neue, Helvetica, Arial, sans-serif"> Ligament</text></g><g class="node" aria-label="graph-node339432" transform="translate(-91.52283785827706,373.0413817103112)"><circle class="b-outline" cx="0" cy="0" r="40" fill="#8DCC93" stroke="#5db665" stroke-width="2px"/><text class="caption" text-anchor="middle" pointer-events="none" x="0" y="5" font-size="10px" fill="#2A2C34" font-family="Helvetica Neue, Helvetica, Arial, sans-serif"> Rotator Cuff</text></g></g></svg>